M48
;DRILL file {KiCad 4.0.1-stable} date 2016-05-02 8:22:29 PM
;FORMAT={-:-/ absolute / inch / decimal}
FMAT,2
INCH,TZ
T1C0.016
T2C0.031
T3C0.039
T4C0.045
T5C0.050
T6C0.059
%
G90
G05
M72
T1
X4.23Y-3.1
X4.48Y-2.56
X4.62Y-2.56
X4.64Y-3.65
X4.96Y-2.52
X4.99Y-2.89
X5.02Y-3.25
X5.12Y-3.12
X5.19Y-2.86
X5.21Y-2.36
X5.3Y-3.32
X5.35Y-2.51
X5.39Y-2.48
X5.52Y-2.51
X5.63Y-2.78
X5.63Y-3.42
X5.68Y-2.96
X5.69Y-2.36
X5.73Y-2.65
X5.75Y-3.08
X5.79Y-3.46
X5.9Y-3.13
X6.07Y-3.58
X6.08Y-2.94
X6.38Y-3.14
X6.53Y-3.47
X6.62Y-3.42
X6.99Y-2.81
X7.06Y-2.78
X7.09Y-2.66
X7.1Y-3.1
X7.11Y-2.36
X7.19Y-2.48
X7.29Y-2.51
X7.58Y-2.88
X7.72Y-3.65
T2
X4.79Y-2.66
X4.79Y-2.96
X4.89Y-2.66
X4.89Y-2.96
X4.99Y-2.66
X4.99Y-2.96
X5.09Y-2.66
X5.09Y-2.96
X5.19Y-2.66
X5.19Y-2.96
X5.29Y-2.66
X5.29Y-2.96
X5.39Y-2.66
X5.39Y-2.96
X5.49Y-2.66
X5.49Y-2.96
X6.69Y-2.66
X6.69Y-2.96
X6.79Y-2.66
X6.79Y-2.96
X6.89Y-2.66
X6.89Y-2.96
X6.99Y-2.66
X6.99Y-2.96
X7.09Y-2.66
X7.09Y-2.96
X7.19Y-2.66
X7.19Y-2.96
X7.29Y-2.66
X7.29Y-2.96
X7.39Y-2.66
X7.39Y-2.96
T3
X4.34Y-2.56
X4.34Y-2.96
X4.84Y-3.5601
X5.29Y-3.5599
X5.99Y-2.61
X5.99Y-3.01
X6.34Y-2.61
X6.34Y-3.01
X6.84Y-3.5601
X7.24Y-3.5599
X7.74Y-2.66
X7.74Y-3.06
T4
X4.34Y-3.31
X4.44Y-3.31
X4.54Y-3.31
X5.79Y-3.26
X5.89Y-3.26
X5.99Y-3.26
X6.34Y-3.31
X6.44Y-3.31
X6.54Y-3.31
X7.54Y-3.26
X7.64Y-3.26
X7.74Y-3.26
T5
X4.44Y-3.5601
X5.69Y-3.5599
X6.44Y-3.5601
X7.64Y-3.5599
T6
X4.24Y-3.56
X5.09Y-3.56
X5.49Y-2.36
X5.89Y-3.56
X6.24Y-3.56
X6.97Y-3.3
X7.04Y-3.56
X7.24Y-3.29
X7.39Y-2.46
X7.84Y-3.56
T0
M30
