%FSLAX45Y45*%
G04 Gerber Fmt 4.5, Leading zero omitted, Abs format (unit mm)*
G04 Created by KiCad (PCBNEW 4.0.1-stable) date 2016-04-29 3:59:18 PM*
%MOMM*%
G01*
G04 APERTURE LIST*
%ADD10C,0.127000*%
%ADD11C,0.150000*%
%ADD12C,0.200000*%
%ADD13C,0.300000*%
G04 APERTURE END LIST*
D10*
D11*
X20218400Y-9271000D02*
X20218400Y-9347200D01*
X20218400Y-9423400D02*
X20218400Y-9271000D01*
X10515600Y-9423400D02*
X20218400Y-9423400D01*
X20218400Y-6807200D02*
X20218400Y-9296400D01*
X19100800Y-5689600D02*
X20218400Y-6807200D01*
X18770600Y-5689600D02*
X19100800Y-5689600D01*
X18542000Y-5689600D02*
X18770600Y-5689600D01*
X11480800Y-5689600D02*
X18542000Y-5689600D01*
X11379200Y-5791200D02*
X11480800Y-5689600D01*
X11328400Y-5842000D02*
X11379200Y-5791200D01*
X11201400Y-5969000D02*
X11328400Y-5842000D01*
X10515600Y-6654800D02*
X11201400Y-5969000D01*
X10515600Y-9423400D02*
X10515600Y-6654800D01*
D12*
X11359200Y-6482400D02*
X11399200Y-6522400D01*
X11399200Y-6482400D02*
X11359200Y-6522400D01*
X12654600Y-7320600D02*
X12694600Y-7360600D01*
X12694600Y-7320600D02*
X12654600Y-7360600D01*
X12730800Y-8235000D02*
X12770800Y-8275000D01*
X12770800Y-8235000D02*
X12730800Y-8275000D01*
X12984800Y-7904800D02*
X13024800Y-7944800D01*
X13024800Y-7904800D02*
X12984800Y-7944800D01*
X13162600Y-7244400D02*
X13202600Y-7284400D01*
X13202600Y-7244400D02*
X13162600Y-7284400D01*
X13569000Y-6355400D02*
X13609000Y-6395400D01*
X13609000Y-6355400D02*
X13569000Y-6395400D01*
X13670600Y-6279200D02*
X13710600Y-6319200D01*
X13710600Y-6279200D02*
X13670600Y-6319200D01*
X14000800Y-6355400D02*
X14040800Y-6395400D01*
X14040800Y-6355400D02*
X14000800Y-6395400D01*
X14280200Y-7041200D02*
X14320200Y-7081200D01*
X14320200Y-7041200D02*
X14280200Y-7081200D01*
X14280200Y-8666800D02*
X14320200Y-8706800D01*
X14320200Y-8666800D02*
X14280200Y-8706800D01*
X14407200Y-7498400D02*
X14447200Y-7538400D01*
X14447200Y-7498400D02*
X14407200Y-7538400D01*
X14585000Y-7803200D02*
X14625000Y-7843200D01*
X14625000Y-7803200D02*
X14585000Y-7843200D01*
X14686600Y-8768400D02*
X14726600Y-8808400D01*
X14726600Y-8768400D02*
X14686600Y-8808400D01*
X14966000Y-7930200D02*
X15006000Y-7970200D01*
X15006000Y-7930200D02*
X14966000Y-7970200D01*
X15423200Y-7447600D02*
X15463200Y-7487600D01*
X15463200Y-7447600D02*
X15423200Y-7487600D01*
X16185200Y-7955600D02*
X16225200Y-7995600D01*
X16225200Y-7955600D02*
X16185200Y-7995600D01*
X16566200Y-8793800D02*
X16606200Y-8833800D01*
X16606200Y-8793800D02*
X16566200Y-8833800D01*
X16794800Y-8666800D02*
X16834800Y-8706800D01*
X16834800Y-8666800D02*
X16794800Y-8706800D01*
X17734600Y-7117400D02*
X17774600Y-7157400D01*
X17774600Y-7117400D02*
X17734600Y-7157400D01*
X17912400Y-7041200D02*
X17952400Y-7081200D01*
X17952400Y-7041200D02*
X17912400Y-7081200D01*
X17988600Y-6736400D02*
X18028600Y-6776400D01*
X18028600Y-6736400D02*
X17988600Y-6776400D01*
X18014000Y-7854000D02*
X18054000Y-7894000D01*
X18054000Y-7854000D02*
X18014000Y-7894000D01*
X18242600Y-6279200D02*
X18282600Y-6319200D01*
X18282600Y-6279200D02*
X18242600Y-6319200D01*
X18496600Y-6355400D02*
X18536600Y-6395400D01*
X18536600Y-6355400D02*
X18496600Y-6395400D01*
X12206600Y-6756400D02*
G75*
G03X12206600Y-6756400I-40000J0D01*
G01*
X12206600Y-7518400D02*
G75*
G03X12206600Y-7518400I-40000J0D01*
G01*
X12460600Y-6756400D02*
G75*
G03X12460600Y-6756400I-40000J0D01*
G01*
X12460600Y-7518400D02*
G75*
G03X12460600Y-7518400I-40000J0D01*
G01*
X12714600Y-6756400D02*
G75*
G03X12714600Y-6756400I-40000J0D01*
G01*
X12714600Y-7518400D02*
G75*
G03X12714600Y-7518400I-40000J0D01*
G01*
X12968600Y-6756400D02*
G75*
G03X12968600Y-6756400I-40000J0D01*
G01*
X12968600Y-7518400D02*
G75*
G03X12968600Y-7518400I-40000J0D01*
G01*
X13222600Y-6756400D02*
G75*
G03X13222600Y-6756400I-40000J0D01*
G01*
X13222600Y-7518400D02*
G75*
G03X13222600Y-7518400I-40000J0D01*
G01*
X13476600Y-6756400D02*
G75*
G03X13476600Y-6756400I-40000J0D01*
G01*
X13476600Y-7518400D02*
G75*
G03X13476600Y-7518400I-40000J0D01*
G01*
X13730600Y-6756400D02*
G75*
G03X13730600Y-6756400I-40000J0D01*
G01*
X13730600Y-7518400D02*
G75*
G03X13730600Y-7518400I-40000J0D01*
G01*
X13984600Y-6756400D02*
G75*
G03X13984600Y-6756400I-40000J0D01*
G01*
X13984600Y-7518400D02*
G75*
G03X13984600Y-7518400I-40000J0D01*
G01*
X17032600Y-6756400D02*
G75*
G03X17032600Y-6756400I-40000J0D01*
G01*
X17032600Y-7518400D02*
G75*
G03X17032600Y-7518400I-40000J0D01*
G01*
X17286600Y-6756400D02*
G75*
G03X17286600Y-6756400I-40000J0D01*
G01*
X17286600Y-7518400D02*
G75*
G03X17286600Y-7518400I-40000J0D01*
G01*
X17540600Y-6756400D02*
G75*
G03X17540600Y-6756400I-40000J0D01*
G01*
X17540600Y-7518400D02*
G75*
G03X17540600Y-7518400I-40000J0D01*
G01*
X17794600Y-6756400D02*
G75*
G03X17794600Y-6756400I-40000J0D01*
G01*
X17794600Y-7518400D02*
G75*
G03X17794600Y-7518400I-40000J0D01*
G01*
X18048600Y-6756400D02*
G75*
G03X18048600Y-6756400I-40000J0D01*
G01*
X18048600Y-7518400D02*
G75*
G03X18048600Y-7518400I-40000J0D01*
G01*
X18302600Y-6756400D02*
G75*
G03X18302600Y-6756400I-40000J0D01*
G01*
X18302600Y-7518400D02*
G75*
G03X18302600Y-7518400I-40000J0D01*
G01*
X18556600Y-6756400D02*
G75*
G03X18556600Y-6756400I-40000J0D01*
G01*
X18556600Y-7518400D02*
G75*
G03X18556600Y-7518400I-40000J0D01*
G01*
X18810600Y-6756400D02*
G75*
G03X18810600Y-6756400I-40000J0D01*
G01*
X18810600Y-7518400D02*
G75*
G03X18810600Y-7518400I-40000J0D01*
G01*
X11023600Y-6452362D02*
X11023600Y-6552438D01*
X10973562Y-6502400D02*
X11073638Y-6502400D01*
X11023600Y-7468362D02*
X11023600Y-7568438D01*
X10973562Y-7518400D02*
X11073638Y-7518400D01*
X12293600Y-8992616D02*
X12293600Y-9092692D01*
X12243562Y-9042654D02*
X12343638Y-9042654D01*
X13436600Y-8992108D02*
X13436600Y-9092184D01*
X13386562Y-9042146D02*
X13486638Y-9042146D01*
X15214600Y-6579362D02*
X15214600Y-6679438D01*
X15164562Y-6629400D02*
X15264638Y-6629400D01*
X15214600Y-7595362D02*
X15214600Y-7695438D01*
X15164562Y-7645400D02*
X15264638Y-7645400D01*
X16103600Y-6579362D02*
X16103600Y-6679438D01*
X16053562Y-6629400D02*
X16153638Y-6629400D01*
X16103600Y-7595362D02*
X16103600Y-7695438D01*
X16053562Y-7645400D02*
X16153638Y-7645400D01*
X17373600Y-8992616D02*
X17373600Y-9092692D01*
X17323562Y-9042654D02*
X17423638Y-9042654D01*
X18389600Y-8992108D02*
X18389600Y-9092184D01*
X18339562Y-9042146D02*
X18439638Y-9042146D01*
X19659600Y-6706362D02*
X19659600Y-6806438D01*
X19609562Y-6756400D02*
X19709638Y-6756400D01*
X19659600Y-7722362D02*
X19659600Y-7822438D01*
X19609562Y-7772400D02*
X19709638Y-7772400D01*
X11064012Y-8447812D02*
X11064012Y-8366988D01*
X10983189Y-8366988D01*
X10983189Y-8447812D01*
X11064012Y-8447812D01*
X11318011Y-8447812D02*
X11318011Y-8366988D01*
X11237188Y-8366988D01*
X11237188Y-8447812D01*
X11318011Y-8447812D01*
X11572011Y-8447812D02*
X11572011Y-8366988D01*
X11491188Y-8366988D01*
X11491188Y-8447812D01*
X11572011Y-8447812D01*
X14747011Y-8320811D02*
X14747011Y-8239988D01*
X14666188Y-8239988D01*
X14666188Y-8320811D01*
X14747011Y-8320811D01*
X15001011Y-8320811D02*
X15001011Y-8239988D01*
X14920188Y-8239988D01*
X14920188Y-8320811D01*
X15001011Y-8320811D01*
X15255011Y-8320811D02*
X15255011Y-8239988D01*
X15174188Y-8239988D01*
X15174188Y-8320811D01*
X15255011Y-8320811D01*
X16144011Y-8447812D02*
X16144011Y-8366988D01*
X16063188Y-8366988D01*
X16063188Y-8447812D01*
X16144011Y-8447812D01*
X16398011Y-8447812D02*
X16398011Y-8366988D01*
X16317188Y-8366988D01*
X16317188Y-8447812D01*
X16398011Y-8447812D01*
X16652011Y-8447812D02*
X16652011Y-8366988D01*
X16571188Y-8366988D01*
X16571188Y-8447812D01*
X16652011Y-8447812D01*
X19192012Y-8320811D02*
X19192012Y-8239988D01*
X19111189Y-8239988D01*
X19111189Y-8320811D01*
X19192012Y-8320811D01*
X19446012Y-8320811D02*
X19446012Y-8239988D01*
X19365189Y-8239988D01*
X19365189Y-8320811D01*
X19446012Y-8320811D01*
X19700012Y-8320811D02*
X19700012Y-8239988D01*
X19619189Y-8239988D01*
X19619189Y-8320811D01*
X19700012Y-8320811D01*
X11277600Y-9106154D02*
X11341100Y-9042654D01*
X11277600Y-8979154D01*
X11214100Y-9042654D01*
X11277600Y-9106154D01*
X14452600Y-9105646D02*
X14516100Y-9042146D01*
X14452600Y-8978646D01*
X14389100Y-9042146D01*
X14452600Y-9105646D01*
X16357600Y-9106154D02*
X16421100Y-9042654D01*
X16357600Y-8979154D01*
X16294100Y-9042654D01*
X16357600Y-9106154D01*
X19405600Y-9105646D02*
X19469100Y-9042146D01*
X19405600Y-8978646D01*
X19342100Y-9042146D01*
X19405600Y-9105646D01*
X10694600Y-8967400D02*
X10844600Y-9117400D01*
X10844600Y-8967400D02*
X10694600Y-9117400D01*
X10844600Y-9042400D02*
G75*
G03X10844600Y-9042400I-75000J0D01*
G01*
X12853600Y-8967400D02*
X13003600Y-9117400D01*
X13003600Y-8967400D02*
X12853600Y-9117400D01*
X13003600Y-9042400D02*
G75*
G03X13003600Y-9042400I-75000J0D01*
G01*
X13869600Y-5919400D02*
X14019600Y-6069400D01*
X14019600Y-5919400D02*
X13869600Y-6069400D01*
X14019600Y-5994400D02*
G75*
G03X14019600Y-5994400I-75000J0D01*
G01*
X14885600Y-8967400D02*
X15035600Y-9117400D01*
X15035600Y-8967400D02*
X14885600Y-9117400D01*
X15035600Y-9042400D02*
G75*
G03X15035600Y-9042400I-75000J0D01*
G01*
X15774600Y-8967400D02*
X15924600Y-9117400D01*
X15924600Y-8967400D02*
X15774600Y-9117400D01*
X15924600Y-9042400D02*
G75*
G03X15924600Y-9042400I-75000J0D01*
G01*
X17628800Y-8307000D02*
X17778800Y-8457000D01*
X17778800Y-8307000D02*
X17628800Y-8457000D01*
X17778800Y-8382000D02*
G75*
G03X17778800Y-8382000I-75000J0D01*
G01*
X17806600Y-8967400D02*
X17956600Y-9117400D01*
X17956600Y-8967400D02*
X17806600Y-9117400D01*
X17956600Y-9042400D02*
G75*
G03X17956600Y-9042400I-75000J0D01*
G01*
X18314600Y-8281600D02*
X18464600Y-8431600D01*
X18464600Y-8281600D02*
X18314600Y-8431600D01*
X18464600Y-8356600D02*
G75*
G03X18464600Y-8356600I-75000J0D01*
G01*
X18695600Y-6173400D02*
X18845600Y-6323400D01*
X18845600Y-6173400D02*
X18695600Y-6323400D01*
X18845600Y-6248400D02*
G75*
G03X18845600Y-6248400I-75000J0D01*
G01*
X19838600Y-8967400D02*
X19988600Y-9117400D01*
X19988600Y-8967400D02*
X19838600Y-9117400D01*
X19988600Y-9042400D02*
G75*
G03X19988600Y-9042400I-75000J0D01*
G01*
D13*
X10779529Y-9896614D02*
X10779529Y-9596614D01*
X10850957Y-9596614D01*
X10893814Y-9610900D01*
X10922386Y-9639472D01*
X10936671Y-9668043D01*
X10950957Y-9725186D01*
X10950957Y-9768043D01*
X10936671Y-9825186D01*
X10922386Y-9853757D01*
X10893814Y-9882329D01*
X10850957Y-9896614D01*
X10779529Y-9896614D01*
X11079529Y-9896614D02*
X11079529Y-9696614D01*
X11079529Y-9753757D02*
X11093814Y-9725186D01*
X11108100Y-9710900D01*
X11136671Y-9696614D01*
X11165243Y-9696614D01*
X11265243Y-9896614D02*
X11265243Y-9696614D01*
X11265243Y-9596614D02*
X11250957Y-9610900D01*
X11265243Y-9625186D01*
X11279528Y-9610900D01*
X11265243Y-9596614D01*
X11265243Y-9625186D01*
X11450957Y-9896614D02*
X11422386Y-9882329D01*
X11408100Y-9853757D01*
X11408100Y-9596614D01*
X11608100Y-9896614D02*
X11579528Y-9882329D01*
X11565243Y-9853757D01*
X11565243Y-9596614D01*
X11950957Y-9896614D02*
X11950957Y-9596614D01*
X12050957Y-9810900D01*
X12150957Y-9596614D01*
X12150957Y-9896614D01*
X12422386Y-9896614D02*
X12422386Y-9739472D01*
X12408100Y-9710900D01*
X12379528Y-9696614D01*
X12322386Y-9696614D01*
X12293814Y-9710900D01*
X12422386Y-9882329D02*
X12393814Y-9896614D01*
X12322386Y-9896614D01*
X12293814Y-9882329D01*
X12279528Y-9853757D01*
X12279528Y-9825186D01*
X12293814Y-9796614D01*
X12322386Y-9782329D01*
X12393814Y-9782329D01*
X12422386Y-9768043D01*
X12565243Y-9696614D02*
X12565243Y-9996614D01*
X12565243Y-9710900D02*
X12593814Y-9696614D01*
X12650957Y-9696614D01*
X12679528Y-9710900D01*
X12693814Y-9725186D01*
X12708100Y-9753757D01*
X12708100Y-9839472D01*
X12693814Y-9868043D01*
X12679528Y-9882329D01*
X12650957Y-9896614D01*
X12593814Y-9896614D01*
X12565243Y-9882329D01*
X12836671Y-9868043D02*
X12850957Y-9882329D01*
X12836671Y-9896614D01*
X12822386Y-9882329D01*
X12836671Y-9868043D01*
X12836671Y-9896614D01*
X12836671Y-9710900D02*
X12850957Y-9725186D01*
X12836671Y-9739472D01*
X12822386Y-9725186D01*
X12836671Y-9710900D01*
X12836671Y-9739472D01*
X10468100Y-10370900D02*
X10508100Y-10410900D01*
X10508100Y-10370900D02*
X10468100Y-10410900D01*
X10836671Y-10226614D02*
X10865243Y-10226614D01*
X10893814Y-10240900D01*
X10908100Y-10255186D01*
X10922386Y-10283757D01*
X10936671Y-10340900D01*
X10936671Y-10412329D01*
X10922386Y-10469472D01*
X10908100Y-10498043D01*
X10893814Y-10512329D01*
X10865243Y-10526614D01*
X10836671Y-10526614D01*
X10808100Y-10512329D01*
X10793814Y-10498043D01*
X10779529Y-10469472D01*
X10765243Y-10412329D01*
X10765243Y-10340900D01*
X10779529Y-10283757D01*
X10793814Y-10255186D01*
X10808100Y-10240900D01*
X10836671Y-10226614D01*
X11065243Y-10498043D02*
X11079529Y-10512329D01*
X11065243Y-10526614D01*
X11050957Y-10512329D01*
X11065243Y-10498043D01*
X11065243Y-10526614D01*
X11336671Y-10326614D02*
X11336671Y-10526614D01*
X11265243Y-10212329D02*
X11193814Y-10426614D01*
X11379528Y-10426614D01*
X11550957Y-10226614D02*
X11579528Y-10226614D01*
X11608100Y-10240900D01*
X11622386Y-10255186D01*
X11636671Y-10283757D01*
X11650957Y-10340900D01*
X11650957Y-10412329D01*
X11636671Y-10469472D01*
X11622386Y-10498043D01*
X11608100Y-10512329D01*
X11579528Y-10526614D01*
X11550957Y-10526614D01*
X11522386Y-10512329D01*
X11508100Y-10498043D01*
X11493814Y-10469472D01*
X11479528Y-10412329D01*
X11479528Y-10340900D01*
X11493814Y-10283757D01*
X11508100Y-10255186D01*
X11522386Y-10240900D01*
X11550957Y-10226614D01*
X11779528Y-10526614D02*
X11779528Y-10326614D01*
X11779528Y-10355186D02*
X11793814Y-10340900D01*
X11822386Y-10326614D01*
X11865243Y-10326614D01*
X11893814Y-10340900D01*
X11908100Y-10369472D01*
X11908100Y-10526614D01*
X11908100Y-10369472D02*
X11922386Y-10340900D01*
X11950957Y-10326614D01*
X11993814Y-10326614D01*
X12022386Y-10340900D01*
X12036671Y-10369472D01*
X12036671Y-10526614D01*
X12179528Y-10526614D02*
X12179528Y-10326614D01*
X12179528Y-10355186D02*
X12193814Y-10340900D01*
X12222386Y-10326614D01*
X12265243Y-10326614D01*
X12293814Y-10340900D01*
X12308100Y-10369472D01*
X12308100Y-10526614D01*
X12308100Y-10369472D02*
X12322386Y-10340900D01*
X12350957Y-10326614D01*
X12393814Y-10326614D01*
X12422386Y-10340900D01*
X12436671Y-10369472D01*
X12436671Y-10526614D01*
X13022386Y-10212329D02*
X12765243Y-10598043D01*
X13408100Y-10226614D02*
X13436671Y-10226614D01*
X13465243Y-10240900D01*
X13479528Y-10255186D01*
X13493814Y-10283757D01*
X13508100Y-10340900D01*
X13508100Y-10412329D01*
X13493814Y-10469472D01*
X13479528Y-10498043D01*
X13465243Y-10512329D01*
X13436671Y-10526614D01*
X13408100Y-10526614D01*
X13379528Y-10512329D01*
X13365243Y-10498043D01*
X13350957Y-10469472D01*
X13336671Y-10412329D01*
X13336671Y-10340900D01*
X13350957Y-10283757D01*
X13365243Y-10255186D01*
X13379528Y-10240900D01*
X13408100Y-10226614D01*
X13636671Y-10498043D02*
X13650957Y-10512329D01*
X13636671Y-10526614D01*
X13622386Y-10512329D01*
X13636671Y-10498043D01*
X13636671Y-10526614D01*
X13836671Y-10226614D02*
X13865243Y-10226614D01*
X13893814Y-10240900D01*
X13908100Y-10255186D01*
X13922385Y-10283757D01*
X13936671Y-10340900D01*
X13936671Y-10412329D01*
X13922385Y-10469472D01*
X13908100Y-10498043D01*
X13893814Y-10512329D01*
X13865243Y-10526614D01*
X13836671Y-10526614D01*
X13808100Y-10512329D01*
X13793814Y-10498043D01*
X13779528Y-10469472D01*
X13765243Y-10412329D01*
X13765243Y-10340900D01*
X13779528Y-10283757D01*
X13793814Y-10255186D01*
X13808100Y-10240900D01*
X13836671Y-10226614D01*
X14222385Y-10526614D02*
X14050957Y-10526614D01*
X14136671Y-10526614D02*
X14136671Y-10226614D01*
X14108100Y-10269472D01*
X14079528Y-10298043D01*
X14050957Y-10312329D01*
X14479528Y-10226614D02*
X14422385Y-10226614D01*
X14393814Y-10240900D01*
X14379528Y-10255186D01*
X14350957Y-10298043D01*
X14336671Y-10355186D01*
X14336671Y-10469472D01*
X14350957Y-10498043D01*
X14365243Y-10512329D01*
X14393814Y-10526614D01*
X14450957Y-10526614D01*
X14479528Y-10512329D01*
X14493814Y-10498043D01*
X14508100Y-10469472D01*
X14508100Y-10398043D01*
X14493814Y-10369472D01*
X14479528Y-10355186D01*
X14450957Y-10340900D01*
X14393814Y-10340900D01*
X14365243Y-10355186D01*
X14350957Y-10369472D01*
X14336671Y-10398043D01*
X14622386Y-10226614D02*
X14622386Y-10283757D01*
X14736671Y-10226614D02*
X14736671Y-10283757D01*
X15179528Y-10640900D02*
X15165243Y-10626614D01*
X15136671Y-10583757D01*
X15122385Y-10555186D01*
X15108100Y-10512329D01*
X15093814Y-10440900D01*
X15093814Y-10383757D01*
X15108100Y-10312329D01*
X15122385Y-10269472D01*
X15136671Y-10240900D01*
X15165243Y-10198043D01*
X15179528Y-10183757D01*
X15279528Y-10255186D02*
X15293814Y-10240900D01*
X15322385Y-10226614D01*
X15393814Y-10226614D01*
X15422385Y-10240900D01*
X15436671Y-10255186D01*
X15450957Y-10283757D01*
X15450957Y-10312329D01*
X15436671Y-10355186D01*
X15265243Y-10526614D01*
X15450957Y-10526614D01*
X15708100Y-10326614D02*
X15708100Y-10526614D01*
X15636671Y-10212329D02*
X15565243Y-10426614D01*
X15750957Y-10426614D01*
X16093814Y-10526614D02*
X16093814Y-10226614D01*
X16222385Y-10526614D02*
X16222385Y-10369472D01*
X16208100Y-10340900D01*
X16179528Y-10326614D01*
X16136671Y-10326614D01*
X16108100Y-10340900D01*
X16093814Y-10355186D01*
X16408100Y-10526614D02*
X16379528Y-10512329D01*
X16365243Y-10498043D01*
X16350957Y-10469472D01*
X16350957Y-10383757D01*
X16365243Y-10355186D01*
X16379528Y-10340900D01*
X16408100Y-10326614D01*
X16450957Y-10326614D01*
X16479528Y-10340900D01*
X16493814Y-10355186D01*
X16508100Y-10383757D01*
X16508100Y-10469472D01*
X16493814Y-10498043D01*
X16479528Y-10512329D01*
X16450957Y-10526614D01*
X16408100Y-10526614D01*
X16679528Y-10526614D02*
X16650957Y-10512329D01*
X16636671Y-10483757D01*
X16636671Y-10226614D01*
X16908100Y-10512329D02*
X16879529Y-10526614D01*
X16822386Y-10526614D01*
X16793814Y-10512329D01*
X16779529Y-10483757D01*
X16779529Y-10369472D01*
X16793814Y-10340900D01*
X16822386Y-10326614D01*
X16879529Y-10326614D01*
X16908100Y-10340900D01*
X16922386Y-10369472D01*
X16922386Y-10398043D01*
X16779529Y-10426614D01*
X17036671Y-10512329D02*
X17065243Y-10526614D01*
X17122386Y-10526614D01*
X17150957Y-10512329D01*
X17165243Y-10483757D01*
X17165243Y-10469472D01*
X17150957Y-10440900D01*
X17122386Y-10426614D01*
X17079529Y-10426614D01*
X17050957Y-10412329D01*
X17036671Y-10383757D01*
X17036671Y-10369472D01*
X17050957Y-10340900D01*
X17079529Y-10326614D01*
X17122386Y-10326614D01*
X17150957Y-10340900D01*
X17265243Y-10640900D02*
X17279529Y-10626614D01*
X17308100Y-10583757D01*
X17322386Y-10555186D01*
X17336671Y-10512329D01*
X17350957Y-10440900D01*
X17350957Y-10383757D01*
X17336671Y-10312329D01*
X17322386Y-10269472D01*
X17308100Y-10240900D01*
X17279529Y-10198043D01*
X17265243Y-10183757D01*
X10508100Y-10786900D02*
G75*
G03X10508100Y-10786900I-40000J0D01*
G01*
X10836671Y-10622614D02*
X10865243Y-10622614D01*
X10893814Y-10636900D01*
X10908100Y-10651186D01*
X10922386Y-10679757D01*
X10936671Y-10736900D01*
X10936671Y-10808329D01*
X10922386Y-10865472D01*
X10908100Y-10894043D01*
X10893814Y-10908329D01*
X10865243Y-10922614D01*
X10836671Y-10922614D01*
X10808100Y-10908329D01*
X10793814Y-10894043D01*
X10779529Y-10865472D01*
X10765243Y-10808329D01*
X10765243Y-10736900D01*
X10779529Y-10679757D01*
X10793814Y-10651186D01*
X10808100Y-10636900D01*
X10836671Y-10622614D01*
X11065243Y-10894043D02*
X11079529Y-10908329D01*
X11065243Y-10922614D01*
X11050957Y-10908329D01*
X11065243Y-10894043D01*
X11065243Y-10922614D01*
X11250957Y-10751186D02*
X11222386Y-10736900D01*
X11208100Y-10722614D01*
X11193814Y-10694043D01*
X11193814Y-10679757D01*
X11208100Y-10651186D01*
X11222386Y-10636900D01*
X11250957Y-10622614D01*
X11308100Y-10622614D01*
X11336671Y-10636900D01*
X11350957Y-10651186D01*
X11365243Y-10679757D01*
X11365243Y-10694043D01*
X11350957Y-10722614D01*
X11336671Y-10736900D01*
X11308100Y-10751186D01*
X11250957Y-10751186D01*
X11222386Y-10765472D01*
X11208100Y-10779757D01*
X11193814Y-10808329D01*
X11193814Y-10865472D01*
X11208100Y-10894043D01*
X11222386Y-10908329D01*
X11250957Y-10922614D01*
X11308100Y-10922614D01*
X11336671Y-10908329D01*
X11350957Y-10894043D01*
X11365243Y-10865472D01*
X11365243Y-10808329D01*
X11350957Y-10779757D01*
X11336671Y-10765472D01*
X11308100Y-10751186D01*
X11550957Y-10622614D02*
X11579528Y-10622614D01*
X11608100Y-10636900D01*
X11622386Y-10651186D01*
X11636671Y-10679757D01*
X11650957Y-10736900D01*
X11650957Y-10808329D01*
X11636671Y-10865472D01*
X11622386Y-10894043D01*
X11608100Y-10908329D01*
X11579528Y-10922614D01*
X11550957Y-10922614D01*
X11522386Y-10908329D01*
X11508100Y-10894043D01*
X11493814Y-10865472D01*
X11479528Y-10808329D01*
X11479528Y-10736900D01*
X11493814Y-10679757D01*
X11508100Y-10651186D01*
X11522386Y-10636900D01*
X11550957Y-10622614D01*
X11779528Y-10922614D02*
X11779528Y-10722614D01*
X11779528Y-10751186D02*
X11793814Y-10736900D01*
X11822386Y-10722614D01*
X11865243Y-10722614D01*
X11893814Y-10736900D01*
X11908100Y-10765472D01*
X11908100Y-10922614D01*
X11908100Y-10765472D02*
X11922386Y-10736900D01*
X11950957Y-10722614D01*
X11993814Y-10722614D01*
X12022386Y-10736900D01*
X12036671Y-10765472D01*
X12036671Y-10922614D01*
X12179528Y-10922614D02*
X12179528Y-10722614D01*
X12179528Y-10751186D02*
X12193814Y-10736900D01*
X12222386Y-10722614D01*
X12265243Y-10722614D01*
X12293814Y-10736900D01*
X12308100Y-10765472D01*
X12308100Y-10922614D01*
X12308100Y-10765472D02*
X12322386Y-10736900D01*
X12350957Y-10722614D01*
X12393814Y-10722614D01*
X12422386Y-10736900D01*
X12436671Y-10765472D01*
X12436671Y-10922614D01*
X13022386Y-10608329D02*
X12765243Y-10994043D01*
X13408100Y-10622614D02*
X13436671Y-10622614D01*
X13465243Y-10636900D01*
X13479528Y-10651186D01*
X13493814Y-10679757D01*
X13508100Y-10736900D01*
X13508100Y-10808329D01*
X13493814Y-10865472D01*
X13479528Y-10894043D01*
X13465243Y-10908329D01*
X13436671Y-10922614D01*
X13408100Y-10922614D01*
X13379528Y-10908329D01*
X13365243Y-10894043D01*
X13350957Y-10865472D01*
X13336671Y-10808329D01*
X13336671Y-10736900D01*
X13350957Y-10679757D01*
X13365243Y-10651186D01*
X13379528Y-10636900D01*
X13408100Y-10622614D01*
X13636671Y-10894043D02*
X13650957Y-10908329D01*
X13636671Y-10922614D01*
X13622386Y-10908329D01*
X13636671Y-10894043D01*
X13636671Y-10922614D01*
X13836671Y-10622614D02*
X13865243Y-10622614D01*
X13893814Y-10636900D01*
X13908100Y-10651186D01*
X13922385Y-10679757D01*
X13936671Y-10736900D01*
X13936671Y-10808329D01*
X13922385Y-10865472D01*
X13908100Y-10894043D01*
X13893814Y-10908329D01*
X13865243Y-10922614D01*
X13836671Y-10922614D01*
X13808100Y-10908329D01*
X13793814Y-10894043D01*
X13779528Y-10865472D01*
X13765243Y-10808329D01*
X13765243Y-10736900D01*
X13779528Y-10679757D01*
X13793814Y-10651186D01*
X13808100Y-10636900D01*
X13836671Y-10622614D01*
X14036671Y-10622614D02*
X14222385Y-10622614D01*
X14122385Y-10736900D01*
X14165243Y-10736900D01*
X14193814Y-10751186D01*
X14208100Y-10765472D01*
X14222385Y-10794043D01*
X14222385Y-10865472D01*
X14208100Y-10894043D01*
X14193814Y-10908329D01*
X14165243Y-10922614D01*
X14079528Y-10922614D01*
X14050957Y-10908329D01*
X14036671Y-10894043D01*
X14508100Y-10922614D02*
X14336671Y-10922614D01*
X14422385Y-10922614D02*
X14422385Y-10622614D01*
X14393814Y-10665472D01*
X14365243Y-10694043D01*
X14336671Y-10708329D01*
X14622386Y-10622614D02*
X14622386Y-10679757D01*
X14736671Y-10622614D02*
X14736671Y-10679757D01*
X15179528Y-11036900D02*
X15165243Y-11022614D01*
X15136671Y-10979757D01*
X15122385Y-10951186D01*
X15108100Y-10908329D01*
X15093814Y-10836900D01*
X15093814Y-10779757D01*
X15108100Y-10708329D01*
X15122385Y-10665472D01*
X15136671Y-10636900D01*
X15165243Y-10594043D01*
X15179528Y-10579757D01*
X15265243Y-10622614D02*
X15450957Y-10622614D01*
X15350957Y-10736900D01*
X15393814Y-10736900D01*
X15422385Y-10751186D01*
X15436671Y-10765472D01*
X15450957Y-10794043D01*
X15450957Y-10865472D01*
X15436671Y-10894043D01*
X15422385Y-10908329D01*
X15393814Y-10922614D01*
X15308100Y-10922614D01*
X15279528Y-10908329D01*
X15265243Y-10894043D01*
X15565243Y-10651186D02*
X15579528Y-10636900D01*
X15608100Y-10622614D01*
X15679528Y-10622614D01*
X15708100Y-10636900D01*
X15722385Y-10651186D01*
X15736671Y-10679757D01*
X15736671Y-10708329D01*
X15722385Y-10751186D01*
X15550957Y-10922614D01*
X15736671Y-10922614D01*
X16093814Y-10922614D02*
X16093814Y-10622614D01*
X16222385Y-10922614D02*
X16222385Y-10765472D01*
X16208100Y-10736900D01*
X16179528Y-10722614D01*
X16136671Y-10722614D01*
X16108100Y-10736900D01*
X16093814Y-10751186D01*
X16408100Y-10922614D02*
X16379528Y-10908329D01*
X16365243Y-10894043D01*
X16350957Y-10865472D01*
X16350957Y-10779757D01*
X16365243Y-10751186D01*
X16379528Y-10736900D01*
X16408100Y-10722614D01*
X16450957Y-10722614D01*
X16479528Y-10736900D01*
X16493814Y-10751186D01*
X16508100Y-10779757D01*
X16508100Y-10865472D01*
X16493814Y-10894043D01*
X16479528Y-10908329D01*
X16450957Y-10922614D01*
X16408100Y-10922614D01*
X16679528Y-10922614D02*
X16650957Y-10908329D01*
X16636671Y-10879757D01*
X16636671Y-10622614D01*
X16908100Y-10908329D02*
X16879529Y-10922614D01*
X16822386Y-10922614D01*
X16793814Y-10908329D01*
X16779529Y-10879757D01*
X16779529Y-10765472D01*
X16793814Y-10736900D01*
X16822386Y-10722614D01*
X16879529Y-10722614D01*
X16908100Y-10736900D01*
X16922386Y-10765472D01*
X16922386Y-10794043D01*
X16779529Y-10822614D01*
X17036671Y-10908329D02*
X17065243Y-10922614D01*
X17122386Y-10922614D01*
X17150957Y-10908329D01*
X17165243Y-10879757D01*
X17165243Y-10865472D01*
X17150957Y-10836900D01*
X17122386Y-10822614D01*
X17079529Y-10822614D01*
X17050957Y-10808329D01*
X17036671Y-10779757D01*
X17036671Y-10765472D01*
X17050957Y-10736900D01*
X17079529Y-10722614D01*
X17122386Y-10722614D01*
X17150957Y-10736900D01*
X17265243Y-11036900D02*
X17279529Y-11022614D01*
X17308100Y-10979757D01*
X17322386Y-10951186D01*
X17336671Y-10908329D01*
X17350957Y-10836900D01*
X17350957Y-10779757D01*
X17336671Y-10708329D01*
X17322386Y-10665472D01*
X17308100Y-10636900D01*
X17279529Y-10594043D01*
X17265243Y-10579757D01*
X10458062Y-11132862D02*
X10458062Y-11232938D01*
X10408024Y-11182900D02*
X10508100Y-11182900D01*
X10936671Y-11318614D02*
X10765243Y-11318614D01*
X10850957Y-11318614D02*
X10850957Y-11018614D01*
X10822386Y-11061472D01*
X10793814Y-11090043D01*
X10765243Y-11104329D01*
X11065243Y-11290043D02*
X11079529Y-11304329D01*
X11065243Y-11318614D01*
X11050957Y-11304329D01*
X11065243Y-11290043D01*
X11065243Y-11318614D01*
X11265243Y-11018614D02*
X11293814Y-11018614D01*
X11322386Y-11032900D01*
X11336671Y-11047186D01*
X11350957Y-11075757D01*
X11365243Y-11132900D01*
X11365243Y-11204329D01*
X11350957Y-11261471D01*
X11336671Y-11290043D01*
X11322386Y-11304329D01*
X11293814Y-11318614D01*
X11265243Y-11318614D01*
X11236671Y-11304329D01*
X11222386Y-11290043D01*
X11208100Y-11261471D01*
X11193814Y-11204329D01*
X11193814Y-11132900D01*
X11208100Y-11075757D01*
X11222386Y-11047186D01*
X11236671Y-11032900D01*
X11265243Y-11018614D01*
X11550957Y-11018614D02*
X11579528Y-11018614D01*
X11608100Y-11032900D01*
X11622386Y-11047186D01*
X11636671Y-11075757D01*
X11650957Y-11132900D01*
X11650957Y-11204329D01*
X11636671Y-11261471D01*
X11622386Y-11290043D01*
X11608100Y-11304329D01*
X11579528Y-11318614D01*
X11550957Y-11318614D01*
X11522386Y-11304329D01*
X11508100Y-11290043D01*
X11493814Y-11261471D01*
X11479528Y-11204329D01*
X11479528Y-11132900D01*
X11493814Y-11075757D01*
X11508100Y-11047186D01*
X11522386Y-11032900D01*
X11550957Y-11018614D01*
X11779528Y-11318614D02*
X11779528Y-11118614D01*
X11779528Y-11147186D02*
X11793814Y-11132900D01*
X11822386Y-11118614D01*
X11865243Y-11118614D01*
X11893814Y-11132900D01*
X11908100Y-11161472D01*
X11908100Y-11318614D01*
X11908100Y-11161472D02*
X11922386Y-11132900D01*
X11950957Y-11118614D01*
X11993814Y-11118614D01*
X12022386Y-11132900D01*
X12036671Y-11161472D01*
X12036671Y-11318614D01*
X12179528Y-11318614D02*
X12179528Y-11118614D01*
X12179528Y-11147186D02*
X12193814Y-11132900D01*
X12222386Y-11118614D01*
X12265243Y-11118614D01*
X12293814Y-11132900D01*
X12308100Y-11161472D01*
X12308100Y-11318614D01*
X12308100Y-11161472D02*
X12322386Y-11132900D01*
X12350957Y-11118614D01*
X12393814Y-11118614D01*
X12422386Y-11132900D01*
X12436671Y-11161472D01*
X12436671Y-11318614D01*
X13022386Y-11004329D02*
X12765243Y-11390043D01*
X13408100Y-11018614D02*
X13436671Y-11018614D01*
X13465243Y-11032900D01*
X13479528Y-11047186D01*
X13493814Y-11075757D01*
X13508100Y-11132900D01*
X13508100Y-11204329D01*
X13493814Y-11261471D01*
X13479528Y-11290043D01*
X13465243Y-11304329D01*
X13436671Y-11318614D01*
X13408100Y-11318614D01*
X13379528Y-11304329D01*
X13365243Y-11290043D01*
X13350957Y-11261471D01*
X13336671Y-11204329D01*
X13336671Y-11132900D01*
X13350957Y-11075757D01*
X13365243Y-11047186D01*
X13379528Y-11032900D01*
X13408100Y-11018614D01*
X13636671Y-11290043D02*
X13650957Y-11304329D01*
X13636671Y-11318614D01*
X13622386Y-11304329D01*
X13636671Y-11290043D01*
X13636671Y-11318614D01*
X13836671Y-11018614D02*
X13865243Y-11018614D01*
X13893814Y-11032900D01*
X13908100Y-11047186D01*
X13922385Y-11075757D01*
X13936671Y-11132900D01*
X13936671Y-11204329D01*
X13922385Y-11261471D01*
X13908100Y-11290043D01*
X13893814Y-11304329D01*
X13865243Y-11318614D01*
X13836671Y-11318614D01*
X13808100Y-11304329D01*
X13793814Y-11290043D01*
X13779528Y-11261471D01*
X13765243Y-11204329D01*
X13765243Y-11132900D01*
X13779528Y-11075757D01*
X13793814Y-11047186D01*
X13808100Y-11032900D01*
X13836671Y-11018614D01*
X14036671Y-11018614D02*
X14222385Y-11018614D01*
X14122385Y-11132900D01*
X14165243Y-11132900D01*
X14193814Y-11147186D01*
X14208100Y-11161472D01*
X14222385Y-11190043D01*
X14222385Y-11261471D01*
X14208100Y-11290043D01*
X14193814Y-11304329D01*
X14165243Y-11318614D01*
X14079528Y-11318614D01*
X14050957Y-11304329D01*
X14036671Y-11290043D01*
X14365243Y-11318614D02*
X14422385Y-11318614D01*
X14450957Y-11304329D01*
X14465243Y-11290043D01*
X14493814Y-11247186D01*
X14508100Y-11190043D01*
X14508100Y-11075757D01*
X14493814Y-11047186D01*
X14479528Y-11032900D01*
X14450957Y-11018614D01*
X14393814Y-11018614D01*
X14365243Y-11032900D01*
X14350957Y-11047186D01*
X14336671Y-11075757D01*
X14336671Y-11147186D01*
X14350957Y-11175757D01*
X14365243Y-11190043D01*
X14393814Y-11204329D01*
X14450957Y-11204329D01*
X14479528Y-11190043D01*
X14493814Y-11175757D01*
X14508100Y-11147186D01*
X14622386Y-11018614D02*
X14622386Y-11075757D01*
X14736671Y-11018614D02*
X14736671Y-11075757D01*
X15179528Y-11432900D02*
X15165243Y-11418614D01*
X15136671Y-11375757D01*
X15122385Y-11347186D01*
X15108100Y-11304329D01*
X15093814Y-11232900D01*
X15093814Y-11175757D01*
X15108100Y-11104329D01*
X15122385Y-11061472D01*
X15136671Y-11032900D01*
X15165243Y-10990043D01*
X15179528Y-10975757D01*
X15450957Y-11318614D02*
X15279528Y-11318614D01*
X15365243Y-11318614D02*
X15365243Y-11018614D01*
X15336671Y-11061472D01*
X15308100Y-11090043D01*
X15279528Y-11104329D01*
X15565243Y-11047186D02*
X15579528Y-11032900D01*
X15608100Y-11018614D01*
X15679528Y-11018614D01*
X15708100Y-11032900D01*
X15722385Y-11047186D01*
X15736671Y-11075757D01*
X15736671Y-11104329D01*
X15722385Y-11147186D01*
X15550957Y-11318614D01*
X15736671Y-11318614D01*
X16093814Y-11318614D02*
X16093814Y-11018614D01*
X16222385Y-11318614D02*
X16222385Y-11161472D01*
X16208100Y-11132900D01*
X16179528Y-11118614D01*
X16136671Y-11118614D01*
X16108100Y-11132900D01*
X16093814Y-11147186D01*
X16408100Y-11318614D02*
X16379528Y-11304329D01*
X16365243Y-11290043D01*
X16350957Y-11261471D01*
X16350957Y-11175757D01*
X16365243Y-11147186D01*
X16379528Y-11132900D01*
X16408100Y-11118614D01*
X16450957Y-11118614D01*
X16479528Y-11132900D01*
X16493814Y-11147186D01*
X16508100Y-11175757D01*
X16508100Y-11261471D01*
X16493814Y-11290043D01*
X16479528Y-11304329D01*
X16450957Y-11318614D01*
X16408100Y-11318614D01*
X16679528Y-11318614D02*
X16650957Y-11304329D01*
X16636671Y-11275757D01*
X16636671Y-11018614D01*
X16908100Y-11304329D02*
X16879529Y-11318614D01*
X16822386Y-11318614D01*
X16793814Y-11304329D01*
X16779529Y-11275757D01*
X16779529Y-11161472D01*
X16793814Y-11132900D01*
X16822386Y-11118614D01*
X16879529Y-11118614D01*
X16908100Y-11132900D01*
X16922386Y-11161472D01*
X16922386Y-11190043D01*
X16779529Y-11218614D01*
X17036671Y-11304329D02*
X17065243Y-11318614D01*
X17122386Y-11318614D01*
X17150957Y-11304329D01*
X17165243Y-11275757D01*
X17165243Y-11261471D01*
X17150957Y-11232900D01*
X17122386Y-11218614D01*
X17079529Y-11218614D01*
X17050957Y-11204329D01*
X17036671Y-11175757D01*
X17036671Y-11161472D01*
X17050957Y-11132900D01*
X17079529Y-11118614D01*
X17122386Y-11118614D01*
X17150957Y-11132900D01*
X17265243Y-11432900D02*
X17279529Y-11418614D01*
X17308100Y-11375757D01*
X17322386Y-11347186D01*
X17336671Y-11304329D01*
X17350957Y-11232900D01*
X17350957Y-11175757D01*
X17336671Y-11104329D01*
X17322386Y-11061472D01*
X17308100Y-11032900D01*
X17279529Y-10990043D01*
X17265243Y-10975757D01*
X10491361Y-11619312D02*
X10491361Y-11538489D01*
X10410538Y-11538489D01*
X10410538Y-11619312D01*
X10491361Y-11619312D01*
X10936671Y-11714614D02*
X10765243Y-11714614D01*
X10850957Y-11714614D02*
X10850957Y-11414614D01*
X10822386Y-11457471D01*
X10793814Y-11486043D01*
X10765243Y-11500329D01*
X11065243Y-11686043D02*
X11079529Y-11700329D01*
X11065243Y-11714614D01*
X11050957Y-11700329D01*
X11065243Y-11686043D01*
X11065243Y-11714614D01*
X11365243Y-11714614D02*
X11193814Y-11714614D01*
X11279528Y-11714614D02*
X11279528Y-11414614D01*
X11250957Y-11457471D01*
X11222386Y-11486043D01*
X11193814Y-11500329D01*
X11622386Y-11514614D02*
X11622386Y-11714614D01*
X11550957Y-11400329D02*
X11479528Y-11614614D01*
X11665243Y-11614614D01*
X11779528Y-11714614D02*
X11779528Y-11514614D01*
X11779528Y-11543186D02*
X11793814Y-11528900D01*
X11822386Y-11514614D01*
X11865243Y-11514614D01*
X11893814Y-11528900D01*
X11908100Y-11557471D01*
X11908100Y-11714614D01*
X11908100Y-11557471D02*
X11922386Y-11528900D01*
X11950957Y-11514614D01*
X11993814Y-11514614D01*
X12022386Y-11528900D01*
X12036671Y-11557471D01*
X12036671Y-11714614D01*
X12179528Y-11714614D02*
X12179528Y-11514614D01*
X12179528Y-11543186D02*
X12193814Y-11528900D01*
X12222386Y-11514614D01*
X12265243Y-11514614D01*
X12293814Y-11528900D01*
X12308100Y-11557471D01*
X12308100Y-11714614D01*
X12308100Y-11557471D02*
X12322386Y-11528900D01*
X12350957Y-11514614D01*
X12393814Y-11514614D01*
X12422386Y-11528900D01*
X12436671Y-11557471D01*
X12436671Y-11714614D01*
X13022386Y-11400329D02*
X12765243Y-11786043D01*
X13408100Y-11414614D02*
X13436671Y-11414614D01*
X13465243Y-11428900D01*
X13479528Y-11443186D01*
X13493814Y-11471757D01*
X13508100Y-11528900D01*
X13508100Y-11600329D01*
X13493814Y-11657471D01*
X13479528Y-11686043D01*
X13465243Y-11700329D01*
X13436671Y-11714614D01*
X13408100Y-11714614D01*
X13379528Y-11700329D01*
X13365243Y-11686043D01*
X13350957Y-11657471D01*
X13336671Y-11600329D01*
X13336671Y-11528900D01*
X13350957Y-11471757D01*
X13365243Y-11443186D01*
X13379528Y-11428900D01*
X13408100Y-11414614D01*
X13636671Y-11686043D02*
X13650957Y-11700329D01*
X13636671Y-11714614D01*
X13622386Y-11700329D01*
X13636671Y-11686043D01*
X13636671Y-11714614D01*
X13836671Y-11414614D02*
X13865243Y-11414614D01*
X13893814Y-11428900D01*
X13908100Y-11443186D01*
X13922385Y-11471757D01*
X13936671Y-11528900D01*
X13936671Y-11600329D01*
X13922385Y-11657471D01*
X13908100Y-11686043D01*
X13893814Y-11700329D01*
X13865243Y-11714614D01*
X13836671Y-11714614D01*
X13808100Y-11700329D01*
X13793814Y-11686043D01*
X13779528Y-11657471D01*
X13765243Y-11600329D01*
X13765243Y-11528900D01*
X13779528Y-11471757D01*
X13793814Y-11443186D01*
X13808100Y-11428900D01*
X13836671Y-11414614D01*
X14193814Y-11514614D02*
X14193814Y-11714614D01*
X14122385Y-11400329D02*
X14050957Y-11614614D01*
X14236671Y-11614614D01*
X14493814Y-11414614D02*
X14350957Y-11414614D01*
X14336671Y-11557471D01*
X14350957Y-11543186D01*
X14379528Y-11528900D01*
X14450957Y-11528900D01*
X14479528Y-11543186D01*
X14493814Y-11557471D01*
X14508100Y-11586043D01*
X14508100Y-11657471D01*
X14493814Y-11686043D01*
X14479528Y-11700329D01*
X14450957Y-11714614D01*
X14379528Y-11714614D01*
X14350957Y-11700329D01*
X14336671Y-11686043D01*
X14622386Y-11414614D02*
X14622386Y-11471757D01*
X14736671Y-11414614D02*
X14736671Y-11471757D01*
X15179528Y-11828900D02*
X15165243Y-11814614D01*
X15136671Y-11771757D01*
X15122385Y-11743186D01*
X15108100Y-11700329D01*
X15093814Y-11628900D01*
X15093814Y-11571757D01*
X15108100Y-11500329D01*
X15122385Y-11457471D01*
X15136671Y-11428900D01*
X15165243Y-11386043D01*
X15179528Y-11371757D01*
X15450957Y-11714614D02*
X15279528Y-11714614D01*
X15365243Y-11714614D02*
X15365243Y-11414614D01*
X15336671Y-11457471D01*
X15308100Y-11486043D01*
X15279528Y-11500329D01*
X15565243Y-11443186D02*
X15579528Y-11428900D01*
X15608100Y-11414614D01*
X15679528Y-11414614D01*
X15708100Y-11428900D01*
X15722385Y-11443186D01*
X15736671Y-11471757D01*
X15736671Y-11500329D01*
X15722385Y-11543186D01*
X15550957Y-11714614D01*
X15736671Y-11714614D01*
X16093814Y-11714614D02*
X16093814Y-11414614D01*
X16222385Y-11714614D02*
X16222385Y-11557471D01*
X16208100Y-11528900D01*
X16179528Y-11514614D01*
X16136671Y-11514614D01*
X16108100Y-11528900D01*
X16093814Y-11543186D01*
X16408100Y-11714614D02*
X16379528Y-11700329D01*
X16365243Y-11686043D01*
X16350957Y-11657471D01*
X16350957Y-11571757D01*
X16365243Y-11543186D01*
X16379528Y-11528900D01*
X16408100Y-11514614D01*
X16450957Y-11514614D01*
X16479528Y-11528900D01*
X16493814Y-11543186D01*
X16508100Y-11571757D01*
X16508100Y-11657471D01*
X16493814Y-11686043D01*
X16479528Y-11700329D01*
X16450957Y-11714614D01*
X16408100Y-11714614D01*
X16679528Y-11714614D02*
X16650957Y-11700329D01*
X16636671Y-11671757D01*
X16636671Y-11414614D01*
X16908100Y-11700329D02*
X16879529Y-11714614D01*
X16822386Y-11714614D01*
X16793814Y-11700329D01*
X16779529Y-11671757D01*
X16779529Y-11557471D01*
X16793814Y-11528900D01*
X16822386Y-11514614D01*
X16879529Y-11514614D01*
X16908100Y-11528900D01*
X16922386Y-11557471D01*
X16922386Y-11586043D01*
X16779529Y-11614614D01*
X17036671Y-11700329D02*
X17065243Y-11714614D01*
X17122386Y-11714614D01*
X17150957Y-11700329D01*
X17165243Y-11671757D01*
X17165243Y-11657471D01*
X17150957Y-11628900D01*
X17122386Y-11614614D01*
X17079529Y-11614614D01*
X17050957Y-11600329D01*
X17036671Y-11571757D01*
X17036671Y-11557471D01*
X17050957Y-11528900D01*
X17079529Y-11514614D01*
X17122386Y-11514614D01*
X17150957Y-11528900D01*
X17265243Y-11828900D02*
X17279529Y-11814614D01*
X17308100Y-11771757D01*
X17322386Y-11743186D01*
X17336671Y-11700329D01*
X17350957Y-11628900D01*
X17350957Y-11571757D01*
X17336671Y-11500329D01*
X17322386Y-11457471D01*
X17308100Y-11428900D01*
X17279529Y-11386043D01*
X17265243Y-11371757D01*
X10444600Y-12038400D02*
X10508100Y-11974900D01*
X10444600Y-11911400D01*
X10381100Y-11974900D01*
X10444600Y-12038400D01*
X10936671Y-12110614D02*
X10765243Y-12110614D01*
X10850957Y-12110614D02*
X10850957Y-11810614D01*
X10822386Y-11853471D01*
X10793814Y-11882043D01*
X10765243Y-11896329D01*
X11065243Y-12082043D02*
X11079529Y-12096329D01*
X11065243Y-12110614D01*
X11050957Y-12096329D01*
X11065243Y-12082043D01*
X11065243Y-12110614D01*
X11193814Y-11839186D02*
X11208100Y-11824900D01*
X11236671Y-11810614D01*
X11308100Y-11810614D01*
X11336671Y-11824900D01*
X11350957Y-11839186D01*
X11365243Y-11867757D01*
X11365243Y-11896329D01*
X11350957Y-11939186D01*
X11179528Y-12110614D01*
X11365243Y-12110614D01*
X11465243Y-11810614D02*
X11665243Y-11810614D01*
X11536671Y-12110614D01*
X11779528Y-12110614D02*
X11779528Y-11910614D01*
X11779528Y-11939186D02*
X11793814Y-11924900D01*
X11822386Y-11910614D01*
X11865243Y-11910614D01*
X11893814Y-11924900D01*
X11908100Y-11953471D01*
X11908100Y-12110614D01*
X11908100Y-11953471D02*
X11922386Y-11924900D01*
X11950957Y-11910614D01*
X11993814Y-11910614D01*
X12022386Y-11924900D01*
X12036671Y-11953471D01*
X12036671Y-12110614D01*
X12179528Y-12110614D02*
X12179528Y-11910614D01*
X12179528Y-11939186D02*
X12193814Y-11924900D01*
X12222386Y-11910614D01*
X12265243Y-11910614D01*
X12293814Y-11924900D01*
X12308100Y-11953471D01*
X12308100Y-12110614D01*
X12308100Y-11953471D02*
X12322386Y-11924900D01*
X12350957Y-11910614D01*
X12393814Y-11910614D01*
X12422386Y-11924900D01*
X12436671Y-11953471D01*
X12436671Y-12110614D01*
X13022386Y-11796329D02*
X12765243Y-12182043D01*
X13408100Y-11810614D02*
X13436671Y-11810614D01*
X13465243Y-11824900D01*
X13479528Y-11839186D01*
X13493814Y-11867757D01*
X13508100Y-11924900D01*
X13508100Y-11996329D01*
X13493814Y-12053471D01*
X13479528Y-12082043D01*
X13465243Y-12096329D01*
X13436671Y-12110614D01*
X13408100Y-12110614D01*
X13379528Y-12096329D01*
X13365243Y-12082043D01*
X13350957Y-12053471D01*
X13336671Y-11996329D01*
X13336671Y-11924900D01*
X13350957Y-11867757D01*
X13365243Y-11839186D01*
X13379528Y-11824900D01*
X13408100Y-11810614D01*
X13636671Y-12082043D02*
X13650957Y-12096329D01*
X13636671Y-12110614D01*
X13622386Y-12096329D01*
X13636671Y-12082043D01*
X13636671Y-12110614D01*
X13836671Y-11810614D02*
X13865243Y-11810614D01*
X13893814Y-11824900D01*
X13908100Y-11839186D01*
X13922385Y-11867757D01*
X13936671Y-11924900D01*
X13936671Y-11996329D01*
X13922385Y-12053471D01*
X13908100Y-12082043D01*
X13893814Y-12096329D01*
X13865243Y-12110614D01*
X13836671Y-12110614D01*
X13808100Y-12096329D01*
X13793814Y-12082043D01*
X13779528Y-12053471D01*
X13765243Y-11996329D01*
X13765243Y-11924900D01*
X13779528Y-11867757D01*
X13793814Y-11839186D01*
X13808100Y-11824900D01*
X13836671Y-11810614D01*
X14208100Y-11810614D02*
X14065243Y-11810614D01*
X14050957Y-11953471D01*
X14065243Y-11939186D01*
X14093814Y-11924900D01*
X14165243Y-11924900D01*
X14193814Y-11939186D01*
X14208100Y-11953471D01*
X14222385Y-11982043D01*
X14222385Y-12053471D01*
X14208100Y-12082043D01*
X14193814Y-12096329D01*
X14165243Y-12110614D01*
X14093814Y-12110614D01*
X14065243Y-12096329D01*
X14050957Y-12082043D01*
X14408100Y-11810614D02*
X14436671Y-11810614D01*
X14465243Y-11824900D01*
X14479528Y-11839186D01*
X14493814Y-11867757D01*
X14508100Y-11924900D01*
X14508100Y-11996329D01*
X14493814Y-12053471D01*
X14479528Y-12082043D01*
X14465243Y-12096329D01*
X14436671Y-12110614D01*
X14408100Y-12110614D01*
X14379528Y-12096329D01*
X14365243Y-12082043D01*
X14350957Y-12053471D01*
X14336671Y-11996329D01*
X14336671Y-11924900D01*
X14350957Y-11867757D01*
X14365243Y-11839186D01*
X14379528Y-11824900D01*
X14408100Y-11810614D01*
X14622386Y-11810614D02*
X14622386Y-11867757D01*
X14736671Y-11810614D02*
X14736671Y-11867757D01*
X15179528Y-12224900D02*
X15165243Y-12210614D01*
X15136671Y-12167757D01*
X15122385Y-12139186D01*
X15108100Y-12096329D01*
X15093814Y-12024900D01*
X15093814Y-11967757D01*
X15108100Y-11896329D01*
X15122385Y-11853471D01*
X15136671Y-11824900D01*
X15165243Y-11782043D01*
X15179528Y-11767757D01*
X15422385Y-11910614D02*
X15422385Y-12110614D01*
X15350957Y-11796329D02*
X15279528Y-12010614D01*
X15465243Y-12010614D01*
X15808100Y-12110614D02*
X15808100Y-11810614D01*
X15936671Y-12110614D02*
X15936671Y-11953471D01*
X15922385Y-11924900D01*
X15893814Y-11910614D01*
X15850957Y-11910614D01*
X15822385Y-11924900D01*
X15808100Y-11939186D01*
X16122385Y-12110614D02*
X16093814Y-12096329D01*
X16079528Y-12082043D01*
X16065243Y-12053471D01*
X16065243Y-11967757D01*
X16079528Y-11939186D01*
X16093814Y-11924900D01*
X16122385Y-11910614D01*
X16165243Y-11910614D01*
X16193814Y-11924900D01*
X16208100Y-11939186D01*
X16222385Y-11967757D01*
X16222385Y-12053471D01*
X16208100Y-12082043D01*
X16193814Y-12096329D01*
X16165243Y-12110614D01*
X16122385Y-12110614D01*
X16393814Y-12110614D02*
X16365243Y-12096329D01*
X16350957Y-12067757D01*
X16350957Y-11810614D01*
X16622386Y-12096329D02*
X16593814Y-12110614D01*
X16536671Y-12110614D01*
X16508100Y-12096329D01*
X16493814Y-12067757D01*
X16493814Y-11953471D01*
X16508100Y-11924900D01*
X16536671Y-11910614D01*
X16593814Y-11910614D01*
X16622386Y-11924900D01*
X16636671Y-11953471D01*
X16636671Y-11982043D01*
X16493814Y-12010614D01*
X16750957Y-12096329D02*
X16779529Y-12110614D01*
X16836671Y-12110614D01*
X16865243Y-12096329D01*
X16879529Y-12067757D01*
X16879529Y-12053471D01*
X16865243Y-12024900D01*
X16836671Y-12010614D01*
X16793814Y-12010614D01*
X16765243Y-11996329D01*
X16750957Y-11967757D01*
X16750957Y-11953471D01*
X16765243Y-11924900D01*
X16793814Y-11910614D01*
X16836671Y-11910614D01*
X16865243Y-11924900D01*
X16979528Y-12224900D02*
X16993814Y-12210614D01*
X17022386Y-12167757D01*
X17036671Y-12139186D01*
X17050957Y-12096329D01*
X17065243Y-12024900D01*
X17065243Y-11967757D01*
X17050957Y-11896329D01*
X17036671Y-11853471D01*
X17022386Y-11824900D01*
X16993814Y-11782043D01*
X16979528Y-11767757D01*
X10358100Y-12295900D02*
X10508100Y-12445900D01*
X10508100Y-12295900D02*
X10358100Y-12445900D01*
X10508100Y-12370900D02*
G75*
G03X10508100Y-12370900I-75000J0D01*
G01*
X10936671Y-12506614D02*
X10765243Y-12506614D01*
X10850957Y-12506614D02*
X10850957Y-12206614D01*
X10822386Y-12249471D01*
X10793814Y-12278043D01*
X10765243Y-12292329D01*
X11065243Y-12478043D02*
X11079529Y-12492329D01*
X11065243Y-12506614D01*
X11050957Y-12492329D01*
X11065243Y-12478043D01*
X11065243Y-12506614D01*
X11350957Y-12206614D02*
X11208100Y-12206614D01*
X11193814Y-12349471D01*
X11208100Y-12335186D01*
X11236671Y-12320900D01*
X11308100Y-12320900D01*
X11336671Y-12335186D01*
X11350957Y-12349471D01*
X11365243Y-12378043D01*
X11365243Y-12449471D01*
X11350957Y-12478043D01*
X11336671Y-12492329D01*
X11308100Y-12506614D01*
X11236671Y-12506614D01*
X11208100Y-12492329D01*
X11193814Y-12478043D01*
X11550957Y-12206614D02*
X11579528Y-12206614D01*
X11608100Y-12220900D01*
X11622386Y-12235186D01*
X11636671Y-12263757D01*
X11650957Y-12320900D01*
X11650957Y-12392329D01*
X11636671Y-12449471D01*
X11622386Y-12478043D01*
X11608100Y-12492329D01*
X11579528Y-12506614D01*
X11550957Y-12506614D01*
X11522386Y-12492329D01*
X11508100Y-12478043D01*
X11493814Y-12449471D01*
X11479528Y-12392329D01*
X11479528Y-12320900D01*
X11493814Y-12263757D01*
X11508100Y-12235186D01*
X11522386Y-12220900D01*
X11550957Y-12206614D01*
X11779528Y-12506614D02*
X11779528Y-12306614D01*
X11779528Y-12335186D02*
X11793814Y-12320900D01*
X11822386Y-12306614D01*
X11865243Y-12306614D01*
X11893814Y-12320900D01*
X11908100Y-12349471D01*
X11908100Y-12506614D01*
X11908100Y-12349471D02*
X11922386Y-12320900D01*
X11950957Y-12306614D01*
X11993814Y-12306614D01*
X12022386Y-12320900D01*
X12036671Y-12349471D01*
X12036671Y-12506614D01*
X12179528Y-12506614D02*
X12179528Y-12306614D01*
X12179528Y-12335186D02*
X12193814Y-12320900D01*
X12222386Y-12306614D01*
X12265243Y-12306614D01*
X12293814Y-12320900D01*
X12308100Y-12349471D01*
X12308100Y-12506614D01*
X12308100Y-12349471D02*
X12322386Y-12320900D01*
X12350957Y-12306614D01*
X12393814Y-12306614D01*
X12422386Y-12320900D01*
X12436671Y-12349471D01*
X12436671Y-12506614D01*
X13022386Y-12192329D02*
X12765243Y-12578043D01*
X13408100Y-12206614D02*
X13436671Y-12206614D01*
X13465243Y-12220900D01*
X13479528Y-12235186D01*
X13493814Y-12263757D01*
X13508100Y-12320900D01*
X13508100Y-12392329D01*
X13493814Y-12449471D01*
X13479528Y-12478043D01*
X13465243Y-12492329D01*
X13436671Y-12506614D01*
X13408100Y-12506614D01*
X13379528Y-12492329D01*
X13365243Y-12478043D01*
X13350957Y-12449471D01*
X13336671Y-12392329D01*
X13336671Y-12320900D01*
X13350957Y-12263757D01*
X13365243Y-12235186D01*
X13379528Y-12220900D01*
X13408100Y-12206614D01*
X13636671Y-12478043D02*
X13650957Y-12492329D01*
X13636671Y-12506614D01*
X13622386Y-12492329D01*
X13636671Y-12478043D01*
X13636671Y-12506614D01*
X13836671Y-12206614D02*
X13865243Y-12206614D01*
X13893814Y-12220900D01*
X13908100Y-12235186D01*
X13922385Y-12263757D01*
X13936671Y-12320900D01*
X13936671Y-12392329D01*
X13922385Y-12449471D01*
X13908100Y-12478043D01*
X13893814Y-12492329D01*
X13865243Y-12506614D01*
X13836671Y-12506614D01*
X13808100Y-12492329D01*
X13793814Y-12478043D01*
X13779528Y-12449471D01*
X13765243Y-12392329D01*
X13765243Y-12320900D01*
X13779528Y-12263757D01*
X13793814Y-12235186D01*
X13808100Y-12220900D01*
X13836671Y-12206614D01*
X14208100Y-12206614D02*
X14065243Y-12206614D01*
X14050957Y-12349471D01*
X14065243Y-12335186D01*
X14093814Y-12320900D01*
X14165243Y-12320900D01*
X14193814Y-12335186D01*
X14208100Y-12349471D01*
X14222385Y-12378043D01*
X14222385Y-12449471D01*
X14208100Y-12478043D01*
X14193814Y-12492329D01*
X14165243Y-12506614D01*
X14093814Y-12506614D01*
X14065243Y-12492329D01*
X14050957Y-12478043D01*
X14365243Y-12506614D02*
X14422385Y-12506614D01*
X14450957Y-12492329D01*
X14465243Y-12478043D01*
X14493814Y-12435186D01*
X14508100Y-12378043D01*
X14508100Y-12263757D01*
X14493814Y-12235186D01*
X14479528Y-12220900D01*
X14450957Y-12206614D01*
X14393814Y-12206614D01*
X14365243Y-12220900D01*
X14350957Y-12235186D01*
X14336671Y-12263757D01*
X14336671Y-12335186D01*
X14350957Y-12363757D01*
X14365243Y-12378043D01*
X14393814Y-12392329D01*
X14450957Y-12392329D01*
X14479528Y-12378043D01*
X14493814Y-12363757D01*
X14508100Y-12335186D01*
X14622386Y-12206614D02*
X14622386Y-12263757D01*
X14736671Y-12206614D02*
X14736671Y-12263757D01*
X15179528Y-12620900D02*
X15165243Y-12606614D01*
X15136671Y-12563757D01*
X15122385Y-12535186D01*
X15108100Y-12492329D01*
X15093814Y-12420900D01*
X15093814Y-12363757D01*
X15108100Y-12292329D01*
X15122385Y-12249471D01*
X15136671Y-12220900D01*
X15165243Y-12178043D01*
X15179528Y-12163757D01*
X15450957Y-12506614D02*
X15279528Y-12506614D01*
X15365243Y-12506614D02*
X15365243Y-12206614D01*
X15336671Y-12249471D01*
X15308100Y-12278043D01*
X15279528Y-12292329D01*
X15636671Y-12206614D02*
X15665243Y-12206614D01*
X15693814Y-12220900D01*
X15708100Y-12235186D01*
X15722385Y-12263757D01*
X15736671Y-12320900D01*
X15736671Y-12392329D01*
X15722385Y-12449471D01*
X15708100Y-12478043D01*
X15693814Y-12492329D01*
X15665243Y-12506614D01*
X15636671Y-12506614D01*
X15608100Y-12492329D01*
X15593814Y-12478043D01*
X15579528Y-12449471D01*
X15565243Y-12392329D01*
X15565243Y-12320900D01*
X15579528Y-12263757D01*
X15593814Y-12235186D01*
X15608100Y-12220900D01*
X15636671Y-12206614D01*
X16093814Y-12506614D02*
X16093814Y-12206614D01*
X16222385Y-12506614D02*
X16222385Y-12349471D01*
X16208100Y-12320900D01*
X16179528Y-12306614D01*
X16136671Y-12306614D01*
X16108100Y-12320900D01*
X16093814Y-12335186D01*
X16408100Y-12506614D02*
X16379528Y-12492329D01*
X16365243Y-12478043D01*
X16350957Y-12449471D01*
X16350957Y-12363757D01*
X16365243Y-12335186D01*
X16379528Y-12320900D01*
X16408100Y-12306614D01*
X16450957Y-12306614D01*
X16479528Y-12320900D01*
X16493814Y-12335186D01*
X16508100Y-12363757D01*
X16508100Y-12449471D01*
X16493814Y-12478043D01*
X16479528Y-12492329D01*
X16450957Y-12506614D01*
X16408100Y-12506614D01*
X16679528Y-12506614D02*
X16650957Y-12492329D01*
X16636671Y-12463757D01*
X16636671Y-12206614D01*
X16908100Y-12492329D02*
X16879529Y-12506614D01*
X16822386Y-12506614D01*
X16793814Y-12492329D01*
X16779529Y-12463757D01*
X16779529Y-12349471D01*
X16793814Y-12320900D01*
X16822386Y-12306614D01*
X16879529Y-12306614D01*
X16908100Y-12320900D01*
X16922386Y-12349471D01*
X16922386Y-12378043D01*
X16779529Y-12406614D01*
X17036671Y-12492329D02*
X17065243Y-12506614D01*
X17122386Y-12506614D01*
X17150957Y-12492329D01*
X17165243Y-12463757D01*
X17165243Y-12449471D01*
X17150957Y-12420900D01*
X17122386Y-12406614D01*
X17079529Y-12406614D01*
X17050957Y-12392329D01*
X17036671Y-12363757D01*
X17036671Y-12349471D01*
X17050957Y-12320900D01*
X17079529Y-12306614D01*
X17122386Y-12306614D01*
X17150957Y-12320900D01*
X17265243Y-12620900D02*
X17279529Y-12606614D01*
X17308100Y-12563757D01*
X17322386Y-12535186D01*
X17336671Y-12492329D01*
X17350957Y-12420900D01*
X17350957Y-12363757D01*
X17336671Y-12292329D01*
X17322386Y-12249471D01*
X17308100Y-12220900D01*
X17279529Y-12178043D01*
X17265243Y-12163757D01*
M02*
