G04 #@! TF.FileFunction,Legend,Top*
%FSLAX46Y46*%
G04 Gerber Fmt 4.6, Leading zero omitted, Abs format (unit mm)*
G04 Created by KiCad (PCBNEW 4.0.1-stable) date 2016-05-02 8:22:51 PM*
%MOMM*%
G01*
G04 APERTURE LIST*
%ADD10C,0.100000*%
%ADD11C,0.150000*%
%ADD12C,0.300000*%
G04 APERTURE END LIST*
D10*
D11*
X202184000Y-92710000D02*
X202184000Y-93472000D01*
X202184000Y-94234000D02*
X202184000Y-92710000D01*
X105156000Y-94234000D02*
X202184000Y-94234000D01*
X202184000Y-68072000D02*
X202184000Y-92964000D01*
X191008000Y-56896000D02*
X202184000Y-68072000D01*
X187706000Y-56896000D02*
X191008000Y-56896000D01*
X185420000Y-56896000D02*
X187706000Y-56896000D01*
X114808000Y-56896000D02*
X185420000Y-56896000D01*
X113792000Y-57912000D02*
X114808000Y-56896000D01*
X113284000Y-58420000D02*
X113792000Y-57912000D01*
X112014000Y-59690000D02*
X113284000Y-58420000D01*
X105156000Y-66548000D02*
X112014000Y-59690000D01*
X105156000Y-94234000D02*
X105156000Y-66548000D01*
D12*
X146452858Y-59351143D02*
X146667144Y-59422571D01*
X147024287Y-59422571D01*
X147167144Y-59351143D01*
X147238573Y-59279714D01*
X147310001Y-59136857D01*
X147310001Y-58994000D01*
X147238573Y-58851143D01*
X147167144Y-58779714D01*
X147024287Y-58708286D01*
X146738573Y-58636857D01*
X146595715Y-58565429D01*
X146524287Y-58494000D01*
X146452858Y-58351143D01*
X146452858Y-58208286D01*
X146524287Y-58065429D01*
X146595715Y-57994000D01*
X146738573Y-57922571D01*
X147095715Y-57922571D01*
X147310001Y-57994000D01*
X147738572Y-58422571D02*
X148310001Y-58422571D01*
X147952858Y-57922571D02*
X147952858Y-59208286D01*
X148024286Y-59351143D01*
X148167144Y-59422571D01*
X148310001Y-59422571D01*
X149381429Y-59351143D02*
X149238572Y-59422571D01*
X148952858Y-59422571D01*
X148810001Y-59351143D01*
X148738572Y-59208286D01*
X148738572Y-58636857D01*
X148810001Y-58494000D01*
X148952858Y-58422571D01*
X149238572Y-58422571D01*
X149381429Y-58494000D01*
X149452858Y-58636857D01*
X149452858Y-58779714D01*
X148738572Y-58922571D01*
X150095715Y-58422571D02*
X150095715Y-59922571D01*
X150095715Y-58494000D02*
X150238572Y-58422571D01*
X150524286Y-58422571D01*
X150667143Y-58494000D01*
X150738572Y-58565429D01*
X150810001Y-58708286D01*
X150810001Y-59136857D01*
X150738572Y-59279714D01*
X150667143Y-59351143D01*
X150524286Y-59422571D01*
X150238572Y-59422571D01*
X150095715Y-59351143D01*
X151452858Y-58422571D02*
X151452858Y-59922571D01*
X151452858Y-58494000D02*
X151595715Y-58422571D01*
X151881429Y-58422571D01*
X152024286Y-58494000D01*
X152095715Y-58565429D01*
X152167144Y-58708286D01*
X152167144Y-59136857D01*
X152095715Y-59279714D01*
X152024286Y-59351143D01*
X151881429Y-59422571D01*
X151595715Y-59422571D01*
X151452858Y-59351143D01*
X153381429Y-59351143D02*
X153238572Y-59422571D01*
X152952858Y-59422571D01*
X152810001Y-59351143D01*
X152738572Y-59208286D01*
X152738572Y-58636857D01*
X152810001Y-58494000D01*
X152952858Y-58422571D01*
X153238572Y-58422571D01*
X153381429Y-58494000D01*
X153452858Y-58636857D01*
X153452858Y-58779714D01*
X152738572Y-58922571D01*
X154095715Y-59422571D02*
X154095715Y-58422571D01*
X154095715Y-58708286D02*
X154167143Y-58565429D01*
X154238572Y-58494000D01*
X154381429Y-58422571D01*
X154524286Y-58422571D01*
X156167143Y-59422571D02*
X156167143Y-57922571D01*
X156667143Y-58994000D01*
X157167143Y-57922571D01*
X157167143Y-59422571D01*
X158095715Y-59422571D02*
X157952857Y-59351143D01*
X157881429Y-59279714D01*
X157810000Y-59136857D01*
X157810000Y-58708286D01*
X157881429Y-58565429D01*
X157952857Y-58494000D01*
X158095715Y-58422571D01*
X158310000Y-58422571D01*
X158452857Y-58494000D01*
X158524286Y-58565429D01*
X158595715Y-58708286D01*
X158595715Y-59136857D01*
X158524286Y-59279714D01*
X158452857Y-59351143D01*
X158310000Y-59422571D01*
X158095715Y-59422571D01*
X159024286Y-58422571D02*
X159595715Y-58422571D01*
X159238572Y-57922571D02*
X159238572Y-59208286D01*
X159310000Y-59351143D01*
X159452858Y-59422571D01*
X159595715Y-59422571D01*
X160310001Y-59422571D02*
X160167143Y-59351143D01*
X160095715Y-59279714D01*
X160024286Y-59136857D01*
X160024286Y-58708286D01*
X160095715Y-58565429D01*
X160167143Y-58494000D01*
X160310001Y-58422571D01*
X160524286Y-58422571D01*
X160667143Y-58494000D01*
X160738572Y-58565429D01*
X160810001Y-58708286D01*
X160810001Y-59136857D01*
X160738572Y-59279714D01*
X160667143Y-59351143D01*
X160524286Y-59422571D01*
X160310001Y-59422571D01*
X161452858Y-59422571D02*
X161452858Y-58422571D01*
X161452858Y-58708286D02*
X161524286Y-58565429D01*
X161595715Y-58494000D01*
X161738572Y-58422571D01*
X161881429Y-58422571D01*
X164381429Y-59279714D02*
X164310000Y-59351143D01*
X164095714Y-59422571D01*
X163952857Y-59422571D01*
X163738572Y-59351143D01*
X163595714Y-59208286D01*
X163524286Y-59065429D01*
X163452857Y-58779714D01*
X163452857Y-58565429D01*
X163524286Y-58279714D01*
X163595714Y-58136857D01*
X163738572Y-57994000D01*
X163952857Y-57922571D01*
X164095714Y-57922571D01*
X164310000Y-57994000D01*
X164381429Y-58065429D01*
X165238572Y-59422571D02*
X165095714Y-59351143D01*
X165024286Y-59279714D01*
X164952857Y-59136857D01*
X164952857Y-58708286D01*
X165024286Y-58565429D01*
X165095714Y-58494000D01*
X165238572Y-58422571D01*
X165452857Y-58422571D01*
X165595714Y-58494000D01*
X165667143Y-58565429D01*
X165738572Y-58708286D01*
X165738572Y-59136857D01*
X165667143Y-59279714D01*
X165595714Y-59351143D01*
X165452857Y-59422571D01*
X165238572Y-59422571D01*
X166381429Y-58422571D02*
X166381429Y-59422571D01*
X166381429Y-58565429D02*
X166452857Y-58494000D01*
X166595715Y-58422571D01*
X166810000Y-58422571D01*
X166952857Y-58494000D01*
X167024286Y-58636857D01*
X167024286Y-59422571D01*
X167524286Y-58422571D02*
X168095715Y-58422571D01*
X167738572Y-57922571D02*
X167738572Y-59208286D01*
X167810000Y-59351143D01*
X167952858Y-59422571D01*
X168095715Y-59422571D01*
X168595715Y-59422571D02*
X168595715Y-58422571D01*
X168595715Y-58708286D02*
X168667143Y-58565429D01*
X168738572Y-58494000D01*
X168881429Y-58422571D01*
X169024286Y-58422571D01*
X169738572Y-59422571D02*
X169595714Y-59351143D01*
X169524286Y-59279714D01*
X169452857Y-59136857D01*
X169452857Y-58708286D01*
X169524286Y-58565429D01*
X169595714Y-58494000D01*
X169738572Y-58422571D01*
X169952857Y-58422571D01*
X170095714Y-58494000D01*
X170167143Y-58565429D01*
X170238572Y-58708286D01*
X170238572Y-59136857D01*
X170167143Y-59279714D01*
X170095714Y-59351143D01*
X169952857Y-59422571D01*
X169738572Y-59422571D01*
X171095715Y-59422571D02*
X170952857Y-59351143D01*
X170881429Y-59208286D01*
X170881429Y-57922571D01*
X173310000Y-58636857D02*
X173524286Y-58708286D01*
X173595714Y-58779714D01*
X173667143Y-58922571D01*
X173667143Y-59136857D01*
X173595714Y-59279714D01*
X173524286Y-59351143D01*
X173381428Y-59422571D01*
X172810000Y-59422571D01*
X172810000Y-57922571D01*
X173310000Y-57922571D01*
X173452857Y-57994000D01*
X173524286Y-58065429D01*
X173595714Y-58208286D01*
X173595714Y-58351143D01*
X173524286Y-58494000D01*
X173452857Y-58565429D01*
X173310000Y-58636857D01*
X172810000Y-58636857D01*
X174524286Y-59422571D02*
X174381428Y-59351143D01*
X174310000Y-59279714D01*
X174238571Y-59136857D01*
X174238571Y-58708286D01*
X174310000Y-58565429D01*
X174381428Y-58494000D01*
X174524286Y-58422571D01*
X174738571Y-58422571D01*
X174881428Y-58494000D01*
X174952857Y-58565429D01*
X175024286Y-58708286D01*
X175024286Y-59136857D01*
X174952857Y-59279714D01*
X174881428Y-59351143D01*
X174738571Y-59422571D01*
X174524286Y-59422571D01*
X176310000Y-59422571D02*
X176310000Y-58636857D01*
X176238571Y-58494000D01*
X176095714Y-58422571D01*
X175810000Y-58422571D01*
X175667143Y-58494000D01*
X176310000Y-59351143D02*
X176167143Y-59422571D01*
X175810000Y-59422571D01*
X175667143Y-59351143D01*
X175595714Y-59208286D01*
X175595714Y-59065429D01*
X175667143Y-58922571D01*
X175810000Y-58851143D01*
X176167143Y-58851143D01*
X176310000Y-58779714D01*
X177024286Y-59422571D02*
X177024286Y-58422571D01*
X177024286Y-58708286D02*
X177095714Y-58565429D01*
X177167143Y-58494000D01*
X177310000Y-58422571D01*
X177452857Y-58422571D01*
X178595714Y-59422571D02*
X178595714Y-57922571D01*
X178595714Y-59351143D02*
X178452857Y-59422571D01*
X178167143Y-59422571D01*
X178024285Y-59351143D01*
X177952857Y-59279714D01*
X177881428Y-59136857D01*
X177881428Y-58708286D01*
X177952857Y-58565429D01*
X178024285Y-58494000D01*
X178167143Y-58422571D01*
X178452857Y-58422571D01*
X178595714Y-58494000D01*
X146988572Y-61822571D02*
X146988572Y-60322571D01*
X147345715Y-60322571D01*
X147560000Y-60394000D01*
X147702858Y-60536857D01*
X147774286Y-60679714D01*
X147845715Y-60965429D01*
X147845715Y-61179714D01*
X147774286Y-61465429D01*
X147702858Y-61608286D01*
X147560000Y-61751143D01*
X147345715Y-61822571D01*
X146988572Y-61822571D01*
X149060000Y-61751143D02*
X148917143Y-61822571D01*
X148631429Y-61822571D01*
X148488572Y-61751143D01*
X148417143Y-61608286D01*
X148417143Y-61036857D01*
X148488572Y-60894000D01*
X148631429Y-60822571D01*
X148917143Y-60822571D01*
X149060000Y-60894000D01*
X149131429Y-61036857D01*
X149131429Y-61179714D01*
X148417143Y-61322571D01*
X149702857Y-61751143D02*
X149845714Y-61822571D01*
X150131429Y-61822571D01*
X150274286Y-61751143D01*
X150345714Y-61608286D01*
X150345714Y-61536857D01*
X150274286Y-61394000D01*
X150131429Y-61322571D01*
X149917143Y-61322571D01*
X149774286Y-61251143D01*
X149702857Y-61108286D01*
X149702857Y-61036857D01*
X149774286Y-60894000D01*
X149917143Y-60822571D01*
X150131429Y-60822571D01*
X150274286Y-60894000D01*
X150988572Y-61822571D02*
X150988572Y-60822571D01*
X150988572Y-60322571D02*
X150917143Y-60394000D01*
X150988572Y-60465429D01*
X151060000Y-60394000D01*
X150988572Y-60322571D01*
X150988572Y-60465429D01*
X152345715Y-60822571D02*
X152345715Y-62036857D01*
X152274286Y-62179714D01*
X152202858Y-62251143D01*
X152060001Y-62322571D01*
X151845715Y-62322571D01*
X151702858Y-62251143D01*
X152345715Y-61751143D02*
X152202858Y-61822571D01*
X151917144Y-61822571D01*
X151774286Y-61751143D01*
X151702858Y-61679714D01*
X151631429Y-61536857D01*
X151631429Y-61108286D01*
X151702858Y-60965429D01*
X151774286Y-60894000D01*
X151917144Y-60822571D01*
X152202858Y-60822571D01*
X152345715Y-60894000D01*
X153060001Y-60822571D02*
X153060001Y-61822571D01*
X153060001Y-60965429D02*
X153131429Y-60894000D01*
X153274287Y-60822571D01*
X153488572Y-60822571D01*
X153631429Y-60894000D01*
X153702858Y-61036857D01*
X153702858Y-61822571D01*
X154988572Y-61751143D02*
X154845715Y-61822571D01*
X154560001Y-61822571D01*
X154417144Y-61751143D01*
X154345715Y-61608286D01*
X154345715Y-61036857D01*
X154417144Y-60894000D01*
X154560001Y-60822571D01*
X154845715Y-60822571D01*
X154988572Y-60894000D01*
X155060001Y-61036857D01*
X155060001Y-61179714D01*
X154345715Y-61322571D01*
X156345715Y-61822571D02*
X156345715Y-60322571D01*
X156345715Y-61751143D02*
X156202858Y-61822571D01*
X155917144Y-61822571D01*
X155774286Y-61751143D01*
X155702858Y-61679714D01*
X155631429Y-61536857D01*
X155631429Y-61108286D01*
X155702858Y-60965429D01*
X155774286Y-60894000D01*
X155917144Y-60822571D01*
X156202858Y-60822571D01*
X156345715Y-60894000D01*
X158202858Y-61822571D02*
X158202858Y-60322571D01*
X158202858Y-60894000D02*
X158345715Y-60822571D01*
X158631429Y-60822571D01*
X158774286Y-60894000D01*
X158845715Y-60965429D01*
X158917144Y-61108286D01*
X158917144Y-61536857D01*
X158845715Y-61679714D01*
X158774286Y-61751143D01*
X158631429Y-61822571D01*
X158345715Y-61822571D01*
X158202858Y-61751143D01*
X159417144Y-60822571D02*
X159774287Y-61822571D01*
X160131429Y-60822571D02*
X159774287Y-61822571D01*
X159631429Y-62179714D01*
X159560001Y-62251143D01*
X159417144Y-62322571D01*
X161774286Y-61394000D02*
X162488572Y-61394000D01*
X161631429Y-61822571D02*
X162131429Y-60322571D01*
X162631429Y-61822571D01*
X163345715Y-61822571D02*
X163202857Y-61751143D01*
X163131429Y-61608286D01*
X163131429Y-60322571D01*
X164488571Y-61751143D02*
X164345714Y-61822571D01*
X164060000Y-61822571D01*
X163917143Y-61751143D01*
X163845714Y-61608286D01*
X163845714Y-61036857D01*
X163917143Y-60894000D01*
X164060000Y-60822571D01*
X164345714Y-60822571D01*
X164488571Y-60894000D01*
X164560000Y-61036857D01*
X164560000Y-61179714D01*
X163845714Y-61322571D01*
X165060000Y-61822571D02*
X165845714Y-60822571D01*
X165060000Y-60822571D02*
X165845714Y-61822571D01*
X167060000Y-61822571D02*
X167060000Y-61036857D01*
X166988571Y-60894000D01*
X166845714Y-60822571D01*
X166560000Y-60822571D01*
X166417143Y-60894000D01*
X167060000Y-61751143D02*
X166917143Y-61822571D01*
X166560000Y-61822571D01*
X166417143Y-61751143D01*
X166345714Y-61608286D01*
X166345714Y-61465429D01*
X166417143Y-61322571D01*
X166560000Y-61251143D01*
X166917143Y-61251143D01*
X167060000Y-61179714D01*
X167774286Y-60822571D02*
X167774286Y-61822571D01*
X167774286Y-60965429D02*
X167845714Y-60894000D01*
X167988572Y-60822571D01*
X168202857Y-60822571D01*
X168345714Y-60894000D01*
X168417143Y-61036857D01*
X168417143Y-61822571D01*
X169774286Y-61822571D02*
X169774286Y-60322571D01*
X169774286Y-61751143D02*
X169631429Y-61822571D01*
X169345715Y-61822571D01*
X169202857Y-61751143D01*
X169131429Y-61679714D01*
X169060000Y-61536857D01*
X169060000Y-61108286D01*
X169131429Y-60965429D01*
X169202857Y-60894000D01*
X169345715Y-60822571D01*
X169631429Y-60822571D01*
X169774286Y-60894000D01*
X171060000Y-61751143D02*
X170917143Y-61822571D01*
X170631429Y-61822571D01*
X170488572Y-61751143D01*
X170417143Y-61608286D01*
X170417143Y-61036857D01*
X170488572Y-60894000D01*
X170631429Y-60822571D01*
X170917143Y-60822571D01*
X171060000Y-60894000D01*
X171131429Y-61036857D01*
X171131429Y-61179714D01*
X170417143Y-61322571D01*
X171774286Y-61822571D02*
X171774286Y-60822571D01*
X171774286Y-61108286D02*
X171845714Y-60965429D01*
X171917143Y-60894000D01*
X172060000Y-60822571D01*
X172202857Y-60822571D01*
X174702857Y-61679714D02*
X174631428Y-61751143D01*
X174417142Y-61822571D01*
X174274285Y-61822571D01*
X174060000Y-61751143D01*
X173917142Y-61608286D01*
X173845714Y-61465429D01*
X173774285Y-61179714D01*
X173774285Y-60965429D01*
X173845714Y-60679714D01*
X173917142Y-60536857D01*
X174060000Y-60394000D01*
X174274285Y-60322571D01*
X174417142Y-60322571D01*
X174631428Y-60394000D01*
X174702857Y-60465429D01*
X175560000Y-61822571D02*
X175417142Y-61751143D01*
X175345714Y-61679714D01*
X175274285Y-61536857D01*
X175274285Y-61108286D01*
X175345714Y-60965429D01*
X175417142Y-60894000D01*
X175560000Y-60822571D01*
X175774285Y-60822571D01*
X175917142Y-60894000D01*
X175988571Y-60965429D01*
X176060000Y-61108286D01*
X176060000Y-61536857D01*
X175988571Y-61679714D01*
X175917142Y-61751143D01*
X175774285Y-61822571D01*
X175560000Y-61822571D01*
X176488571Y-60822571D02*
X177060000Y-60822571D01*
X176702857Y-60322571D02*
X176702857Y-61608286D01*
X176774285Y-61751143D01*
X176917143Y-61822571D01*
X177060000Y-61822571D01*
X178131428Y-61751143D02*
X177988571Y-61822571D01*
X177702857Y-61822571D01*
X177560000Y-61751143D01*
X177488571Y-61608286D01*
X177488571Y-61036857D01*
X177560000Y-60894000D01*
X177702857Y-60822571D01*
X177988571Y-60822571D01*
X178131428Y-60894000D01*
X178202857Y-61036857D01*
X178202857Y-61179714D01*
X177488571Y-61322571D01*
X177988571Y-60251143D02*
X177774286Y-60465429D01*
D11*
X191516000Y-90421460D02*
X192532000Y-90421460D01*
X186690000Y-90421460D02*
X185420000Y-90421460D01*
X186944000Y-89151460D02*
X186944000Y-91691460D01*
X187198000Y-89151460D02*
X187198000Y-91691460D01*
X187452000Y-89151460D02*
X187452000Y-91691460D01*
X186690000Y-89151460D02*
X186690000Y-91691460D01*
X187706000Y-89151460D02*
X186436000Y-91691460D01*
X186436000Y-89151460D02*
X187706000Y-91691460D01*
X187706000Y-89151460D02*
X187706000Y-91691460D01*
X187071000Y-89151460D02*
X187071000Y-91691460D01*
X186436000Y-91691460D02*
X186436000Y-89151460D01*
X186436000Y-89151460D02*
X191516000Y-89151460D01*
X191516000Y-89151460D02*
X191516000Y-91691460D01*
X191516000Y-91691460D02*
X186436000Y-91691460D01*
X166116000Y-90426540D02*
X165100000Y-90426540D01*
X170942000Y-90426540D02*
X172212000Y-90426540D01*
X170688000Y-91696540D02*
X170688000Y-89156540D01*
X170434000Y-91696540D02*
X170434000Y-89156540D01*
X170180000Y-91696540D02*
X170180000Y-89156540D01*
X170942000Y-91696540D02*
X170942000Y-89156540D01*
X169926000Y-91696540D02*
X171196000Y-89156540D01*
X171196000Y-91696540D02*
X169926000Y-89156540D01*
X169926000Y-91696540D02*
X169926000Y-89156540D01*
X170561000Y-91696540D02*
X170561000Y-89156540D01*
X171196000Y-89156540D02*
X171196000Y-91696540D01*
X171196000Y-91696540D02*
X166116000Y-91696540D01*
X166116000Y-91696540D02*
X166116000Y-89156540D01*
X166116000Y-89156540D02*
X171196000Y-89156540D01*
X141986000Y-90421460D02*
X143002000Y-90421460D01*
X137160000Y-90421460D02*
X135890000Y-90421460D01*
X137414000Y-89151460D02*
X137414000Y-91691460D01*
X137668000Y-89151460D02*
X137668000Y-91691460D01*
X137922000Y-89151460D02*
X137922000Y-91691460D01*
X137160000Y-89151460D02*
X137160000Y-91691460D01*
X138176000Y-89151460D02*
X136906000Y-91691460D01*
X136906000Y-89151460D02*
X138176000Y-91691460D01*
X138176000Y-89151460D02*
X138176000Y-91691460D01*
X137541000Y-89151460D02*
X137541000Y-91691460D01*
X136906000Y-91691460D02*
X136906000Y-89151460D01*
X136906000Y-89151460D02*
X141986000Y-89151460D01*
X141986000Y-89151460D02*
X141986000Y-91691460D01*
X141986000Y-91691460D02*
X136906000Y-91691460D01*
X115316000Y-90426540D02*
X114300000Y-90426540D01*
X120142000Y-90426540D02*
X121412000Y-90426540D01*
X119888000Y-91696540D02*
X119888000Y-89156540D01*
X119634000Y-91696540D02*
X119634000Y-89156540D01*
X119380000Y-91696540D02*
X119380000Y-89156540D01*
X120142000Y-91696540D02*
X120142000Y-89156540D01*
X119126000Y-91696540D02*
X120396000Y-89156540D01*
X120396000Y-91696540D02*
X119126000Y-89156540D01*
X119126000Y-91696540D02*
X119126000Y-89156540D01*
X119761000Y-91696540D02*
X119761000Y-89156540D01*
X120396000Y-89156540D02*
X120396000Y-91696540D01*
X120396000Y-91696540D02*
X115316000Y-91696540D01*
X115316000Y-91696540D02*
X115316000Y-89156540D01*
X115316000Y-89156540D02*
X120396000Y-89156540D01*
X189230000Y-84455000D02*
X189230000Y-81026000D01*
X198882000Y-84455000D02*
X198882000Y-81026000D01*
X188722000Y-85598000D02*
X199390000Y-85598000D01*
X192278000Y-84582000D02*
X192278000Y-85852000D01*
X195834000Y-84582000D02*
X195834000Y-85852000D01*
X199390000Y-84455000D02*
X188722000Y-84455000D01*
X188722000Y-81026000D02*
X199390000Y-81026000D01*
X199390000Y-85852000D02*
X199390000Y-81026000D01*
X188722000Y-85852000D02*
X188722000Y-81026000D01*
X188722000Y-85852000D02*
X199390000Y-85852000D01*
X168402000Y-82423000D02*
X168402000Y-85852000D01*
X158750000Y-82423000D02*
X158750000Y-85852000D01*
X168910000Y-81280000D02*
X158242000Y-81280000D01*
X165354000Y-82296000D02*
X165354000Y-81026000D01*
X161798000Y-82296000D02*
X161798000Y-81026000D01*
X158242000Y-82423000D02*
X168910000Y-82423000D01*
X168910000Y-85852000D02*
X158242000Y-85852000D01*
X158242000Y-81026000D02*
X158242000Y-85852000D01*
X168910000Y-81026000D02*
X168910000Y-85852000D01*
X168910000Y-81026000D02*
X158242000Y-81026000D01*
X144780000Y-84455000D02*
X144780000Y-81026000D01*
X154432000Y-84455000D02*
X154432000Y-81026000D01*
X144272000Y-85598000D02*
X154940000Y-85598000D01*
X147828000Y-84582000D02*
X147828000Y-85852000D01*
X151384000Y-84582000D02*
X151384000Y-85852000D01*
X154940000Y-84455000D02*
X144272000Y-84455000D01*
X144272000Y-81026000D02*
X154940000Y-81026000D01*
X154940000Y-85852000D02*
X154940000Y-81026000D01*
X144272000Y-85852000D02*
X144272000Y-81026000D01*
X144272000Y-85852000D02*
X154940000Y-85852000D01*
X117602000Y-82423000D02*
X117602000Y-85852000D01*
X107950000Y-82423000D02*
X107950000Y-85852000D01*
X118110000Y-81280000D02*
X107442000Y-81280000D01*
X114554000Y-82296000D02*
X114554000Y-81026000D01*
X110998000Y-82296000D02*
X110998000Y-81026000D01*
X107442000Y-82423000D02*
X118110000Y-82423000D01*
X118110000Y-85852000D02*
X107442000Y-85852000D01*
X107442000Y-81026000D02*
X107442000Y-85852000D01*
X118110000Y-81026000D02*
X118110000Y-85852000D01*
X118110000Y-81026000D02*
X107442000Y-81026000D01*
X195326000Y-75184000D02*
X195326000Y-70104000D01*
X195326000Y-70104000D02*
X197866000Y-70104000D01*
X197866000Y-70104000D02*
X197866000Y-75184000D01*
X197866000Y-75184000D02*
X195326000Y-75184000D01*
X196596000Y-75184000D02*
X196596000Y-76454000D01*
X196596000Y-70104000D02*
X196596000Y-68834000D01*
X159766000Y-73914000D02*
X159766000Y-68834000D01*
X159766000Y-68834000D02*
X162306000Y-68834000D01*
X162306000Y-68834000D02*
X162306000Y-73914000D01*
X162306000Y-73914000D02*
X159766000Y-73914000D01*
X161036000Y-73914000D02*
X161036000Y-75184000D01*
X161036000Y-68834000D02*
X161036000Y-67564000D01*
X150876000Y-73914000D02*
X150876000Y-68834000D01*
X150876000Y-68834000D02*
X153416000Y-68834000D01*
X153416000Y-68834000D02*
X153416000Y-73914000D01*
X153416000Y-73914000D02*
X150876000Y-73914000D01*
X152146000Y-73914000D02*
X152146000Y-75184000D01*
X152146000Y-68834000D02*
X152146000Y-67564000D01*
X108966000Y-72644000D02*
X108966000Y-67564000D01*
X108966000Y-67564000D02*
X111506000Y-67564000D01*
X111506000Y-67564000D02*
X111506000Y-72644000D01*
X111506000Y-72644000D02*
X108966000Y-72644000D01*
X110236000Y-72644000D02*
X110236000Y-73914000D01*
X110236000Y-67564000D02*
X110236000Y-66294000D01*
X119371000Y-75049000D02*
X120641000Y-75049000D01*
X119371000Y-67699000D02*
X120641000Y-67699000D01*
X141741000Y-67699000D02*
X140471000Y-67699000D01*
X141741000Y-75049000D02*
X140471000Y-75049000D01*
X119371000Y-75049000D02*
X119371000Y-67699000D01*
X141741000Y-75049000D02*
X141741000Y-67699000D01*
X120641000Y-75049000D02*
X120641000Y-76334000D01*
X190001000Y-67699000D02*
X188731000Y-67699000D01*
X190001000Y-75049000D02*
X188731000Y-75049000D01*
X167631000Y-75049000D02*
X168901000Y-75049000D01*
X167631000Y-67699000D02*
X168901000Y-67699000D01*
X190001000Y-67699000D02*
X190001000Y-75049000D01*
X167631000Y-67699000D02*
X167631000Y-75049000D01*
X188731000Y-67699000D02*
X188731000Y-66414000D01*
D10*
X195005490Y-90421460D02*
G75*
G03X195005490Y-90421460I-949490J0D01*
G01*
X164525490Y-90426540D02*
G75*
G03X164525490Y-90426540I-949490J0D01*
G01*
X145475490Y-90421460D02*
G75*
G03X145475490Y-90421460I-949490J0D01*
G01*
X113725490Y-90426540D02*
G75*
G03X113725490Y-90426540I-949490J0D01*
G01*
X195022000Y-83058000D02*
X195022000Y-82550000D01*
X193090000Y-83058000D02*
X193090000Y-82550000D01*
X195022000Y-82550000D02*
G75*
G03X193090000Y-82550000I-966000J0D01*
G01*
X193090000Y-83058000D02*
G75*
G03X195022000Y-83058000I966000J0D01*
G01*
X192482000Y-83058000D02*
X192482000Y-82550000D01*
X190550000Y-83058000D02*
X190550000Y-82550000D01*
X192482000Y-82550000D02*
G75*
G03X190550000Y-82550000I-966000J0D01*
G01*
X190550000Y-83058000D02*
G75*
G03X192482000Y-83058000I966000J0D01*
G01*
X197562000Y-83058000D02*
X197562000Y-82550000D01*
X195630000Y-83058000D02*
X195630000Y-82550000D01*
X197562000Y-82550000D02*
G75*
G03X195630000Y-82550000I-966000J0D01*
G01*
X195630000Y-83058000D02*
G75*
G03X197562000Y-83058000I966000J0D01*
G01*
X162610000Y-83820000D02*
X162610000Y-84328000D01*
X164542000Y-83820000D02*
X164542000Y-84328000D01*
X162610000Y-84328000D02*
G75*
G03X164542000Y-84328000I966000J0D01*
G01*
X164542000Y-83820000D02*
G75*
G03X162610000Y-83820000I-966000J0D01*
G01*
X165150000Y-83820000D02*
X165150000Y-84328000D01*
X167082000Y-83820000D02*
X167082000Y-84328000D01*
X165150000Y-84328000D02*
G75*
G03X167082000Y-84328000I966000J0D01*
G01*
X167082000Y-83820000D02*
G75*
G03X165150000Y-83820000I-966000J0D01*
G01*
X160070000Y-83820000D02*
X160070000Y-84328000D01*
X162002000Y-83820000D02*
X162002000Y-84328000D01*
X160070000Y-84328000D02*
G75*
G03X162002000Y-84328000I966000J0D01*
G01*
X162002000Y-83820000D02*
G75*
G03X160070000Y-83820000I-966000J0D01*
G01*
X150572000Y-83058000D02*
X150572000Y-82550000D01*
X148640000Y-83058000D02*
X148640000Y-82550000D01*
X150572000Y-82550000D02*
G75*
G03X148640000Y-82550000I-966000J0D01*
G01*
X148640000Y-83058000D02*
G75*
G03X150572000Y-83058000I966000J0D01*
G01*
X148032000Y-83058000D02*
X148032000Y-82550000D01*
X146100000Y-83058000D02*
X146100000Y-82550000D01*
X148032000Y-82550000D02*
G75*
G03X146100000Y-82550000I-966000J0D01*
G01*
X146100000Y-83058000D02*
G75*
G03X148032000Y-83058000I966000J0D01*
G01*
X153112000Y-83058000D02*
X153112000Y-82550000D01*
X151180000Y-83058000D02*
X151180000Y-82550000D01*
X153112000Y-82550000D02*
G75*
G03X151180000Y-82550000I-966000J0D01*
G01*
X151180000Y-83058000D02*
G75*
G03X153112000Y-83058000I966000J0D01*
G01*
X111810000Y-83820000D02*
X111810000Y-84328000D01*
X113742000Y-83820000D02*
X113742000Y-84328000D01*
X111810000Y-84328000D02*
G75*
G03X113742000Y-84328000I966000J0D01*
G01*
X113742000Y-83820000D02*
G75*
G03X111810000Y-83820000I-966000J0D01*
G01*
X114350000Y-83820000D02*
X114350000Y-84328000D01*
X116282000Y-83820000D02*
X116282000Y-84328000D01*
X114350000Y-84328000D02*
G75*
G03X116282000Y-84328000I966000J0D01*
G01*
X116282000Y-83820000D02*
G75*
G03X114350000Y-83820000I-966000J0D01*
G01*
X109270000Y-83820000D02*
X109270000Y-84328000D01*
X111202000Y-83820000D02*
X111202000Y-84328000D01*
X109270000Y-84328000D02*
G75*
G03X111202000Y-84328000I966000J0D01*
G01*
X111202000Y-83820000D02*
G75*
G03X109270000Y-83820000I-966000J0D01*
G01*
X197545490Y-77724000D02*
G75*
G03X197545490Y-77724000I-949490J0D01*
G01*
X197545490Y-67564000D02*
G75*
G03X197545490Y-67564000I-949490J0D01*
G01*
X161985490Y-76454000D02*
G75*
G03X161985490Y-76454000I-949490J0D01*
G01*
X161985490Y-66294000D02*
G75*
G03X161985490Y-66294000I-949490J0D01*
G01*
X153095490Y-76454000D02*
G75*
G03X153095490Y-76454000I-949490J0D01*
G01*
X153095490Y-66294000D02*
G75*
G03X153095490Y-66294000I-949490J0D01*
G01*
X111185490Y-75184000D02*
G75*
G03X111185490Y-75184000I-949490J0D01*
G01*
X111185490Y-65024000D02*
G75*
G03X111185490Y-65024000I-949490J0D01*
G01*
X122416000Y-75534000D02*
X122416000Y-74834000D01*
X120916000Y-75534000D02*
X120916000Y-74834000D01*
X122416000Y-74834000D02*
G75*
G03X120916000Y-74834000I-750000J0D01*
G01*
X120916000Y-75534000D02*
G75*
G03X122416000Y-75534000I750000J0D01*
G01*
X124956000Y-75534000D02*
X124956000Y-74834000D01*
X123456000Y-75534000D02*
X123456000Y-74834000D01*
X124956000Y-74834000D02*
G75*
G03X123456000Y-74834000I-750000J0D01*
G01*
X123456000Y-75534000D02*
G75*
G03X124956000Y-75534000I750000J0D01*
G01*
X127496000Y-75534000D02*
X127496000Y-74834000D01*
X125996000Y-75534000D02*
X125996000Y-74834000D01*
X127496000Y-74834000D02*
G75*
G03X125996000Y-74834000I-750000J0D01*
G01*
X125996000Y-75534000D02*
G75*
G03X127496000Y-75534000I750000J0D01*
G01*
X130036000Y-75534000D02*
X130036000Y-74834000D01*
X128536000Y-75534000D02*
X128536000Y-74834000D01*
X130036000Y-74834000D02*
G75*
G03X128536000Y-74834000I-750000J0D01*
G01*
X128536000Y-75534000D02*
G75*
G03X130036000Y-75534000I750000J0D01*
G01*
X132576000Y-75534000D02*
X132576000Y-74834000D01*
X131076000Y-75534000D02*
X131076000Y-74834000D01*
X132576000Y-74834000D02*
G75*
G03X131076000Y-74834000I-750000J0D01*
G01*
X131076000Y-75534000D02*
G75*
G03X132576000Y-75534000I750000J0D01*
G01*
X135116000Y-75534000D02*
X135116000Y-74834000D01*
X133616000Y-75534000D02*
X133616000Y-74834000D01*
X135116000Y-74834000D02*
G75*
G03X133616000Y-74834000I-750000J0D01*
G01*
X133616000Y-75534000D02*
G75*
G03X135116000Y-75534000I750000J0D01*
G01*
X137656000Y-75534000D02*
X137656000Y-74834000D01*
X136156000Y-75534000D02*
X136156000Y-74834000D01*
X137656000Y-74834000D02*
G75*
G03X136156000Y-74834000I-750000J0D01*
G01*
X136156000Y-75534000D02*
G75*
G03X137656000Y-75534000I750000J0D01*
G01*
X140196000Y-75534000D02*
X140196000Y-74834000D01*
X138696000Y-75534000D02*
X138696000Y-74834000D01*
X140196000Y-74834000D02*
G75*
G03X138696000Y-74834000I-750000J0D01*
G01*
X138696000Y-75534000D02*
G75*
G03X140196000Y-75534000I750000J0D01*
G01*
X140196000Y-67914000D02*
X140196000Y-67214000D01*
X138696000Y-67914000D02*
X138696000Y-67214000D01*
X140196000Y-67214000D02*
G75*
G03X138696000Y-67214000I-750000J0D01*
G01*
X138696000Y-67914000D02*
G75*
G03X140196000Y-67914000I750000J0D01*
G01*
X137656000Y-67914000D02*
X137656000Y-67214000D01*
X136156000Y-67914000D02*
X136156000Y-67214000D01*
X137656000Y-67214000D02*
G75*
G03X136156000Y-67214000I-750000J0D01*
G01*
X136156000Y-67914000D02*
G75*
G03X137656000Y-67914000I750000J0D01*
G01*
X135116000Y-67914000D02*
X135116000Y-67214000D01*
X133616000Y-67914000D02*
X133616000Y-67214000D01*
X135116000Y-67214000D02*
G75*
G03X133616000Y-67214000I-750000J0D01*
G01*
X133616000Y-67914000D02*
G75*
G03X135116000Y-67914000I750000J0D01*
G01*
X132576000Y-67914000D02*
X132576000Y-67214000D01*
X131076000Y-67914000D02*
X131076000Y-67214000D01*
X132576000Y-67214000D02*
G75*
G03X131076000Y-67214000I-750000J0D01*
G01*
X131076000Y-67914000D02*
G75*
G03X132576000Y-67914000I750000J0D01*
G01*
X130036000Y-67914000D02*
X130036000Y-67214000D01*
X128536000Y-67914000D02*
X128536000Y-67214000D01*
X130036000Y-67214000D02*
G75*
G03X128536000Y-67214000I-750000J0D01*
G01*
X128536000Y-67914000D02*
G75*
G03X130036000Y-67914000I750000J0D01*
G01*
X127496000Y-67914000D02*
X127496000Y-67214000D01*
X125996000Y-67914000D02*
X125996000Y-67214000D01*
X127496000Y-67214000D02*
G75*
G03X125996000Y-67214000I-750000J0D01*
G01*
X125996000Y-67914000D02*
G75*
G03X127496000Y-67914000I750000J0D01*
G01*
X124956000Y-67914000D02*
X124956000Y-67214000D01*
X123456000Y-67914000D02*
X123456000Y-67214000D01*
X124956000Y-67214000D02*
G75*
G03X123456000Y-67214000I-750000J0D01*
G01*
X123456000Y-67914000D02*
G75*
G03X124956000Y-67914000I750000J0D01*
G01*
X122416000Y-67914000D02*
X122416000Y-67214000D01*
X120916000Y-67914000D02*
X120916000Y-67214000D01*
X122416000Y-67214000D02*
G75*
G03X120916000Y-67214000I-750000J0D01*
G01*
X120916000Y-67914000D02*
G75*
G03X122416000Y-67914000I750000J0D01*
G01*
X186956000Y-67214000D02*
X186956000Y-67914000D01*
X188456000Y-67214000D02*
X188456000Y-67914000D01*
X186956000Y-67914000D02*
G75*
G03X188456000Y-67914000I750000J0D01*
G01*
X188456000Y-67214000D02*
G75*
G03X186956000Y-67214000I-750000J0D01*
G01*
X184416000Y-67214000D02*
X184416000Y-67914000D01*
X185916000Y-67214000D02*
X185916000Y-67914000D01*
X184416000Y-67914000D02*
G75*
G03X185916000Y-67914000I750000J0D01*
G01*
X185916000Y-67214000D02*
G75*
G03X184416000Y-67214000I-750000J0D01*
G01*
X181876000Y-67214000D02*
X181876000Y-67914000D01*
X183376000Y-67214000D02*
X183376000Y-67914000D01*
X181876000Y-67914000D02*
G75*
G03X183376000Y-67914000I750000J0D01*
G01*
X183376000Y-67214000D02*
G75*
G03X181876000Y-67214000I-750000J0D01*
G01*
X179336000Y-67214000D02*
X179336000Y-67914000D01*
X180836000Y-67214000D02*
X180836000Y-67914000D01*
X179336000Y-67914000D02*
G75*
G03X180836000Y-67914000I750000J0D01*
G01*
X180836000Y-67214000D02*
G75*
G03X179336000Y-67214000I-750000J0D01*
G01*
X176796000Y-67214000D02*
X176796000Y-67914000D01*
X178296000Y-67214000D02*
X178296000Y-67914000D01*
X176796000Y-67914000D02*
G75*
G03X178296000Y-67914000I750000J0D01*
G01*
X178296000Y-67214000D02*
G75*
G03X176796000Y-67214000I-750000J0D01*
G01*
X174256000Y-67214000D02*
X174256000Y-67914000D01*
X175756000Y-67214000D02*
X175756000Y-67914000D01*
X174256000Y-67914000D02*
G75*
G03X175756000Y-67914000I750000J0D01*
G01*
X175756000Y-67214000D02*
G75*
G03X174256000Y-67214000I-750000J0D01*
G01*
X171716000Y-67214000D02*
X171716000Y-67914000D01*
X173216000Y-67214000D02*
X173216000Y-67914000D01*
X171716000Y-67914000D02*
G75*
G03X173216000Y-67914000I750000J0D01*
G01*
X173216000Y-67214000D02*
G75*
G03X171716000Y-67214000I-750000J0D01*
G01*
X169176000Y-67214000D02*
X169176000Y-67914000D01*
X170676000Y-67214000D02*
X170676000Y-67914000D01*
X169176000Y-67914000D02*
G75*
G03X170676000Y-67914000I750000J0D01*
G01*
X170676000Y-67214000D02*
G75*
G03X169176000Y-67214000I-750000J0D01*
G01*
X169176000Y-74834000D02*
X169176000Y-75534000D01*
X170676000Y-74834000D02*
X170676000Y-75534000D01*
X169176000Y-75534000D02*
G75*
G03X170676000Y-75534000I750000J0D01*
G01*
X170676000Y-74834000D02*
G75*
G03X169176000Y-74834000I-750000J0D01*
G01*
X171716000Y-74834000D02*
X171716000Y-75534000D01*
X173216000Y-74834000D02*
X173216000Y-75534000D01*
X171716000Y-75534000D02*
G75*
G03X173216000Y-75534000I750000J0D01*
G01*
X173216000Y-74834000D02*
G75*
G03X171716000Y-74834000I-750000J0D01*
G01*
X174256000Y-74834000D02*
X174256000Y-75534000D01*
X175756000Y-74834000D02*
X175756000Y-75534000D01*
X174256000Y-75534000D02*
G75*
G03X175756000Y-75534000I750000J0D01*
G01*
X175756000Y-74834000D02*
G75*
G03X174256000Y-74834000I-750000J0D01*
G01*
X176796000Y-74834000D02*
X176796000Y-75534000D01*
X178296000Y-74834000D02*
X178296000Y-75534000D01*
X176796000Y-75534000D02*
G75*
G03X178296000Y-75534000I750000J0D01*
G01*
X178296000Y-74834000D02*
G75*
G03X176796000Y-74834000I-750000J0D01*
G01*
X179336000Y-74834000D02*
X179336000Y-75534000D01*
X180836000Y-74834000D02*
X180836000Y-75534000D01*
X179336000Y-75534000D02*
G75*
G03X180836000Y-75534000I750000J0D01*
G01*
X180836000Y-74834000D02*
G75*
G03X179336000Y-74834000I-750000J0D01*
G01*
X181876000Y-74834000D02*
X181876000Y-75534000D01*
X183376000Y-74834000D02*
X183376000Y-75534000D01*
X181876000Y-75534000D02*
G75*
G03X183376000Y-75534000I750000J0D01*
G01*
X183376000Y-74834000D02*
G75*
G03X181876000Y-74834000I-750000J0D01*
G01*
X184416000Y-74834000D02*
X184416000Y-75534000D01*
X185916000Y-74834000D02*
X185916000Y-75534000D01*
X184416000Y-75534000D02*
G75*
G03X185916000Y-75534000I750000J0D01*
G01*
X185916000Y-74834000D02*
G75*
G03X184416000Y-74834000I-750000J0D01*
G01*
X186956000Y-74834000D02*
X186956000Y-75534000D01*
X188456000Y-74834000D02*
X188456000Y-75534000D01*
X186956000Y-75534000D02*
G75*
G03X188456000Y-75534000I750000J0D01*
G01*
X188456000Y-74834000D02*
G75*
G03X186956000Y-74834000I-750000J0D01*
G01*
X140896000Y-59944000D02*
G75*
G03X140896000Y-59944000I-1450000J0D01*
G01*
X189156000Y-62484000D02*
G75*
G03X189156000Y-62484000I-1450000J0D01*
G01*
X200586000Y-90424000D02*
G75*
G03X200586000Y-90424000I-1450000J0D01*
G01*
X180266000Y-90424000D02*
G75*
G03X180266000Y-90424000I-1450000J0D01*
G01*
X159946000Y-90424000D02*
G75*
G03X159946000Y-90424000I-1450000J0D01*
G01*
X151056000Y-90424000D02*
G75*
G03X151056000Y-90424000I-1450000J0D01*
G01*
X130736000Y-90424000D02*
G75*
G03X130736000Y-90424000I-1450000J0D01*
G01*
X109146000Y-90424000D02*
G75*
G03X109146000Y-90424000I-1450000J0D01*
G01*
X178488000Y-83820000D02*
G75*
G03X178488000Y-83820000I-1450000J0D01*
G01*
X185346000Y-83566000D02*
G75*
G03X185346000Y-83566000I-1450000J0D01*
G01*
D11*
X188545245Y-93413841D02*
X188545245Y-92413841D01*
X188783340Y-92413841D01*
X188926198Y-92461460D01*
X189021436Y-92556698D01*
X189069055Y-92651936D01*
X189116674Y-92842412D01*
X189116674Y-92985270D01*
X189069055Y-93175746D01*
X189021436Y-93270984D01*
X188926198Y-93366222D01*
X188783340Y-93413841D01*
X188545245Y-93413841D01*
X190069055Y-93413841D02*
X189497626Y-93413841D01*
X189783340Y-93413841D02*
X189783340Y-92413841D01*
X189688102Y-92556698D01*
X189592864Y-92651936D01*
X189497626Y-92699555D01*
X167610565Y-88338921D02*
X167610565Y-87338921D01*
X167848660Y-87338921D01*
X167991518Y-87386540D01*
X168086756Y-87481778D01*
X168134375Y-87577016D01*
X168181994Y-87767492D01*
X168181994Y-87910350D01*
X168134375Y-88100826D01*
X168086756Y-88196064D01*
X167991518Y-88291302D01*
X167848660Y-88338921D01*
X167610565Y-88338921D01*
X168562946Y-87434159D02*
X168610565Y-87386540D01*
X168705803Y-87338921D01*
X168943899Y-87338921D01*
X169039137Y-87386540D01*
X169086756Y-87434159D01*
X169134375Y-87529397D01*
X169134375Y-87624635D01*
X169086756Y-87767492D01*
X168515327Y-88338921D01*
X169134375Y-88338921D01*
X139015245Y-93413841D02*
X139015245Y-92413841D01*
X139253340Y-92413841D01*
X139396198Y-92461460D01*
X139491436Y-92556698D01*
X139539055Y-92651936D01*
X139586674Y-92842412D01*
X139586674Y-92985270D01*
X139539055Y-93175746D01*
X139491436Y-93270984D01*
X139396198Y-93366222D01*
X139253340Y-93413841D01*
X139015245Y-93413841D01*
X139920007Y-92413841D02*
X140539055Y-92413841D01*
X140205721Y-92794793D01*
X140348579Y-92794793D01*
X140443817Y-92842412D01*
X140491436Y-92890031D01*
X140539055Y-92985270D01*
X140539055Y-93223365D01*
X140491436Y-93318603D01*
X140443817Y-93366222D01*
X140348579Y-93413841D01*
X140062864Y-93413841D01*
X139967626Y-93366222D01*
X139920007Y-93318603D01*
X116810565Y-88338921D02*
X116810565Y-87338921D01*
X117048660Y-87338921D01*
X117191518Y-87386540D01*
X117286756Y-87481778D01*
X117334375Y-87577016D01*
X117381994Y-87767492D01*
X117381994Y-87910350D01*
X117334375Y-88100826D01*
X117286756Y-88196064D01*
X117191518Y-88291302D01*
X117048660Y-88338921D01*
X116810565Y-88338921D01*
X118239137Y-87672254D02*
X118239137Y-88338921D01*
X118001041Y-87291302D02*
X117762946Y-88005588D01*
X118381994Y-88005588D01*
X200056762Y-80557619D02*
X199961524Y-80510000D01*
X199866286Y-80414762D01*
X199723429Y-80271905D01*
X199628190Y-80224286D01*
X199532952Y-80224286D01*
X199580571Y-80462381D02*
X199485333Y-80414762D01*
X199390095Y-80319524D01*
X199342476Y-80129048D01*
X199342476Y-79795714D01*
X199390095Y-79605238D01*
X199485333Y-79510000D01*
X199580571Y-79462381D01*
X199771048Y-79462381D01*
X199866286Y-79510000D01*
X199961524Y-79605238D01*
X200009143Y-79795714D01*
X200009143Y-80129048D01*
X199961524Y-80319524D01*
X199866286Y-80414762D01*
X199771048Y-80462381D01*
X199580571Y-80462381D01*
X200961524Y-80462381D02*
X200390095Y-80462381D01*
X200675809Y-80462381D02*
X200675809Y-79462381D01*
X200580571Y-79605238D01*
X200485333Y-79700476D01*
X200390095Y-79748095D01*
X170084762Y-83605619D02*
X169989524Y-83558000D01*
X169894286Y-83462762D01*
X169751429Y-83319905D01*
X169656190Y-83272286D01*
X169560952Y-83272286D01*
X169608571Y-83510381D02*
X169513333Y-83462762D01*
X169418095Y-83367524D01*
X169370476Y-83177048D01*
X169370476Y-82843714D01*
X169418095Y-82653238D01*
X169513333Y-82558000D01*
X169608571Y-82510381D01*
X169799048Y-82510381D01*
X169894286Y-82558000D01*
X169989524Y-82653238D01*
X170037143Y-82843714D01*
X170037143Y-83177048D01*
X169989524Y-83367524D01*
X169894286Y-83462762D01*
X169799048Y-83510381D01*
X169608571Y-83510381D01*
X170418095Y-82605619D02*
X170465714Y-82558000D01*
X170560952Y-82510381D01*
X170799048Y-82510381D01*
X170894286Y-82558000D01*
X170941905Y-82605619D01*
X170989524Y-82700857D01*
X170989524Y-82796095D01*
X170941905Y-82938952D01*
X170370476Y-83510381D01*
X170989524Y-83510381D01*
X156114762Y-83351619D02*
X156019524Y-83304000D01*
X155924286Y-83208762D01*
X155781429Y-83065905D01*
X155686190Y-83018286D01*
X155590952Y-83018286D01*
X155638571Y-83256381D02*
X155543333Y-83208762D01*
X155448095Y-83113524D01*
X155400476Y-82923048D01*
X155400476Y-82589714D01*
X155448095Y-82399238D01*
X155543333Y-82304000D01*
X155638571Y-82256381D01*
X155829048Y-82256381D01*
X155924286Y-82304000D01*
X156019524Y-82399238D01*
X156067143Y-82589714D01*
X156067143Y-82923048D01*
X156019524Y-83113524D01*
X155924286Y-83208762D01*
X155829048Y-83256381D01*
X155638571Y-83256381D01*
X156400476Y-82256381D02*
X157019524Y-82256381D01*
X156686190Y-82637333D01*
X156829048Y-82637333D01*
X156924286Y-82684952D01*
X156971905Y-82732571D01*
X157019524Y-82827810D01*
X157019524Y-83065905D01*
X156971905Y-83161143D01*
X156924286Y-83208762D01*
X156829048Y-83256381D01*
X156543333Y-83256381D01*
X156448095Y-83208762D01*
X156400476Y-83161143D01*
X112680762Y-80303619D02*
X112585524Y-80256000D01*
X112490286Y-80160762D01*
X112347429Y-80017905D01*
X112252190Y-79970286D01*
X112156952Y-79970286D01*
X112204571Y-80208381D02*
X112109333Y-80160762D01*
X112014095Y-80065524D01*
X111966476Y-79875048D01*
X111966476Y-79541714D01*
X112014095Y-79351238D01*
X112109333Y-79256000D01*
X112204571Y-79208381D01*
X112395048Y-79208381D01*
X112490286Y-79256000D01*
X112585524Y-79351238D01*
X112633143Y-79541714D01*
X112633143Y-79875048D01*
X112585524Y-80065524D01*
X112490286Y-80160762D01*
X112395048Y-80208381D01*
X112204571Y-80208381D01*
X113490286Y-79541714D02*
X113490286Y-80208381D01*
X113252190Y-79160762D02*
X113014095Y-79875048D01*
X113633143Y-79875048D01*
X199223334Y-69794381D02*
X198890000Y-69318190D01*
X198651905Y-69794381D02*
X198651905Y-68794381D01*
X199032858Y-68794381D01*
X199128096Y-68842000D01*
X199175715Y-68889619D01*
X199223334Y-68984857D01*
X199223334Y-69127714D01*
X199175715Y-69222952D01*
X199128096Y-69270571D01*
X199032858Y-69318190D01*
X198651905Y-69318190D01*
X200175715Y-69794381D02*
X199604286Y-69794381D01*
X199890000Y-69794381D02*
X199890000Y-68794381D01*
X199794762Y-68937238D01*
X199699524Y-69032476D01*
X199604286Y-69080095D01*
X157821334Y-66746381D02*
X157488000Y-66270190D01*
X157249905Y-66746381D02*
X157249905Y-65746381D01*
X157630858Y-65746381D01*
X157726096Y-65794000D01*
X157773715Y-65841619D01*
X157821334Y-65936857D01*
X157821334Y-66079714D01*
X157773715Y-66174952D01*
X157726096Y-66222571D01*
X157630858Y-66270190D01*
X157249905Y-66270190D01*
X158202286Y-65841619D02*
X158249905Y-65794000D01*
X158345143Y-65746381D01*
X158583239Y-65746381D01*
X158678477Y-65794000D01*
X158726096Y-65841619D01*
X158773715Y-65936857D01*
X158773715Y-66032095D01*
X158726096Y-66174952D01*
X158154667Y-66746381D01*
X158773715Y-66746381D01*
X148677334Y-67508381D02*
X148344000Y-67032190D01*
X148105905Y-67508381D02*
X148105905Y-66508381D01*
X148486858Y-66508381D01*
X148582096Y-66556000D01*
X148629715Y-66603619D01*
X148677334Y-66698857D01*
X148677334Y-66841714D01*
X148629715Y-66936952D01*
X148582096Y-66984571D01*
X148486858Y-67032190D01*
X148105905Y-67032190D01*
X149010667Y-66508381D02*
X149629715Y-66508381D01*
X149296381Y-66889333D01*
X149439239Y-66889333D01*
X149534477Y-66936952D01*
X149582096Y-66984571D01*
X149629715Y-67079810D01*
X149629715Y-67317905D01*
X149582096Y-67413143D01*
X149534477Y-67460762D01*
X149439239Y-67508381D01*
X149153524Y-67508381D01*
X149058286Y-67460762D01*
X149010667Y-67413143D01*
X107275334Y-68016381D02*
X106942000Y-67540190D01*
X106703905Y-68016381D02*
X106703905Y-67016381D01*
X107084858Y-67016381D01*
X107180096Y-67064000D01*
X107227715Y-67111619D01*
X107275334Y-67206857D01*
X107275334Y-67349714D01*
X107227715Y-67444952D01*
X107180096Y-67492571D01*
X107084858Y-67540190D01*
X106703905Y-67540190D01*
X108132477Y-67349714D02*
X108132477Y-68016381D01*
X107894381Y-66968762D02*
X107656286Y-67683048D01*
X108275334Y-67683048D01*
X116840095Y-70318381D02*
X116840095Y-71127905D01*
X116887714Y-71223143D01*
X116935333Y-71270762D01*
X117030571Y-71318381D01*
X117221048Y-71318381D01*
X117316286Y-71270762D01*
X117363905Y-71223143D01*
X117411524Y-71127905D01*
X117411524Y-70318381D01*
X118411524Y-71318381D02*
X117840095Y-71318381D01*
X118125809Y-71318381D02*
X118125809Y-70318381D01*
X118030571Y-70461238D01*
X117935333Y-70556476D01*
X117840095Y-70604095D01*
X190754095Y-75144381D02*
X190754095Y-75953905D01*
X190801714Y-76049143D01*
X190849333Y-76096762D01*
X190944571Y-76144381D01*
X191135048Y-76144381D01*
X191230286Y-76096762D01*
X191277905Y-76049143D01*
X191325524Y-75953905D01*
X191325524Y-75144381D01*
X191754095Y-75239619D02*
X191801714Y-75192000D01*
X191896952Y-75144381D01*
X192135048Y-75144381D01*
X192230286Y-75192000D01*
X192277905Y-75239619D01*
X192325524Y-75334857D01*
X192325524Y-75430095D01*
X192277905Y-75572952D01*
X191706476Y-76144381D01*
X192325524Y-76144381D01*
X135040762Y-60301143D02*
X134993143Y-60348762D01*
X134850286Y-60396381D01*
X134755048Y-60396381D01*
X134612190Y-60348762D01*
X134516952Y-60253524D01*
X134469333Y-60158286D01*
X134421714Y-59967810D01*
X134421714Y-59824952D01*
X134469333Y-59634476D01*
X134516952Y-59539238D01*
X134612190Y-59444000D01*
X134755048Y-59396381D01*
X134850286Y-59396381D01*
X134993143Y-59444000D01*
X135040762Y-59491619D01*
X135945524Y-60396381D02*
X135469333Y-60396381D01*
X135469333Y-59396381D01*
X136278857Y-60396381D02*
X136278857Y-59396381D01*
X136850286Y-60396381D02*
X136421714Y-59824952D01*
X136850286Y-59396381D02*
X136278857Y-59967810D01*
X183658000Y-61412381D02*
X183658000Y-60412381D01*
X183896095Y-60412381D01*
X184038953Y-60460000D01*
X184134191Y-60555238D01*
X184181810Y-60650476D01*
X184229429Y-60840952D01*
X184229429Y-60983810D01*
X184181810Y-61174286D01*
X184134191Y-61269524D01*
X184038953Y-61364762D01*
X183896095Y-61412381D01*
X183658000Y-61412381D01*
X184658000Y-61412381D02*
X184658000Y-60412381D01*
X185705619Y-61412381D02*
X185372285Y-60936190D01*
X185134190Y-61412381D02*
X185134190Y-60412381D01*
X185515143Y-60412381D01*
X185610381Y-60460000D01*
X185658000Y-60507619D01*
X185705619Y-60602857D01*
X185705619Y-60745714D01*
X185658000Y-60840952D01*
X185610381Y-60888571D01*
X185515143Y-60936190D01*
X185134190Y-60936190D01*
X196508953Y-87987143D02*
X196461334Y-88034762D01*
X196318477Y-88082381D01*
X196223239Y-88082381D01*
X196080381Y-88034762D01*
X195985143Y-87939524D01*
X195937524Y-87844286D01*
X195889905Y-87653810D01*
X195889905Y-87510952D01*
X195937524Y-87320476D01*
X195985143Y-87225238D01*
X196080381Y-87130000D01*
X196223239Y-87082381D01*
X196318477Y-87082381D01*
X196461334Y-87130000D01*
X196508953Y-87177619D01*
X197080381Y-88082381D02*
X196985143Y-88034762D01*
X196937524Y-87987143D01*
X196889905Y-87891905D01*
X196889905Y-87606190D01*
X196937524Y-87510952D01*
X196985143Y-87463333D01*
X197080381Y-87415714D01*
X197223239Y-87415714D01*
X197318477Y-87463333D01*
X197366096Y-87510952D01*
X197413715Y-87606190D01*
X197413715Y-87891905D01*
X197366096Y-87987143D01*
X197318477Y-88034762D01*
X197223239Y-88082381D01*
X197080381Y-88082381D01*
X197842286Y-88082381D02*
X197842286Y-87415714D01*
X197842286Y-87082381D02*
X197794667Y-87130000D01*
X197842286Y-87177619D01*
X197889905Y-87130000D01*
X197842286Y-87082381D01*
X197842286Y-87177619D01*
X198461333Y-88082381D02*
X198366095Y-88034762D01*
X198318476Y-87939524D01*
X198318476Y-87082381D01*
X200128001Y-88082381D02*
X199556572Y-88082381D01*
X199842286Y-88082381D02*
X199842286Y-87082381D01*
X199747048Y-87225238D01*
X199651810Y-87320476D01*
X199556572Y-87368095D01*
X200556572Y-87701429D02*
X201318477Y-87701429D01*
X200937525Y-88082381D02*
X200937525Y-87320476D01*
X177228667Y-87082381D02*
X177562000Y-88082381D01*
X177895334Y-87082381D01*
X178800096Y-87987143D02*
X178752477Y-88034762D01*
X178609620Y-88082381D01*
X178514382Y-88082381D01*
X178371524Y-88034762D01*
X178276286Y-87939524D01*
X178228667Y-87844286D01*
X178181048Y-87653810D01*
X178181048Y-87510952D01*
X178228667Y-87320476D01*
X178276286Y-87225238D01*
X178371524Y-87130000D01*
X178514382Y-87082381D01*
X178609620Y-87082381D01*
X178752477Y-87130000D01*
X178800096Y-87177619D01*
X179800096Y-87987143D02*
X179752477Y-88034762D01*
X179609620Y-88082381D01*
X179514382Y-88082381D01*
X179371524Y-88034762D01*
X179276286Y-87939524D01*
X179228667Y-87844286D01*
X179181048Y-87653810D01*
X179181048Y-87510952D01*
X179228667Y-87320476D01*
X179276286Y-87225238D01*
X179371524Y-87130000D01*
X179514382Y-87082381D01*
X179609620Y-87082381D01*
X179752477Y-87130000D01*
X179800096Y-87177619D01*
X156884953Y-87733143D02*
X156837334Y-87780762D01*
X156694477Y-87828381D01*
X156599239Y-87828381D01*
X156456381Y-87780762D01*
X156361143Y-87685524D01*
X156313524Y-87590286D01*
X156265905Y-87399810D01*
X156265905Y-87256952D01*
X156313524Y-87066476D01*
X156361143Y-86971238D01*
X156456381Y-86876000D01*
X156599239Y-86828381D01*
X156694477Y-86828381D01*
X156837334Y-86876000D01*
X156884953Y-86923619D01*
X157456381Y-87828381D02*
X157361143Y-87780762D01*
X157313524Y-87733143D01*
X157265905Y-87637905D01*
X157265905Y-87352190D01*
X157313524Y-87256952D01*
X157361143Y-87209333D01*
X157456381Y-87161714D01*
X157599239Y-87161714D01*
X157694477Y-87209333D01*
X157742096Y-87256952D01*
X157789715Y-87352190D01*
X157789715Y-87637905D01*
X157742096Y-87733143D01*
X157694477Y-87780762D01*
X157599239Y-87828381D01*
X157456381Y-87828381D01*
X158218286Y-87828381D02*
X158218286Y-87161714D01*
X158218286Y-86828381D02*
X158170667Y-86876000D01*
X158218286Y-86923619D01*
X158265905Y-86876000D01*
X158218286Y-86828381D01*
X158218286Y-86923619D01*
X158837333Y-87828381D02*
X158742095Y-87780762D01*
X158694476Y-87685524D01*
X158694476Y-86828381D01*
X160504001Y-87828381D02*
X159932572Y-87828381D01*
X160218286Y-87828381D02*
X160218286Y-86828381D01*
X160123048Y-86971238D01*
X160027810Y-87066476D01*
X159932572Y-87114095D01*
X160932572Y-87447429D02*
X161694477Y-87447429D01*
X147994953Y-93321143D02*
X147947334Y-93368762D01*
X147804477Y-93416381D01*
X147709239Y-93416381D01*
X147566381Y-93368762D01*
X147471143Y-93273524D01*
X147423524Y-93178286D01*
X147375905Y-92987810D01*
X147375905Y-92844952D01*
X147423524Y-92654476D01*
X147471143Y-92559238D01*
X147566381Y-92464000D01*
X147709239Y-92416381D01*
X147804477Y-92416381D01*
X147947334Y-92464000D01*
X147994953Y-92511619D01*
X148566381Y-93416381D02*
X148471143Y-93368762D01*
X148423524Y-93321143D01*
X148375905Y-93225905D01*
X148375905Y-92940190D01*
X148423524Y-92844952D01*
X148471143Y-92797333D01*
X148566381Y-92749714D01*
X148709239Y-92749714D01*
X148804477Y-92797333D01*
X148852096Y-92844952D01*
X148899715Y-92940190D01*
X148899715Y-93225905D01*
X148852096Y-93321143D01*
X148804477Y-93368762D01*
X148709239Y-93416381D01*
X148566381Y-93416381D01*
X149328286Y-93416381D02*
X149328286Y-92749714D01*
X149328286Y-92416381D02*
X149280667Y-92464000D01*
X149328286Y-92511619D01*
X149375905Y-92464000D01*
X149328286Y-92416381D01*
X149328286Y-92511619D01*
X149947333Y-93416381D02*
X149852095Y-93368762D01*
X149804476Y-93273524D01*
X149804476Y-92416381D01*
X151042572Y-92511619D02*
X151090191Y-92464000D01*
X151185429Y-92416381D01*
X151423525Y-92416381D01*
X151518763Y-92464000D01*
X151566382Y-92511619D01*
X151614001Y-92606857D01*
X151614001Y-92702095D01*
X151566382Y-92844952D01*
X150994953Y-93416381D01*
X151614001Y-93416381D01*
X152042572Y-93035429D02*
X152804477Y-93035429D01*
X152423525Y-93416381D02*
X152423525Y-92654476D01*
X127952667Y-87336381D02*
X128286000Y-88336381D01*
X128619334Y-87336381D01*
X129524096Y-88241143D02*
X129476477Y-88288762D01*
X129333620Y-88336381D01*
X129238382Y-88336381D01*
X129095524Y-88288762D01*
X129000286Y-88193524D01*
X128952667Y-88098286D01*
X128905048Y-87907810D01*
X128905048Y-87764952D01*
X128952667Y-87574476D01*
X129000286Y-87479238D01*
X129095524Y-87384000D01*
X129238382Y-87336381D01*
X129333620Y-87336381D01*
X129476477Y-87384000D01*
X129524096Y-87431619D01*
X130524096Y-88241143D02*
X130476477Y-88288762D01*
X130333620Y-88336381D01*
X130238382Y-88336381D01*
X130095524Y-88288762D01*
X130000286Y-88193524D01*
X129952667Y-88098286D01*
X129905048Y-87907810D01*
X129905048Y-87764952D01*
X129952667Y-87574476D01*
X130000286Y-87479238D01*
X130095524Y-87384000D01*
X130238382Y-87336381D01*
X130333620Y-87336381D01*
X130476477Y-87384000D01*
X130524096Y-87431619D01*
X106338953Y-87987143D02*
X106291334Y-88034762D01*
X106148477Y-88082381D01*
X106053239Y-88082381D01*
X105910381Y-88034762D01*
X105815143Y-87939524D01*
X105767524Y-87844286D01*
X105719905Y-87653810D01*
X105719905Y-87510952D01*
X105767524Y-87320476D01*
X105815143Y-87225238D01*
X105910381Y-87130000D01*
X106053239Y-87082381D01*
X106148477Y-87082381D01*
X106291334Y-87130000D01*
X106338953Y-87177619D01*
X106910381Y-88082381D02*
X106815143Y-88034762D01*
X106767524Y-87987143D01*
X106719905Y-87891905D01*
X106719905Y-87606190D01*
X106767524Y-87510952D01*
X106815143Y-87463333D01*
X106910381Y-87415714D01*
X107053239Y-87415714D01*
X107148477Y-87463333D01*
X107196096Y-87510952D01*
X107243715Y-87606190D01*
X107243715Y-87891905D01*
X107196096Y-87987143D01*
X107148477Y-88034762D01*
X107053239Y-88082381D01*
X106910381Y-88082381D01*
X107672286Y-88082381D02*
X107672286Y-87415714D01*
X107672286Y-87082381D02*
X107624667Y-87130000D01*
X107672286Y-87177619D01*
X107719905Y-87130000D01*
X107672286Y-87082381D01*
X107672286Y-87177619D01*
X108291333Y-88082381D02*
X108196095Y-88034762D01*
X108148476Y-87939524D01*
X108148476Y-87082381D01*
X109386572Y-87177619D02*
X109434191Y-87130000D01*
X109529429Y-87082381D01*
X109767525Y-87082381D01*
X109862763Y-87130000D01*
X109910382Y-87177619D01*
X109958001Y-87272857D01*
X109958001Y-87368095D01*
X109910382Y-87510952D01*
X109338953Y-88082381D01*
X109958001Y-88082381D01*
X110386572Y-87701429D02*
X111148477Y-87701429D01*
X176276096Y-79764000D02*
X176180858Y-79716381D01*
X176038001Y-79716381D01*
X175895143Y-79764000D01*
X175799905Y-79859238D01*
X175752286Y-79954476D01*
X175704667Y-80144952D01*
X175704667Y-80287810D01*
X175752286Y-80478286D01*
X175799905Y-80573524D01*
X175895143Y-80668762D01*
X176038001Y-80716381D01*
X176133239Y-80716381D01*
X176276096Y-80668762D01*
X176323715Y-80621143D01*
X176323715Y-80287810D01*
X176133239Y-80287810D01*
X176752286Y-80716381D02*
X176752286Y-79716381D01*
X177323715Y-80716381D01*
X177323715Y-79716381D01*
X177799905Y-80716381D02*
X177799905Y-79716381D01*
X178038000Y-79716381D01*
X178180858Y-79764000D01*
X178276096Y-79859238D01*
X178323715Y-79954476D01*
X178371334Y-80144952D01*
X178371334Y-80287810D01*
X178323715Y-80478286D01*
X178276096Y-80573524D01*
X178180858Y-80668762D01*
X178038000Y-80716381D01*
X177799905Y-80716381D01*
X182562667Y-79716381D02*
X182896000Y-80716381D01*
X183229334Y-79716381D01*
X184134096Y-80621143D02*
X184086477Y-80668762D01*
X183943620Y-80716381D01*
X183848382Y-80716381D01*
X183705524Y-80668762D01*
X183610286Y-80573524D01*
X183562667Y-80478286D01*
X183515048Y-80287810D01*
X183515048Y-80144952D01*
X183562667Y-79954476D01*
X183610286Y-79859238D01*
X183705524Y-79764000D01*
X183848382Y-79716381D01*
X183943620Y-79716381D01*
X184086477Y-79764000D01*
X184134096Y-79811619D01*
X185134096Y-80621143D02*
X185086477Y-80668762D01*
X184943620Y-80716381D01*
X184848382Y-80716381D01*
X184705524Y-80668762D01*
X184610286Y-80573524D01*
X184562667Y-80478286D01*
X184515048Y-80287810D01*
X184515048Y-80144952D01*
X184562667Y-79954476D01*
X184610286Y-79859238D01*
X184705524Y-79764000D01*
X184848382Y-79716381D01*
X184943620Y-79716381D01*
X185086477Y-79764000D01*
X185134096Y-79811619D01*
M02*
