G04 #@! TF.FileFunction,Copper,L2,Bot,Signal*
%FSLAX46Y46*%
G04 Gerber Fmt 4.6, Leading zero omitted, Abs format (unit mm)*
G04 Created by KiCad (PCBNEW 4.0.1-stable) date 2016-05-02 8:22:51 PM*
%MOMM*%
G01*
G04 APERTURE LIST*
%ADD10C,0.100000*%
%ADD11C,0.150000*%
%ADD12C,1.998980*%
%ADD13R,1.998980X1.998980*%
%ADD14O,2.032000X2.540000*%
%ADD15O,1.600000X2.300000*%
%ADD16C,3.000000*%
%ADD17C,0.600000*%
%ADD18C,0.800000*%
%ADD19C,0.450000*%
%ADD20C,0.250000*%
%ADD21C,0.254000*%
G04 APERTURE END LIST*
D10*
D11*
X202184000Y-92710000D02*
X202184000Y-93472000D01*
X202184000Y-94234000D02*
X202184000Y-92710000D01*
X105156000Y-94234000D02*
X202184000Y-94234000D01*
X202184000Y-68072000D02*
X202184000Y-92964000D01*
X191008000Y-56896000D02*
X202184000Y-68072000D01*
X187706000Y-56896000D02*
X191008000Y-56896000D01*
X185420000Y-56896000D02*
X187706000Y-56896000D01*
X114808000Y-56896000D02*
X185420000Y-56896000D01*
X113792000Y-57912000D02*
X114808000Y-56896000D01*
X113284000Y-58420000D02*
X113792000Y-57912000D01*
X112014000Y-59690000D02*
X113284000Y-58420000D01*
X105156000Y-66548000D02*
X112014000Y-59690000D01*
X105156000Y-94234000D02*
X105156000Y-66548000D01*
D12*
X194056000Y-90421460D03*
D13*
X183896000Y-90421460D03*
D12*
X163576000Y-90426540D03*
D13*
X173736000Y-90426540D03*
D12*
X144526000Y-90421460D03*
D13*
X134366000Y-90421460D03*
D12*
X112776000Y-90426540D03*
D13*
X122936000Y-90426540D03*
D14*
X194056000Y-82804000D03*
X191516000Y-82804000D03*
X196596000Y-82804000D03*
X163576000Y-84074000D03*
X166116000Y-84074000D03*
X161036000Y-84074000D03*
X149606000Y-82804000D03*
X147066000Y-82804000D03*
X152146000Y-82804000D03*
X112776000Y-84074000D03*
X115316000Y-84074000D03*
X110236000Y-84074000D03*
D12*
X196596000Y-77724000D03*
X196596000Y-67564000D03*
X161036000Y-76454000D03*
X161036000Y-66294000D03*
X152146000Y-76454000D03*
X152146000Y-66294000D03*
X110236000Y-75184000D03*
X110236000Y-65024000D03*
D15*
X121666000Y-75184000D03*
X124206000Y-75184000D03*
X126746000Y-75184000D03*
X129286000Y-75184000D03*
X131826000Y-75184000D03*
X134366000Y-75184000D03*
X136906000Y-75184000D03*
X139446000Y-75184000D03*
X139446000Y-67564000D03*
X136906000Y-67564000D03*
X134366000Y-67564000D03*
X131826000Y-67564000D03*
X129286000Y-67564000D03*
X126746000Y-67564000D03*
X124206000Y-67564000D03*
X121666000Y-67564000D03*
X187706000Y-67564000D03*
X185166000Y-67564000D03*
X182626000Y-67564000D03*
X180086000Y-67564000D03*
X177546000Y-67564000D03*
X175006000Y-67564000D03*
X172466000Y-67564000D03*
X169926000Y-67564000D03*
X169926000Y-75184000D03*
X172466000Y-75184000D03*
X175006000Y-75184000D03*
X177546000Y-75184000D03*
X180086000Y-75184000D03*
X182626000Y-75184000D03*
X185166000Y-75184000D03*
X187706000Y-75184000D03*
D16*
X139446000Y-59944000D03*
X187706000Y-62484000D03*
X199136000Y-90424000D03*
X178816000Y-90424000D03*
X158496000Y-90424000D03*
X149606000Y-90424000D03*
X129286000Y-90424000D03*
X107696000Y-90424000D03*
X177038000Y-83820000D03*
X183896000Y-83566000D03*
D17*
X196088000Y-92710000D03*
X154178000Y-90932000D03*
X117856000Y-92710000D03*
X107442000Y-78740000D03*
X145542000Y-67310000D03*
X125984000Y-64008000D03*
X117348000Y-65024000D03*
X132334000Y-59944000D03*
X134620000Y-84328000D03*
X192532000Y-73152000D03*
X180594000Y-59944000D03*
X144526000Y-59944000D03*
X127508000Y-82550000D03*
X130048000Y-79248000D03*
X144272000Y-75184000D03*
X147066000Y-87884000D03*
X165862000Y-88138000D03*
X180086000Y-67564000D03*
X113792000Y-65024000D03*
X154432000Y-74676000D03*
X131826000Y-72644000D03*
X185166000Y-63754000D03*
X177546000Y-71374000D03*
X126746000Y-73406000D03*
X168148000Y-86868000D03*
X143002000Y-86868000D03*
X146050000Y-78232000D03*
X180340000Y-78740000D03*
X182626000Y-62992000D03*
X136906000Y-62992000D03*
X140208000Y-63754000D03*
X135890000Y-63754000D03*
X162052000Y-79756000D03*
X149860000Y-79502000D03*
X143002000Y-70612000D03*
X179324000Y-70612000D03*
D18*
X115316000Y-84074000D02*
X125984000Y-84074000D01*
X125984000Y-84074000D02*
X127508000Y-82550000D01*
X139446000Y-76708000D02*
X139446000Y-75184000D01*
X137414000Y-78740000D02*
X139446000Y-76708000D01*
X130556000Y-78740000D02*
X137414000Y-78740000D01*
X130048000Y-79248000D02*
X130556000Y-78740000D01*
X139446000Y-75184000D02*
X144272000Y-75184000D01*
X147066000Y-87884000D02*
X147320000Y-88138000D01*
X147320000Y-88138000D02*
X165862000Y-88138000D01*
X177038000Y-83820000D02*
X166370000Y-83820000D01*
X166370000Y-83820000D02*
X166116000Y-84074000D01*
X191516000Y-82804000D02*
X191516000Y-85344000D01*
X180594000Y-87376000D02*
X177038000Y-83820000D01*
X189484000Y-87376000D02*
X180594000Y-87376000D01*
X191516000Y-85344000D02*
X189484000Y-87376000D01*
X185166000Y-75184000D02*
X185166000Y-76454000D01*
X185166000Y-76454000D02*
X191516000Y-82804000D01*
X169926000Y-67564000D02*
X169926000Y-67818000D01*
X169926000Y-67818000D02*
X171704000Y-69596000D01*
X171704000Y-69596000D02*
X182372000Y-69596000D01*
X182372000Y-69596000D02*
X185166000Y-72390000D01*
X185166000Y-72390000D02*
X185166000Y-75184000D01*
D19*
X113792000Y-74422000D02*
X113792000Y-65024000D01*
X120142000Y-80772000D02*
X113792000Y-74422000D01*
X140970000Y-80772000D02*
X120142000Y-80772000D01*
X147066000Y-74676000D02*
X140970000Y-80772000D01*
X154432000Y-74676000D02*
X147066000Y-74676000D01*
X140716000Y-71374000D02*
X133096000Y-71374000D01*
X185166000Y-63754000D02*
X144526000Y-63754000D01*
X144526000Y-63754000D02*
X141986000Y-66294000D01*
X141986000Y-66294000D02*
X141986000Y-70104000D01*
X141986000Y-70104000D02*
X140716000Y-71374000D01*
X133096000Y-71374000D02*
X131826000Y-72644000D01*
D20*
X131826000Y-72644000D02*
X133096000Y-71374000D01*
X140716000Y-71374000D02*
X141986000Y-70104000D01*
D19*
X175514000Y-73406000D02*
X126746000Y-73406000D01*
X177546000Y-71374000D02*
X175514000Y-73406000D01*
X168148000Y-86868000D02*
X143002000Y-86868000D01*
X179832000Y-78232000D02*
X146050000Y-78232000D01*
X180340000Y-78740000D02*
X179832000Y-78232000D01*
X182626000Y-62992000D02*
X136906000Y-62992000D01*
D20*
X140208000Y-63754000D02*
X136144000Y-63754000D01*
X136144000Y-63754000D02*
X135890000Y-63754000D01*
D19*
X162052000Y-79756000D02*
X150114000Y-79756000D01*
X150114000Y-79756000D02*
X149860000Y-79502000D01*
D20*
X149860000Y-79502000D02*
X150114000Y-79756000D01*
D19*
X178308000Y-70612000D02*
X179324000Y-70612000D01*
X178308000Y-70612000D02*
X143002000Y-70612000D01*
D18*
X134366000Y-90421460D02*
X134368540Y-90421460D01*
X134368540Y-90421460D02*
X139446000Y-85344000D01*
X181864000Y-81534000D02*
X183896000Y-83566000D01*
X160528000Y-81534000D02*
X181864000Y-81534000D01*
X156718000Y-85344000D02*
X160528000Y-81534000D01*
X139446000Y-85344000D02*
X156718000Y-85344000D01*
D21*
G36*
X201474000Y-68366092D02*
X201474000Y-93524000D01*
X105866000Y-93524000D01*
X105866000Y-91585865D01*
X105884980Y-91631800D01*
X106485041Y-92232909D01*
X107269459Y-92558628D01*
X108118815Y-92559370D01*
X108903800Y-92235020D01*
X109504909Y-91634959D01*
X109830628Y-90850541D01*
X109830715Y-90750234D01*
X111141226Y-90750234D01*
X111389538Y-91351195D01*
X111848927Y-91811386D01*
X112449453Y-92060746D01*
X113099694Y-92061314D01*
X113700655Y-91813002D01*
X114160846Y-91353613D01*
X114410206Y-90753087D01*
X114410774Y-90102846D01*
X114162462Y-89501885D01*
X114087758Y-89427050D01*
X121289070Y-89427050D01*
X121289070Y-91426030D01*
X121333348Y-91661347D01*
X121472420Y-91877471D01*
X121684620Y-92022461D01*
X121936510Y-92073470D01*
X123935490Y-92073470D01*
X124170807Y-92029192D01*
X124386931Y-91890120D01*
X124531921Y-91677920D01*
X124582930Y-91426030D01*
X124582930Y-90846815D01*
X127150630Y-90846815D01*
X127474980Y-91631800D01*
X128075041Y-92232909D01*
X128859459Y-92558628D01*
X129708815Y-92559370D01*
X130493800Y-92235020D01*
X131094909Y-91634959D01*
X131420628Y-90850541D01*
X131421370Y-90001185D01*
X131097020Y-89216200D01*
X130496959Y-88615091D01*
X129712541Y-88289372D01*
X128863185Y-88288630D01*
X128078200Y-88612980D01*
X127477091Y-89213041D01*
X127151372Y-89997459D01*
X127150630Y-90846815D01*
X124582930Y-90846815D01*
X124582930Y-89427050D01*
X124538652Y-89191733D01*
X124399580Y-88975609D01*
X124187380Y-88830619D01*
X123935490Y-88779610D01*
X121936510Y-88779610D01*
X121701193Y-88823888D01*
X121485069Y-88962960D01*
X121340079Y-89175160D01*
X121289070Y-89427050D01*
X114087758Y-89427050D01*
X113703073Y-89041694D01*
X113102547Y-88792334D01*
X112452306Y-88791766D01*
X111851345Y-89040078D01*
X111391154Y-89499467D01*
X111141794Y-90099993D01*
X111141226Y-90750234D01*
X109830715Y-90750234D01*
X109831370Y-90001185D01*
X109507020Y-89216200D01*
X108906959Y-88615091D01*
X108122541Y-88289372D01*
X107273185Y-88288630D01*
X106488200Y-88612980D01*
X105887091Y-89213041D01*
X105866000Y-89263834D01*
X105866000Y-83782679D01*
X108585000Y-83782679D01*
X108585000Y-84365321D01*
X108710675Y-84997131D01*
X109068567Y-85532754D01*
X109604190Y-85890646D01*
X110236000Y-86016321D01*
X110867810Y-85890646D01*
X111403433Y-85532754D01*
X111506000Y-85379252D01*
X111608567Y-85532754D01*
X112144190Y-85890646D01*
X112776000Y-86016321D01*
X113407810Y-85890646D01*
X113943433Y-85532754D01*
X114060054Y-85358219D01*
X114238370Y-85585236D01*
X114801523Y-85901926D01*
X114933056Y-85933975D01*
X115189000Y-85814836D01*
X115189000Y-84201000D01*
X115443000Y-84201000D01*
X115443000Y-85814836D01*
X115698944Y-85933975D01*
X115830477Y-85901926D01*
X116393630Y-85585236D01*
X116792724Y-85077143D01*
X116967000Y-84455000D01*
X116967000Y-84201000D01*
X115443000Y-84201000D01*
X115189000Y-84201000D01*
X115169000Y-84201000D01*
X115169000Y-83947000D01*
X115189000Y-83947000D01*
X115189000Y-82333164D01*
X115443000Y-82333164D01*
X115443000Y-83947000D01*
X116967000Y-83947000D01*
X116967000Y-83693000D01*
X116792724Y-83070857D01*
X116393630Y-82562764D01*
X116145096Y-82423000D01*
X145415000Y-82423000D01*
X145415000Y-82677000D01*
X146939000Y-82677000D01*
X146939000Y-81063164D01*
X146683056Y-80944025D01*
X146551523Y-80976074D01*
X145988370Y-81292764D01*
X145589276Y-81800857D01*
X145415000Y-82423000D01*
X116145096Y-82423000D01*
X115830477Y-82246074D01*
X115698944Y-82214025D01*
X115443000Y-82333164D01*
X115189000Y-82333164D01*
X114933056Y-82214025D01*
X114801523Y-82246074D01*
X114238370Y-82562764D01*
X114060054Y-82789781D01*
X113943433Y-82615246D01*
X113407810Y-82257354D01*
X112776000Y-82131679D01*
X112144190Y-82257354D01*
X111608567Y-82615246D01*
X111506000Y-82768748D01*
X111403433Y-82615246D01*
X110867810Y-82257354D01*
X110236000Y-82131679D01*
X109604190Y-82257354D01*
X109068567Y-82615246D01*
X108710675Y-83150869D01*
X108585000Y-83782679D01*
X105866000Y-83782679D01*
X105866000Y-75507694D01*
X108601226Y-75507694D01*
X108849538Y-76108655D01*
X109308927Y-76568846D01*
X109909453Y-76818206D01*
X110559694Y-76818774D01*
X111160655Y-76570462D01*
X111620846Y-76111073D01*
X111870206Y-75510547D01*
X111870774Y-74860306D01*
X111622462Y-74259345D01*
X111163073Y-73799154D01*
X110562547Y-73549794D01*
X109912306Y-73549226D01*
X109311345Y-73797538D01*
X108851154Y-74256927D01*
X108601794Y-74857453D01*
X108601226Y-75507694D01*
X105866000Y-75507694D01*
X105866000Y-66842092D01*
X107360398Y-65347694D01*
X108601226Y-65347694D01*
X108849538Y-65948655D01*
X109308927Y-66408846D01*
X109909453Y-66658206D01*
X110559694Y-66658774D01*
X111160655Y-66410462D01*
X111620846Y-65951073D01*
X111870206Y-65350547D01*
X111870329Y-65209167D01*
X112856838Y-65209167D01*
X112932000Y-65391073D01*
X112932000Y-74422000D01*
X112997464Y-74751108D01*
X113167180Y-75005107D01*
X113183888Y-75030112D01*
X119533888Y-81380112D01*
X119812892Y-81566536D01*
X120142000Y-81632000D01*
X140970000Y-81632000D01*
X141299108Y-81566536D01*
X141578112Y-81380112D01*
X147422224Y-75536000D01*
X150757387Y-75536000D01*
X150511794Y-76127453D01*
X150511226Y-76777694D01*
X150756788Y-77372000D01*
X146417028Y-77372000D01*
X146236799Y-77297162D01*
X145864833Y-77296838D01*
X145521057Y-77438883D01*
X145257808Y-77701673D01*
X145115162Y-78045201D01*
X145114838Y-78417167D01*
X145256883Y-78760943D01*
X145519673Y-79024192D01*
X145863201Y-79166838D01*
X146235167Y-79167162D01*
X146417073Y-79092000D01*
X149017844Y-79092000D01*
X148925162Y-79315201D01*
X148924838Y-79687167D01*
X149066883Y-80030943D01*
X149329673Y-80294192D01*
X149518742Y-80372701D01*
X149784892Y-80550536D01*
X150114000Y-80616000D01*
X160074730Y-80616000D01*
X159796144Y-80802144D01*
X159796142Y-80802147D01*
X156289288Y-84309000D01*
X153244221Y-84309000D01*
X153313433Y-84262754D01*
X153671325Y-83727131D01*
X153797000Y-83095321D01*
X153797000Y-82512679D01*
X153671325Y-81880869D01*
X153313433Y-81345246D01*
X152777810Y-80987354D01*
X152146000Y-80861679D01*
X151514190Y-80987354D01*
X150978567Y-81345246D01*
X150876000Y-81498748D01*
X150773433Y-81345246D01*
X150237810Y-80987354D01*
X149606000Y-80861679D01*
X148974190Y-80987354D01*
X148438567Y-81345246D01*
X148321946Y-81519781D01*
X148143630Y-81292764D01*
X147580477Y-80976074D01*
X147448944Y-80944025D01*
X147193000Y-81063164D01*
X147193000Y-82677000D01*
X147213000Y-82677000D01*
X147213000Y-82931000D01*
X147193000Y-82931000D01*
X147193000Y-82951000D01*
X146939000Y-82951000D01*
X146939000Y-82931000D01*
X145415000Y-82931000D01*
X145415000Y-83185000D01*
X145589276Y-83807143D01*
X145983472Y-84309000D01*
X139446005Y-84309000D01*
X139446000Y-84308999D01*
X139049923Y-84387785D01*
X138714144Y-84612144D01*
X138714142Y-84612147D01*
X134551758Y-88774530D01*
X133366510Y-88774530D01*
X133131193Y-88818808D01*
X132915069Y-88957880D01*
X132770079Y-89170080D01*
X132719070Y-89421970D01*
X132719070Y-91420950D01*
X132763348Y-91656267D01*
X132902420Y-91872391D01*
X133114620Y-92017381D01*
X133366510Y-92068390D01*
X135365490Y-92068390D01*
X135600807Y-92024112D01*
X135816931Y-91885040D01*
X135961921Y-91672840D01*
X136012930Y-91420950D01*
X136012930Y-90745154D01*
X142891226Y-90745154D01*
X143139538Y-91346115D01*
X143598927Y-91806306D01*
X144199453Y-92055666D01*
X144849694Y-92056234D01*
X145450655Y-91807922D01*
X145910846Y-91348533D01*
X146119177Y-90846815D01*
X147470630Y-90846815D01*
X147794980Y-91631800D01*
X148395041Y-92232909D01*
X149179459Y-92558628D01*
X150028815Y-92559370D01*
X150813800Y-92235020D01*
X151414909Y-91634959D01*
X151740628Y-90850541D01*
X151740631Y-90846815D01*
X156360630Y-90846815D01*
X156684980Y-91631800D01*
X157285041Y-92232909D01*
X158069459Y-92558628D01*
X158918815Y-92559370D01*
X159703800Y-92235020D01*
X160304909Y-91634959D01*
X160630628Y-90850541D01*
X160630715Y-90750234D01*
X161941226Y-90750234D01*
X162189538Y-91351195D01*
X162648927Y-91811386D01*
X163249453Y-92060746D01*
X163899694Y-92061314D01*
X164500655Y-91813002D01*
X164960846Y-91353613D01*
X165210206Y-90753087D01*
X165210774Y-90102846D01*
X164962462Y-89501885D01*
X164887758Y-89427050D01*
X172089070Y-89427050D01*
X172089070Y-91426030D01*
X172133348Y-91661347D01*
X172272420Y-91877471D01*
X172484620Y-92022461D01*
X172736510Y-92073470D01*
X174735490Y-92073470D01*
X174970807Y-92029192D01*
X175186931Y-91890120D01*
X175331921Y-91677920D01*
X175382930Y-91426030D01*
X175382930Y-90846815D01*
X176680630Y-90846815D01*
X177004980Y-91631800D01*
X177605041Y-92232909D01*
X178389459Y-92558628D01*
X179238815Y-92559370D01*
X180023800Y-92235020D01*
X180624909Y-91634959D01*
X180950628Y-90850541D01*
X180951370Y-90001185D01*
X180712043Y-89421970D01*
X182249070Y-89421970D01*
X182249070Y-91420950D01*
X182293348Y-91656267D01*
X182432420Y-91872391D01*
X182644620Y-92017381D01*
X182896510Y-92068390D01*
X184895490Y-92068390D01*
X185130807Y-92024112D01*
X185346931Y-91885040D01*
X185491921Y-91672840D01*
X185542930Y-91420950D01*
X185542930Y-90745154D01*
X192421226Y-90745154D01*
X192669538Y-91346115D01*
X193128927Y-91806306D01*
X193729453Y-92055666D01*
X194379694Y-92056234D01*
X194980655Y-91807922D01*
X195440846Y-91348533D01*
X195649177Y-90846815D01*
X197000630Y-90846815D01*
X197324980Y-91631800D01*
X197925041Y-92232909D01*
X198709459Y-92558628D01*
X199558815Y-92559370D01*
X200343800Y-92235020D01*
X200944909Y-91634959D01*
X201270628Y-90850541D01*
X201271370Y-90001185D01*
X200947020Y-89216200D01*
X200346959Y-88615091D01*
X199562541Y-88289372D01*
X198713185Y-88288630D01*
X197928200Y-88612980D01*
X197327091Y-89213041D01*
X197001372Y-89997459D01*
X197000630Y-90846815D01*
X195649177Y-90846815D01*
X195690206Y-90748007D01*
X195690774Y-90097766D01*
X195442462Y-89496805D01*
X194983073Y-89036614D01*
X194382547Y-88787254D01*
X193732306Y-88786686D01*
X193131345Y-89034998D01*
X192671154Y-89494387D01*
X192421794Y-90094913D01*
X192421226Y-90745154D01*
X185542930Y-90745154D01*
X185542930Y-89421970D01*
X185498652Y-89186653D01*
X185359580Y-88970529D01*
X185147380Y-88825539D01*
X184895490Y-88774530D01*
X182896510Y-88774530D01*
X182661193Y-88818808D01*
X182445069Y-88957880D01*
X182300079Y-89170080D01*
X182249070Y-89421970D01*
X180712043Y-89421970D01*
X180627020Y-89216200D01*
X180026959Y-88615091D01*
X179242541Y-88289372D01*
X178393185Y-88288630D01*
X177608200Y-88612980D01*
X177007091Y-89213041D01*
X176681372Y-89997459D01*
X176680630Y-90846815D01*
X175382930Y-90846815D01*
X175382930Y-89427050D01*
X175338652Y-89191733D01*
X175199580Y-88975609D01*
X174987380Y-88830619D01*
X174735490Y-88779610D01*
X172736510Y-88779610D01*
X172501193Y-88823888D01*
X172285069Y-88962960D01*
X172140079Y-89175160D01*
X172089070Y-89427050D01*
X164887758Y-89427050D01*
X164503073Y-89041694D01*
X163902547Y-88792334D01*
X163252306Y-88791766D01*
X162651345Y-89040078D01*
X162191154Y-89499467D01*
X161941794Y-90099993D01*
X161941226Y-90750234D01*
X160630715Y-90750234D01*
X160631370Y-90001185D01*
X160307020Y-89216200D01*
X159706959Y-88615091D01*
X158922541Y-88289372D01*
X158073185Y-88288630D01*
X157288200Y-88612980D01*
X156687091Y-89213041D01*
X156361372Y-89997459D01*
X156360630Y-90846815D01*
X151740631Y-90846815D01*
X151741370Y-90001185D01*
X151417020Y-89216200D01*
X150816959Y-88615091D01*
X150032541Y-88289372D01*
X149183185Y-88288630D01*
X148398200Y-88612980D01*
X147797091Y-89213041D01*
X147471372Y-89997459D01*
X147470630Y-90846815D01*
X146119177Y-90846815D01*
X146160206Y-90748007D01*
X146160774Y-90097766D01*
X145912462Y-89496805D01*
X145453073Y-89036614D01*
X144852547Y-88787254D01*
X144202306Y-88786686D01*
X143601345Y-89034998D01*
X143141154Y-89494387D01*
X142891794Y-90094913D01*
X142891226Y-90745154D01*
X136012930Y-90745154D01*
X136012930Y-90240782D01*
X139874711Y-86379000D01*
X142192647Y-86379000D01*
X142067162Y-86681201D01*
X142066838Y-87053167D01*
X142208883Y-87396943D01*
X142471673Y-87660192D01*
X142815201Y-87802838D01*
X143187167Y-87803162D01*
X143369073Y-87728000D01*
X167780972Y-87728000D01*
X167961201Y-87802838D01*
X168333167Y-87803162D01*
X168676943Y-87661117D01*
X168940192Y-87398327D01*
X169082838Y-87054799D01*
X169083162Y-86682833D01*
X168941117Y-86339057D01*
X168678327Y-86075808D01*
X168334799Y-85933162D01*
X167962833Y-85932838D01*
X167780927Y-86008000D01*
X163617832Y-86008000D01*
X164207810Y-85890646D01*
X164743433Y-85532754D01*
X164860054Y-85358219D01*
X165038370Y-85585236D01*
X165601523Y-85901926D01*
X165733056Y-85933975D01*
X165989000Y-85814836D01*
X165989000Y-84201000D01*
X166243000Y-84201000D01*
X166243000Y-85814836D01*
X166498944Y-85933975D01*
X166630477Y-85901926D01*
X167193630Y-85585236D01*
X167390992Y-85333970D01*
X175703635Y-85333970D01*
X175863418Y-85652739D01*
X176654187Y-85962723D01*
X177503387Y-85946497D01*
X178212582Y-85652739D01*
X178372365Y-85333970D01*
X177038000Y-83999605D01*
X175703635Y-85333970D01*
X167390992Y-85333970D01*
X167592724Y-85077143D01*
X167767000Y-84455000D01*
X167767000Y-84201000D01*
X166243000Y-84201000D01*
X165989000Y-84201000D01*
X165969000Y-84201000D01*
X165969000Y-83947000D01*
X165989000Y-83947000D01*
X165989000Y-83927000D01*
X166243000Y-83927000D01*
X166243000Y-83947000D01*
X167767000Y-83947000D01*
X167767000Y-83693000D01*
X167592724Y-83070857D01*
X167198528Y-82569000D01*
X175357716Y-82569000D01*
X175205261Y-82645418D01*
X174895277Y-83436187D01*
X174911503Y-84285387D01*
X175205261Y-84994582D01*
X175524030Y-85154365D01*
X176858395Y-83820000D01*
X176844253Y-83805858D01*
X177023858Y-83626253D01*
X177038000Y-83640395D01*
X177052143Y-83626253D01*
X177231748Y-83805858D01*
X177217605Y-83820000D01*
X178551970Y-85154365D01*
X178870739Y-84994582D01*
X179180723Y-84203813D01*
X179164497Y-83354613D01*
X178870739Y-82645418D01*
X178718284Y-82569000D01*
X181435288Y-82569000D01*
X181833073Y-82966784D01*
X181761372Y-83139459D01*
X181760630Y-83988815D01*
X182084980Y-84773800D01*
X182685041Y-85374909D01*
X183469459Y-85700628D01*
X184318815Y-85701370D01*
X185103800Y-85377020D01*
X185704909Y-84776959D01*
X186030628Y-83992541D01*
X186031370Y-83143185D01*
X185943697Y-82931000D01*
X189865000Y-82931000D01*
X189865000Y-83185000D01*
X190039276Y-83807143D01*
X190438370Y-84315236D01*
X191001523Y-84631926D01*
X191133056Y-84663975D01*
X191389000Y-84544836D01*
X191389000Y-82931000D01*
X189865000Y-82931000D01*
X185943697Y-82931000D01*
X185733795Y-82423000D01*
X189865000Y-82423000D01*
X189865000Y-82677000D01*
X191389000Y-82677000D01*
X191389000Y-81063164D01*
X191643000Y-81063164D01*
X191643000Y-82677000D01*
X191663000Y-82677000D01*
X191663000Y-82931000D01*
X191643000Y-82931000D01*
X191643000Y-84544836D01*
X191898944Y-84663975D01*
X192030477Y-84631926D01*
X192593630Y-84315236D01*
X192771946Y-84088219D01*
X192888567Y-84262754D01*
X193424190Y-84620646D01*
X194056000Y-84746321D01*
X194687810Y-84620646D01*
X195223433Y-84262754D01*
X195326000Y-84109252D01*
X195428567Y-84262754D01*
X195964190Y-84620646D01*
X196596000Y-84746321D01*
X197227810Y-84620646D01*
X197763433Y-84262754D01*
X198121325Y-83727131D01*
X198247000Y-83095321D01*
X198247000Y-82512679D01*
X198121325Y-81880869D01*
X197763433Y-81345246D01*
X197227810Y-80987354D01*
X196596000Y-80861679D01*
X195964190Y-80987354D01*
X195428567Y-81345246D01*
X195326000Y-81498748D01*
X195223433Y-81345246D01*
X194687810Y-80987354D01*
X194056000Y-80861679D01*
X193424190Y-80987354D01*
X192888567Y-81345246D01*
X192771946Y-81519781D01*
X192593630Y-81292764D01*
X192030477Y-80976074D01*
X191898944Y-80944025D01*
X191643000Y-81063164D01*
X191389000Y-81063164D01*
X191133056Y-80944025D01*
X191001523Y-80976074D01*
X190438370Y-81292764D01*
X190039276Y-81800857D01*
X189865000Y-82423000D01*
X185733795Y-82423000D01*
X185707020Y-82358200D01*
X185106959Y-81757091D01*
X184322541Y-81431372D01*
X183473185Y-81430630D01*
X183297099Y-81503387D01*
X182595856Y-80802144D01*
X182260077Y-80577785D01*
X181864000Y-80498999D01*
X181863995Y-80499000D01*
X162631148Y-80499000D01*
X162844192Y-80286327D01*
X162986838Y-79942799D01*
X162987162Y-79570833D01*
X162845117Y-79227057D01*
X162710295Y-79092000D01*
X179473772Y-79092000D01*
X179546883Y-79268943D01*
X179809673Y-79532192D01*
X180153201Y-79674838D01*
X180525167Y-79675162D01*
X180868943Y-79533117D01*
X181132192Y-79270327D01*
X181274838Y-78926799D01*
X181275162Y-78554833D01*
X181133117Y-78211057D01*
X180970039Y-78047694D01*
X194961226Y-78047694D01*
X195209538Y-78648655D01*
X195668927Y-79108846D01*
X196269453Y-79358206D01*
X196919694Y-79358774D01*
X197520655Y-79110462D01*
X197980846Y-78651073D01*
X198230206Y-78050547D01*
X198230774Y-77400306D01*
X197982462Y-76799345D01*
X197523073Y-76339154D01*
X196922547Y-76089794D01*
X196272306Y-76089226D01*
X195671345Y-76337538D01*
X195211154Y-76796927D01*
X194961794Y-77397453D01*
X194961226Y-78047694D01*
X180970039Y-78047694D01*
X180870327Y-77947808D01*
X180688551Y-77872328D01*
X180440112Y-77623888D01*
X180161108Y-77437464D01*
X179832000Y-77372000D01*
X162424613Y-77372000D01*
X162670206Y-76780547D01*
X162670774Y-76130306D01*
X162422462Y-75529345D01*
X161963073Y-75069154D01*
X161362547Y-74819794D01*
X160712306Y-74819226D01*
X160111345Y-75067538D01*
X159651154Y-75526927D01*
X159401794Y-76127453D01*
X159401226Y-76777694D01*
X159646788Y-77372000D01*
X153534613Y-77372000D01*
X153780206Y-76780547D01*
X153780774Y-76130306D01*
X153535212Y-75536000D01*
X154064972Y-75536000D01*
X154245201Y-75610838D01*
X154617167Y-75611162D01*
X154960943Y-75469117D01*
X155224192Y-75206327D01*
X155366838Y-74862799D01*
X155367162Y-74490833D01*
X155274263Y-74266000D01*
X168597026Y-74266000D01*
X168491000Y-74799030D01*
X168491000Y-75568970D01*
X168600233Y-76118121D01*
X168911302Y-76583668D01*
X169376849Y-76894737D01*
X169926000Y-77003970D01*
X170475151Y-76894737D01*
X170940698Y-76583668D01*
X171196000Y-76201582D01*
X171451302Y-76583668D01*
X171916849Y-76894737D01*
X172466000Y-77003970D01*
X173015151Y-76894737D01*
X173480698Y-76583668D01*
X173736000Y-76201582D01*
X173991302Y-76583668D01*
X174456849Y-76894737D01*
X175006000Y-77003970D01*
X175555151Y-76894737D01*
X176020698Y-76583668D01*
X176276000Y-76201582D01*
X176531302Y-76583668D01*
X176996849Y-76894737D01*
X177546000Y-77003970D01*
X178095151Y-76894737D01*
X178560698Y-76583668D01*
X178816000Y-76201582D01*
X179071302Y-76583668D01*
X179536849Y-76894737D01*
X180086000Y-77003970D01*
X180635151Y-76894737D01*
X181100698Y-76583668D01*
X181356000Y-76201582D01*
X181611302Y-76583668D01*
X182076849Y-76894737D01*
X182626000Y-77003970D01*
X183175151Y-76894737D01*
X183640698Y-76583668D01*
X183893149Y-76205849D01*
X184241104Y-76638500D01*
X184734181Y-76908367D01*
X184816961Y-76925904D01*
X185039000Y-76803915D01*
X185039000Y-75311000D01*
X185019000Y-75311000D01*
X185019000Y-75057000D01*
X185039000Y-75057000D01*
X185039000Y-73564085D01*
X185293000Y-73564085D01*
X185293000Y-75057000D01*
X185313000Y-75057000D01*
X185313000Y-75311000D01*
X185293000Y-75311000D01*
X185293000Y-76803915D01*
X185515039Y-76925904D01*
X185597819Y-76908367D01*
X186090896Y-76638500D01*
X186438851Y-76205849D01*
X186691302Y-76583668D01*
X187156849Y-76894737D01*
X187706000Y-77003970D01*
X188255151Y-76894737D01*
X188720698Y-76583668D01*
X189031767Y-76118121D01*
X189141000Y-75568970D01*
X189141000Y-74799030D01*
X189031767Y-74249879D01*
X188720698Y-73784332D01*
X188255151Y-73473263D01*
X187706000Y-73364030D01*
X187156849Y-73473263D01*
X186691302Y-73784332D01*
X186438851Y-74162151D01*
X186090896Y-73729500D01*
X185597819Y-73459633D01*
X185515039Y-73442096D01*
X185293000Y-73564085D01*
X185039000Y-73564085D01*
X184816961Y-73442096D01*
X184734181Y-73459633D01*
X184241104Y-73729500D01*
X183893149Y-74162151D01*
X183640698Y-73784332D01*
X183175151Y-73473263D01*
X182626000Y-73364030D01*
X182076849Y-73473263D01*
X181611302Y-73784332D01*
X181356000Y-74166418D01*
X181100698Y-73784332D01*
X180635151Y-73473263D01*
X180086000Y-73364030D01*
X179536849Y-73473263D01*
X179071302Y-73784332D01*
X178816000Y-74166418D01*
X178560698Y-73784332D01*
X178095151Y-73473263D01*
X177546000Y-73364030D01*
X176996849Y-73473263D01*
X176531302Y-73784332D01*
X176276000Y-74166418D01*
X176153356Y-73982868D01*
X177894585Y-72241639D01*
X178074943Y-72167117D01*
X178338192Y-71904327D01*
X178480838Y-71560799D01*
X178480915Y-71472000D01*
X178956972Y-71472000D01*
X179137201Y-71546838D01*
X179509167Y-71547162D01*
X179852943Y-71405117D01*
X180116192Y-71142327D01*
X180258838Y-70798799D01*
X180259162Y-70426833D01*
X180117117Y-70083057D01*
X179854327Y-69819808D01*
X179510799Y-69677162D01*
X179138833Y-69676838D01*
X178956927Y-69752000D01*
X143369028Y-69752000D01*
X143188799Y-69677162D01*
X142846000Y-69676863D01*
X142846000Y-66650224D01*
X142878530Y-66617694D01*
X150511226Y-66617694D01*
X150759538Y-67218655D01*
X151218927Y-67678846D01*
X151819453Y-67928206D01*
X152469694Y-67928774D01*
X153070655Y-67680462D01*
X153530846Y-67221073D01*
X153780206Y-66620547D01*
X153780208Y-66617694D01*
X159401226Y-66617694D01*
X159649538Y-67218655D01*
X160108927Y-67678846D01*
X160709453Y-67928206D01*
X161359694Y-67928774D01*
X161935151Y-67691000D01*
X168491000Y-67691000D01*
X168491000Y-68041000D01*
X168648834Y-68580483D01*
X169001104Y-69018500D01*
X169494181Y-69288367D01*
X169576961Y-69305904D01*
X169799000Y-69183915D01*
X169799000Y-67691000D01*
X168491000Y-67691000D01*
X161935151Y-67691000D01*
X161960655Y-67680462D01*
X162420846Y-67221073D01*
X162476517Y-67087000D01*
X168491000Y-67087000D01*
X168491000Y-67437000D01*
X169799000Y-67437000D01*
X169799000Y-65944085D01*
X170053000Y-65944085D01*
X170053000Y-67437000D01*
X170073000Y-67437000D01*
X170073000Y-67691000D01*
X170053000Y-67691000D01*
X170053000Y-69183915D01*
X170275039Y-69305904D01*
X170357819Y-69288367D01*
X170850896Y-69018500D01*
X171198851Y-68585849D01*
X171451302Y-68963668D01*
X171916849Y-69274737D01*
X172466000Y-69383970D01*
X173015151Y-69274737D01*
X173480698Y-68963668D01*
X173736000Y-68581582D01*
X173991302Y-68963668D01*
X174456849Y-69274737D01*
X175006000Y-69383970D01*
X175555151Y-69274737D01*
X176020698Y-68963668D01*
X176276000Y-68581582D01*
X176531302Y-68963668D01*
X176996849Y-69274737D01*
X177546000Y-69383970D01*
X178095151Y-69274737D01*
X178560698Y-68963668D01*
X178816000Y-68581582D01*
X179071302Y-68963668D01*
X179536849Y-69274737D01*
X180086000Y-69383970D01*
X180635151Y-69274737D01*
X181100698Y-68963668D01*
X181356000Y-68581582D01*
X181611302Y-68963668D01*
X182076849Y-69274737D01*
X182626000Y-69383970D01*
X183175151Y-69274737D01*
X183640698Y-68963668D01*
X183896000Y-68581582D01*
X184151302Y-68963668D01*
X184616849Y-69274737D01*
X185166000Y-69383970D01*
X185715151Y-69274737D01*
X186180698Y-68963668D01*
X186436000Y-68581582D01*
X186691302Y-68963668D01*
X187156849Y-69274737D01*
X187706000Y-69383970D01*
X188255151Y-69274737D01*
X188720698Y-68963668D01*
X189031767Y-68498121D01*
X189141000Y-67948970D01*
X189141000Y-67887694D01*
X194961226Y-67887694D01*
X195209538Y-68488655D01*
X195668927Y-68948846D01*
X196269453Y-69198206D01*
X196919694Y-69198774D01*
X197520655Y-68950462D01*
X197980846Y-68491073D01*
X198230206Y-67890547D01*
X198230774Y-67240306D01*
X197982462Y-66639345D01*
X197523073Y-66179154D01*
X196922547Y-65929794D01*
X196272306Y-65929226D01*
X195671345Y-66177538D01*
X195211154Y-66636927D01*
X194961794Y-67237453D01*
X194961226Y-67887694D01*
X189141000Y-67887694D01*
X189141000Y-67179030D01*
X189031767Y-66629879D01*
X188720698Y-66164332D01*
X188255151Y-65853263D01*
X187706000Y-65744030D01*
X187156849Y-65853263D01*
X186691302Y-66164332D01*
X186436000Y-66546418D01*
X186180698Y-66164332D01*
X185715151Y-65853263D01*
X185166000Y-65744030D01*
X184616849Y-65853263D01*
X184151302Y-66164332D01*
X183896000Y-66546418D01*
X183640698Y-66164332D01*
X183175151Y-65853263D01*
X182626000Y-65744030D01*
X182076849Y-65853263D01*
X181611302Y-66164332D01*
X181356000Y-66546418D01*
X181100698Y-66164332D01*
X180635151Y-65853263D01*
X180086000Y-65744030D01*
X179536849Y-65853263D01*
X179071302Y-66164332D01*
X178816000Y-66546418D01*
X178560698Y-66164332D01*
X178095151Y-65853263D01*
X177546000Y-65744030D01*
X176996849Y-65853263D01*
X176531302Y-66164332D01*
X176276000Y-66546418D01*
X176020698Y-66164332D01*
X175555151Y-65853263D01*
X175006000Y-65744030D01*
X174456849Y-65853263D01*
X173991302Y-66164332D01*
X173736000Y-66546418D01*
X173480698Y-66164332D01*
X173015151Y-65853263D01*
X172466000Y-65744030D01*
X171916849Y-65853263D01*
X171451302Y-66164332D01*
X171198851Y-66542151D01*
X170850896Y-66109500D01*
X170357819Y-65839633D01*
X170275039Y-65822096D01*
X170053000Y-65944085D01*
X169799000Y-65944085D01*
X169576961Y-65822096D01*
X169494181Y-65839633D01*
X169001104Y-66109500D01*
X168648834Y-66547517D01*
X168491000Y-67087000D01*
X162476517Y-67087000D01*
X162670206Y-66620547D01*
X162670774Y-65970306D01*
X162422462Y-65369345D01*
X161963073Y-64909154D01*
X161362547Y-64659794D01*
X160712306Y-64659226D01*
X160111345Y-64907538D01*
X159651154Y-65366927D01*
X159401794Y-65967453D01*
X159401226Y-66617694D01*
X153780208Y-66617694D01*
X153780774Y-65970306D01*
X153532462Y-65369345D01*
X153073073Y-64909154D01*
X152472547Y-64659794D01*
X151822306Y-64659226D01*
X151221345Y-64907538D01*
X150761154Y-65366927D01*
X150511794Y-65967453D01*
X150511226Y-66617694D01*
X142878530Y-66617694D01*
X144882224Y-64614000D01*
X184798972Y-64614000D01*
X184979201Y-64688838D01*
X185351167Y-64689162D01*
X185694943Y-64547117D01*
X185958192Y-64284327D01*
X186100838Y-63940799D01*
X186100875Y-63898055D01*
X186495041Y-64292909D01*
X187279459Y-64618628D01*
X188128815Y-64619370D01*
X188913800Y-64295020D01*
X189514909Y-63694959D01*
X189840628Y-62910541D01*
X189841370Y-62061185D01*
X189517020Y-61276200D01*
X188916959Y-60675091D01*
X188132541Y-60349372D01*
X187283185Y-60348630D01*
X186498200Y-60672980D01*
X185897091Y-61273041D01*
X185571372Y-62057459D01*
X185570630Y-62906815D01*
X185572026Y-62910193D01*
X185352799Y-62819162D01*
X184980833Y-62818838D01*
X184798927Y-62894000D01*
X183561086Y-62894000D01*
X183561162Y-62806833D01*
X183419117Y-62463057D01*
X183156327Y-62199808D01*
X182812799Y-62057162D01*
X182440833Y-62056838D01*
X182258927Y-62132000D01*
X137273028Y-62132000D01*
X137092799Y-62057162D01*
X136720833Y-62056838D01*
X136377057Y-62198883D01*
X136113808Y-62461673D01*
X135971162Y-62805201D01*
X135971150Y-62819070D01*
X135704833Y-62818838D01*
X135361057Y-62960883D01*
X135097808Y-63223673D01*
X134955162Y-63567201D01*
X134954838Y-63939167D01*
X135096883Y-64282943D01*
X135359673Y-64546192D01*
X135703201Y-64688838D01*
X136075167Y-64689162D01*
X136418943Y-64547117D01*
X136452118Y-64514000D01*
X139645537Y-64514000D01*
X139677673Y-64546192D01*
X140021201Y-64688838D01*
X140393167Y-64689162D01*
X140736943Y-64547117D01*
X141000192Y-64284327D01*
X141142838Y-63940799D01*
X141142915Y-63852000D01*
X143211776Y-63852000D01*
X141377888Y-65685888D01*
X141191464Y-65964892D01*
X141126000Y-66294000D01*
X141126000Y-69747776D01*
X140359776Y-70514000D01*
X133096000Y-70514000D01*
X132766892Y-70579464D01*
X132568370Y-70712112D01*
X132487888Y-70765888D01*
X131477415Y-71776361D01*
X131297057Y-71850883D01*
X131033808Y-72113673D01*
X130891162Y-72457201D01*
X130891085Y-72546000D01*
X127113028Y-72546000D01*
X126932799Y-72471162D01*
X126560833Y-72470838D01*
X126217057Y-72612883D01*
X125953808Y-72875673D01*
X125811162Y-73219201D01*
X125810838Y-73591167D01*
X125856176Y-73700894D01*
X125731302Y-73784332D01*
X125476000Y-74166418D01*
X125220698Y-73784332D01*
X124755151Y-73473263D01*
X124206000Y-73364030D01*
X123656849Y-73473263D01*
X123191302Y-73784332D01*
X122936000Y-74166418D01*
X122680698Y-73784332D01*
X122215151Y-73473263D01*
X121666000Y-73364030D01*
X121116849Y-73473263D01*
X120651302Y-73784332D01*
X120340233Y-74249879D01*
X120231000Y-74799030D01*
X120231000Y-75568970D01*
X120340233Y-76118121D01*
X120651302Y-76583668D01*
X121116849Y-76894737D01*
X121666000Y-77003970D01*
X122215151Y-76894737D01*
X122680698Y-76583668D01*
X122936000Y-76201582D01*
X123191302Y-76583668D01*
X123656849Y-76894737D01*
X124206000Y-77003970D01*
X124755151Y-76894737D01*
X125220698Y-76583668D01*
X125476000Y-76201582D01*
X125731302Y-76583668D01*
X126196849Y-76894737D01*
X126746000Y-77003970D01*
X127295151Y-76894737D01*
X127760698Y-76583668D01*
X128016000Y-76201582D01*
X128271302Y-76583668D01*
X128736849Y-76894737D01*
X129286000Y-77003970D01*
X129835151Y-76894737D01*
X130300698Y-76583668D01*
X130556000Y-76201582D01*
X130811302Y-76583668D01*
X131276849Y-76894737D01*
X131826000Y-77003970D01*
X132375151Y-76894737D01*
X132840698Y-76583668D01*
X133096000Y-76201582D01*
X133351302Y-76583668D01*
X133816849Y-76894737D01*
X134366000Y-77003970D01*
X134915151Y-76894737D01*
X135380698Y-76583668D01*
X135636000Y-76201582D01*
X135891302Y-76583668D01*
X136356849Y-76894737D01*
X136906000Y-77003970D01*
X137455151Y-76894737D01*
X137920698Y-76583668D01*
X138173149Y-76205849D01*
X138521104Y-76638500D01*
X139014181Y-76908367D01*
X139096961Y-76925904D01*
X139319000Y-76803915D01*
X139319000Y-75311000D01*
X139573000Y-75311000D01*
X139573000Y-76803915D01*
X139795039Y-76925904D01*
X139877819Y-76908367D01*
X140370896Y-76638500D01*
X140723166Y-76200483D01*
X140881000Y-75661000D01*
X140881000Y-75311000D01*
X139573000Y-75311000D01*
X139319000Y-75311000D01*
X139299000Y-75311000D01*
X139299000Y-75057000D01*
X139319000Y-75057000D01*
X139319000Y-75037000D01*
X139573000Y-75037000D01*
X139573000Y-75057000D01*
X140881000Y-75057000D01*
X140881000Y-74707000D01*
X140751979Y-74266000D01*
X146259776Y-74266000D01*
X140613776Y-79912000D01*
X120498224Y-79912000D01*
X114652000Y-74065776D01*
X114652000Y-67179030D01*
X120231000Y-67179030D01*
X120231000Y-67948970D01*
X120340233Y-68498121D01*
X120651302Y-68963668D01*
X121116849Y-69274737D01*
X121666000Y-69383970D01*
X122215151Y-69274737D01*
X122680698Y-68963668D01*
X122936000Y-68581582D01*
X123191302Y-68963668D01*
X123656849Y-69274737D01*
X124206000Y-69383970D01*
X124755151Y-69274737D01*
X125220698Y-68963668D01*
X125476000Y-68581582D01*
X125731302Y-68963668D01*
X126196849Y-69274737D01*
X126746000Y-69383970D01*
X127295151Y-69274737D01*
X127760698Y-68963668D01*
X128016000Y-68581582D01*
X128271302Y-68963668D01*
X128736849Y-69274737D01*
X129286000Y-69383970D01*
X129835151Y-69274737D01*
X130300698Y-68963668D01*
X130556000Y-68581582D01*
X130811302Y-68963668D01*
X131276849Y-69274737D01*
X131826000Y-69383970D01*
X132375151Y-69274737D01*
X132840698Y-68963668D01*
X133096000Y-68581582D01*
X133351302Y-68963668D01*
X133816849Y-69274737D01*
X134366000Y-69383970D01*
X134915151Y-69274737D01*
X135380698Y-68963668D01*
X135636000Y-68581582D01*
X135891302Y-68963668D01*
X136356849Y-69274737D01*
X136906000Y-69383970D01*
X137455151Y-69274737D01*
X137920698Y-68963668D01*
X138176000Y-68581582D01*
X138431302Y-68963668D01*
X138896849Y-69274737D01*
X139446000Y-69383970D01*
X139995151Y-69274737D01*
X140460698Y-68963668D01*
X140771767Y-68498121D01*
X140881000Y-67948970D01*
X140881000Y-67179030D01*
X140771767Y-66629879D01*
X140460698Y-66164332D01*
X139995151Y-65853263D01*
X139446000Y-65744030D01*
X138896849Y-65853263D01*
X138431302Y-66164332D01*
X138176000Y-66546418D01*
X137920698Y-66164332D01*
X137455151Y-65853263D01*
X136906000Y-65744030D01*
X136356849Y-65853263D01*
X135891302Y-66164332D01*
X135636000Y-66546418D01*
X135380698Y-66164332D01*
X134915151Y-65853263D01*
X134366000Y-65744030D01*
X133816849Y-65853263D01*
X133351302Y-66164332D01*
X133096000Y-66546418D01*
X132840698Y-66164332D01*
X132375151Y-65853263D01*
X131826000Y-65744030D01*
X131276849Y-65853263D01*
X130811302Y-66164332D01*
X130556000Y-66546418D01*
X130300698Y-66164332D01*
X129835151Y-65853263D01*
X129286000Y-65744030D01*
X128736849Y-65853263D01*
X128271302Y-66164332D01*
X128016000Y-66546418D01*
X127760698Y-66164332D01*
X127295151Y-65853263D01*
X126746000Y-65744030D01*
X126196849Y-65853263D01*
X125731302Y-66164332D01*
X125476000Y-66546418D01*
X125220698Y-66164332D01*
X124755151Y-65853263D01*
X124206000Y-65744030D01*
X123656849Y-65853263D01*
X123191302Y-66164332D01*
X122936000Y-66546418D01*
X122680698Y-66164332D01*
X122215151Y-65853263D01*
X121666000Y-65744030D01*
X121116849Y-65853263D01*
X120651302Y-66164332D01*
X120340233Y-66629879D01*
X120231000Y-67179030D01*
X114652000Y-67179030D01*
X114652000Y-65391028D01*
X114726838Y-65210799D01*
X114727162Y-64838833D01*
X114585117Y-64495057D01*
X114322327Y-64231808D01*
X113978799Y-64089162D01*
X113606833Y-64088838D01*
X113263057Y-64230883D01*
X112999808Y-64493673D01*
X112857162Y-64837201D01*
X112856838Y-65209167D01*
X111870329Y-65209167D01*
X111870774Y-64700306D01*
X111622462Y-64099345D01*
X111163073Y-63639154D01*
X110562547Y-63389794D01*
X109912306Y-63389226D01*
X109311345Y-63637538D01*
X108851154Y-64096927D01*
X108601794Y-64697453D01*
X108601226Y-65347694D01*
X107360398Y-65347694D01*
X112341277Y-60366815D01*
X137310630Y-60366815D01*
X137634980Y-61151800D01*
X138235041Y-61752909D01*
X139019459Y-62078628D01*
X139868815Y-62079370D01*
X140653800Y-61755020D01*
X141254909Y-61154959D01*
X141580628Y-60370541D01*
X141581370Y-59521185D01*
X141257020Y-58736200D01*
X140656959Y-58135091D01*
X139872541Y-57809372D01*
X139023185Y-57808630D01*
X138238200Y-58132980D01*
X137637091Y-58733041D01*
X137311372Y-59517459D01*
X137310630Y-60366815D01*
X112341277Y-60366815D01*
X113786046Y-58922046D01*
X114294043Y-58414048D01*
X114294046Y-58414046D01*
X115102092Y-57606000D01*
X190713908Y-57606000D01*
X201474000Y-68366092D01*
X201474000Y-68366092D01*
G37*
X201474000Y-68366092D02*
X201474000Y-93524000D01*
X105866000Y-93524000D01*
X105866000Y-91585865D01*
X105884980Y-91631800D01*
X106485041Y-92232909D01*
X107269459Y-92558628D01*
X108118815Y-92559370D01*
X108903800Y-92235020D01*
X109504909Y-91634959D01*
X109830628Y-90850541D01*
X109830715Y-90750234D01*
X111141226Y-90750234D01*
X111389538Y-91351195D01*
X111848927Y-91811386D01*
X112449453Y-92060746D01*
X113099694Y-92061314D01*
X113700655Y-91813002D01*
X114160846Y-91353613D01*
X114410206Y-90753087D01*
X114410774Y-90102846D01*
X114162462Y-89501885D01*
X114087758Y-89427050D01*
X121289070Y-89427050D01*
X121289070Y-91426030D01*
X121333348Y-91661347D01*
X121472420Y-91877471D01*
X121684620Y-92022461D01*
X121936510Y-92073470D01*
X123935490Y-92073470D01*
X124170807Y-92029192D01*
X124386931Y-91890120D01*
X124531921Y-91677920D01*
X124582930Y-91426030D01*
X124582930Y-90846815D01*
X127150630Y-90846815D01*
X127474980Y-91631800D01*
X128075041Y-92232909D01*
X128859459Y-92558628D01*
X129708815Y-92559370D01*
X130493800Y-92235020D01*
X131094909Y-91634959D01*
X131420628Y-90850541D01*
X131421370Y-90001185D01*
X131097020Y-89216200D01*
X130496959Y-88615091D01*
X129712541Y-88289372D01*
X128863185Y-88288630D01*
X128078200Y-88612980D01*
X127477091Y-89213041D01*
X127151372Y-89997459D01*
X127150630Y-90846815D01*
X124582930Y-90846815D01*
X124582930Y-89427050D01*
X124538652Y-89191733D01*
X124399580Y-88975609D01*
X124187380Y-88830619D01*
X123935490Y-88779610D01*
X121936510Y-88779610D01*
X121701193Y-88823888D01*
X121485069Y-88962960D01*
X121340079Y-89175160D01*
X121289070Y-89427050D01*
X114087758Y-89427050D01*
X113703073Y-89041694D01*
X113102547Y-88792334D01*
X112452306Y-88791766D01*
X111851345Y-89040078D01*
X111391154Y-89499467D01*
X111141794Y-90099993D01*
X111141226Y-90750234D01*
X109830715Y-90750234D01*
X109831370Y-90001185D01*
X109507020Y-89216200D01*
X108906959Y-88615091D01*
X108122541Y-88289372D01*
X107273185Y-88288630D01*
X106488200Y-88612980D01*
X105887091Y-89213041D01*
X105866000Y-89263834D01*
X105866000Y-83782679D01*
X108585000Y-83782679D01*
X108585000Y-84365321D01*
X108710675Y-84997131D01*
X109068567Y-85532754D01*
X109604190Y-85890646D01*
X110236000Y-86016321D01*
X110867810Y-85890646D01*
X111403433Y-85532754D01*
X111506000Y-85379252D01*
X111608567Y-85532754D01*
X112144190Y-85890646D01*
X112776000Y-86016321D01*
X113407810Y-85890646D01*
X113943433Y-85532754D01*
X114060054Y-85358219D01*
X114238370Y-85585236D01*
X114801523Y-85901926D01*
X114933056Y-85933975D01*
X115189000Y-85814836D01*
X115189000Y-84201000D01*
X115443000Y-84201000D01*
X115443000Y-85814836D01*
X115698944Y-85933975D01*
X115830477Y-85901926D01*
X116393630Y-85585236D01*
X116792724Y-85077143D01*
X116967000Y-84455000D01*
X116967000Y-84201000D01*
X115443000Y-84201000D01*
X115189000Y-84201000D01*
X115169000Y-84201000D01*
X115169000Y-83947000D01*
X115189000Y-83947000D01*
X115189000Y-82333164D01*
X115443000Y-82333164D01*
X115443000Y-83947000D01*
X116967000Y-83947000D01*
X116967000Y-83693000D01*
X116792724Y-83070857D01*
X116393630Y-82562764D01*
X116145096Y-82423000D01*
X145415000Y-82423000D01*
X145415000Y-82677000D01*
X146939000Y-82677000D01*
X146939000Y-81063164D01*
X146683056Y-80944025D01*
X146551523Y-80976074D01*
X145988370Y-81292764D01*
X145589276Y-81800857D01*
X145415000Y-82423000D01*
X116145096Y-82423000D01*
X115830477Y-82246074D01*
X115698944Y-82214025D01*
X115443000Y-82333164D01*
X115189000Y-82333164D01*
X114933056Y-82214025D01*
X114801523Y-82246074D01*
X114238370Y-82562764D01*
X114060054Y-82789781D01*
X113943433Y-82615246D01*
X113407810Y-82257354D01*
X112776000Y-82131679D01*
X112144190Y-82257354D01*
X111608567Y-82615246D01*
X111506000Y-82768748D01*
X111403433Y-82615246D01*
X110867810Y-82257354D01*
X110236000Y-82131679D01*
X109604190Y-82257354D01*
X109068567Y-82615246D01*
X108710675Y-83150869D01*
X108585000Y-83782679D01*
X105866000Y-83782679D01*
X105866000Y-75507694D01*
X108601226Y-75507694D01*
X108849538Y-76108655D01*
X109308927Y-76568846D01*
X109909453Y-76818206D01*
X110559694Y-76818774D01*
X111160655Y-76570462D01*
X111620846Y-76111073D01*
X111870206Y-75510547D01*
X111870774Y-74860306D01*
X111622462Y-74259345D01*
X111163073Y-73799154D01*
X110562547Y-73549794D01*
X109912306Y-73549226D01*
X109311345Y-73797538D01*
X108851154Y-74256927D01*
X108601794Y-74857453D01*
X108601226Y-75507694D01*
X105866000Y-75507694D01*
X105866000Y-66842092D01*
X107360398Y-65347694D01*
X108601226Y-65347694D01*
X108849538Y-65948655D01*
X109308927Y-66408846D01*
X109909453Y-66658206D01*
X110559694Y-66658774D01*
X111160655Y-66410462D01*
X111620846Y-65951073D01*
X111870206Y-65350547D01*
X111870329Y-65209167D01*
X112856838Y-65209167D01*
X112932000Y-65391073D01*
X112932000Y-74422000D01*
X112997464Y-74751108D01*
X113167180Y-75005107D01*
X113183888Y-75030112D01*
X119533888Y-81380112D01*
X119812892Y-81566536D01*
X120142000Y-81632000D01*
X140970000Y-81632000D01*
X141299108Y-81566536D01*
X141578112Y-81380112D01*
X147422224Y-75536000D01*
X150757387Y-75536000D01*
X150511794Y-76127453D01*
X150511226Y-76777694D01*
X150756788Y-77372000D01*
X146417028Y-77372000D01*
X146236799Y-77297162D01*
X145864833Y-77296838D01*
X145521057Y-77438883D01*
X145257808Y-77701673D01*
X145115162Y-78045201D01*
X145114838Y-78417167D01*
X145256883Y-78760943D01*
X145519673Y-79024192D01*
X145863201Y-79166838D01*
X146235167Y-79167162D01*
X146417073Y-79092000D01*
X149017844Y-79092000D01*
X148925162Y-79315201D01*
X148924838Y-79687167D01*
X149066883Y-80030943D01*
X149329673Y-80294192D01*
X149518742Y-80372701D01*
X149784892Y-80550536D01*
X150114000Y-80616000D01*
X160074730Y-80616000D01*
X159796144Y-80802144D01*
X159796142Y-80802147D01*
X156289288Y-84309000D01*
X153244221Y-84309000D01*
X153313433Y-84262754D01*
X153671325Y-83727131D01*
X153797000Y-83095321D01*
X153797000Y-82512679D01*
X153671325Y-81880869D01*
X153313433Y-81345246D01*
X152777810Y-80987354D01*
X152146000Y-80861679D01*
X151514190Y-80987354D01*
X150978567Y-81345246D01*
X150876000Y-81498748D01*
X150773433Y-81345246D01*
X150237810Y-80987354D01*
X149606000Y-80861679D01*
X148974190Y-80987354D01*
X148438567Y-81345246D01*
X148321946Y-81519781D01*
X148143630Y-81292764D01*
X147580477Y-80976074D01*
X147448944Y-80944025D01*
X147193000Y-81063164D01*
X147193000Y-82677000D01*
X147213000Y-82677000D01*
X147213000Y-82931000D01*
X147193000Y-82931000D01*
X147193000Y-82951000D01*
X146939000Y-82951000D01*
X146939000Y-82931000D01*
X145415000Y-82931000D01*
X145415000Y-83185000D01*
X145589276Y-83807143D01*
X145983472Y-84309000D01*
X139446005Y-84309000D01*
X139446000Y-84308999D01*
X139049923Y-84387785D01*
X138714144Y-84612144D01*
X138714142Y-84612147D01*
X134551758Y-88774530D01*
X133366510Y-88774530D01*
X133131193Y-88818808D01*
X132915069Y-88957880D01*
X132770079Y-89170080D01*
X132719070Y-89421970D01*
X132719070Y-91420950D01*
X132763348Y-91656267D01*
X132902420Y-91872391D01*
X133114620Y-92017381D01*
X133366510Y-92068390D01*
X135365490Y-92068390D01*
X135600807Y-92024112D01*
X135816931Y-91885040D01*
X135961921Y-91672840D01*
X136012930Y-91420950D01*
X136012930Y-90745154D01*
X142891226Y-90745154D01*
X143139538Y-91346115D01*
X143598927Y-91806306D01*
X144199453Y-92055666D01*
X144849694Y-92056234D01*
X145450655Y-91807922D01*
X145910846Y-91348533D01*
X146119177Y-90846815D01*
X147470630Y-90846815D01*
X147794980Y-91631800D01*
X148395041Y-92232909D01*
X149179459Y-92558628D01*
X150028815Y-92559370D01*
X150813800Y-92235020D01*
X151414909Y-91634959D01*
X151740628Y-90850541D01*
X151740631Y-90846815D01*
X156360630Y-90846815D01*
X156684980Y-91631800D01*
X157285041Y-92232909D01*
X158069459Y-92558628D01*
X158918815Y-92559370D01*
X159703800Y-92235020D01*
X160304909Y-91634959D01*
X160630628Y-90850541D01*
X160630715Y-90750234D01*
X161941226Y-90750234D01*
X162189538Y-91351195D01*
X162648927Y-91811386D01*
X163249453Y-92060746D01*
X163899694Y-92061314D01*
X164500655Y-91813002D01*
X164960846Y-91353613D01*
X165210206Y-90753087D01*
X165210774Y-90102846D01*
X164962462Y-89501885D01*
X164887758Y-89427050D01*
X172089070Y-89427050D01*
X172089070Y-91426030D01*
X172133348Y-91661347D01*
X172272420Y-91877471D01*
X172484620Y-92022461D01*
X172736510Y-92073470D01*
X174735490Y-92073470D01*
X174970807Y-92029192D01*
X175186931Y-91890120D01*
X175331921Y-91677920D01*
X175382930Y-91426030D01*
X175382930Y-90846815D01*
X176680630Y-90846815D01*
X177004980Y-91631800D01*
X177605041Y-92232909D01*
X178389459Y-92558628D01*
X179238815Y-92559370D01*
X180023800Y-92235020D01*
X180624909Y-91634959D01*
X180950628Y-90850541D01*
X180951370Y-90001185D01*
X180712043Y-89421970D01*
X182249070Y-89421970D01*
X182249070Y-91420950D01*
X182293348Y-91656267D01*
X182432420Y-91872391D01*
X182644620Y-92017381D01*
X182896510Y-92068390D01*
X184895490Y-92068390D01*
X185130807Y-92024112D01*
X185346931Y-91885040D01*
X185491921Y-91672840D01*
X185542930Y-91420950D01*
X185542930Y-90745154D01*
X192421226Y-90745154D01*
X192669538Y-91346115D01*
X193128927Y-91806306D01*
X193729453Y-92055666D01*
X194379694Y-92056234D01*
X194980655Y-91807922D01*
X195440846Y-91348533D01*
X195649177Y-90846815D01*
X197000630Y-90846815D01*
X197324980Y-91631800D01*
X197925041Y-92232909D01*
X198709459Y-92558628D01*
X199558815Y-92559370D01*
X200343800Y-92235020D01*
X200944909Y-91634959D01*
X201270628Y-90850541D01*
X201271370Y-90001185D01*
X200947020Y-89216200D01*
X200346959Y-88615091D01*
X199562541Y-88289372D01*
X198713185Y-88288630D01*
X197928200Y-88612980D01*
X197327091Y-89213041D01*
X197001372Y-89997459D01*
X197000630Y-90846815D01*
X195649177Y-90846815D01*
X195690206Y-90748007D01*
X195690774Y-90097766D01*
X195442462Y-89496805D01*
X194983073Y-89036614D01*
X194382547Y-88787254D01*
X193732306Y-88786686D01*
X193131345Y-89034998D01*
X192671154Y-89494387D01*
X192421794Y-90094913D01*
X192421226Y-90745154D01*
X185542930Y-90745154D01*
X185542930Y-89421970D01*
X185498652Y-89186653D01*
X185359580Y-88970529D01*
X185147380Y-88825539D01*
X184895490Y-88774530D01*
X182896510Y-88774530D01*
X182661193Y-88818808D01*
X182445069Y-88957880D01*
X182300079Y-89170080D01*
X182249070Y-89421970D01*
X180712043Y-89421970D01*
X180627020Y-89216200D01*
X180026959Y-88615091D01*
X179242541Y-88289372D01*
X178393185Y-88288630D01*
X177608200Y-88612980D01*
X177007091Y-89213041D01*
X176681372Y-89997459D01*
X176680630Y-90846815D01*
X175382930Y-90846815D01*
X175382930Y-89427050D01*
X175338652Y-89191733D01*
X175199580Y-88975609D01*
X174987380Y-88830619D01*
X174735490Y-88779610D01*
X172736510Y-88779610D01*
X172501193Y-88823888D01*
X172285069Y-88962960D01*
X172140079Y-89175160D01*
X172089070Y-89427050D01*
X164887758Y-89427050D01*
X164503073Y-89041694D01*
X163902547Y-88792334D01*
X163252306Y-88791766D01*
X162651345Y-89040078D01*
X162191154Y-89499467D01*
X161941794Y-90099993D01*
X161941226Y-90750234D01*
X160630715Y-90750234D01*
X160631370Y-90001185D01*
X160307020Y-89216200D01*
X159706959Y-88615091D01*
X158922541Y-88289372D01*
X158073185Y-88288630D01*
X157288200Y-88612980D01*
X156687091Y-89213041D01*
X156361372Y-89997459D01*
X156360630Y-90846815D01*
X151740631Y-90846815D01*
X151741370Y-90001185D01*
X151417020Y-89216200D01*
X150816959Y-88615091D01*
X150032541Y-88289372D01*
X149183185Y-88288630D01*
X148398200Y-88612980D01*
X147797091Y-89213041D01*
X147471372Y-89997459D01*
X147470630Y-90846815D01*
X146119177Y-90846815D01*
X146160206Y-90748007D01*
X146160774Y-90097766D01*
X145912462Y-89496805D01*
X145453073Y-89036614D01*
X144852547Y-88787254D01*
X144202306Y-88786686D01*
X143601345Y-89034998D01*
X143141154Y-89494387D01*
X142891794Y-90094913D01*
X142891226Y-90745154D01*
X136012930Y-90745154D01*
X136012930Y-90240782D01*
X139874711Y-86379000D01*
X142192647Y-86379000D01*
X142067162Y-86681201D01*
X142066838Y-87053167D01*
X142208883Y-87396943D01*
X142471673Y-87660192D01*
X142815201Y-87802838D01*
X143187167Y-87803162D01*
X143369073Y-87728000D01*
X167780972Y-87728000D01*
X167961201Y-87802838D01*
X168333167Y-87803162D01*
X168676943Y-87661117D01*
X168940192Y-87398327D01*
X169082838Y-87054799D01*
X169083162Y-86682833D01*
X168941117Y-86339057D01*
X168678327Y-86075808D01*
X168334799Y-85933162D01*
X167962833Y-85932838D01*
X167780927Y-86008000D01*
X163617832Y-86008000D01*
X164207810Y-85890646D01*
X164743433Y-85532754D01*
X164860054Y-85358219D01*
X165038370Y-85585236D01*
X165601523Y-85901926D01*
X165733056Y-85933975D01*
X165989000Y-85814836D01*
X165989000Y-84201000D01*
X166243000Y-84201000D01*
X166243000Y-85814836D01*
X166498944Y-85933975D01*
X166630477Y-85901926D01*
X167193630Y-85585236D01*
X167390992Y-85333970D01*
X175703635Y-85333970D01*
X175863418Y-85652739D01*
X176654187Y-85962723D01*
X177503387Y-85946497D01*
X178212582Y-85652739D01*
X178372365Y-85333970D01*
X177038000Y-83999605D01*
X175703635Y-85333970D01*
X167390992Y-85333970D01*
X167592724Y-85077143D01*
X167767000Y-84455000D01*
X167767000Y-84201000D01*
X166243000Y-84201000D01*
X165989000Y-84201000D01*
X165969000Y-84201000D01*
X165969000Y-83947000D01*
X165989000Y-83947000D01*
X165989000Y-83927000D01*
X166243000Y-83927000D01*
X166243000Y-83947000D01*
X167767000Y-83947000D01*
X167767000Y-83693000D01*
X167592724Y-83070857D01*
X167198528Y-82569000D01*
X175357716Y-82569000D01*
X175205261Y-82645418D01*
X174895277Y-83436187D01*
X174911503Y-84285387D01*
X175205261Y-84994582D01*
X175524030Y-85154365D01*
X176858395Y-83820000D01*
X176844253Y-83805858D01*
X177023858Y-83626253D01*
X177038000Y-83640395D01*
X177052143Y-83626253D01*
X177231748Y-83805858D01*
X177217605Y-83820000D01*
X178551970Y-85154365D01*
X178870739Y-84994582D01*
X179180723Y-84203813D01*
X179164497Y-83354613D01*
X178870739Y-82645418D01*
X178718284Y-82569000D01*
X181435288Y-82569000D01*
X181833073Y-82966784D01*
X181761372Y-83139459D01*
X181760630Y-83988815D01*
X182084980Y-84773800D01*
X182685041Y-85374909D01*
X183469459Y-85700628D01*
X184318815Y-85701370D01*
X185103800Y-85377020D01*
X185704909Y-84776959D01*
X186030628Y-83992541D01*
X186031370Y-83143185D01*
X185943697Y-82931000D01*
X189865000Y-82931000D01*
X189865000Y-83185000D01*
X190039276Y-83807143D01*
X190438370Y-84315236D01*
X191001523Y-84631926D01*
X191133056Y-84663975D01*
X191389000Y-84544836D01*
X191389000Y-82931000D01*
X189865000Y-82931000D01*
X185943697Y-82931000D01*
X185733795Y-82423000D01*
X189865000Y-82423000D01*
X189865000Y-82677000D01*
X191389000Y-82677000D01*
X191389000Y-81063164D01*
X191643000Y-81063164D01*
X191643000Y-82677000D01*
X191663000Y-82677000D01*
X191663000Y-82931000D01*
X191643000Y-82931000D01*
X191643000Y-84544836D01*
X191898944Y-84663975D01*
X192030477Y-84631926D01*
X192593630Y-84315236D01*
X192771946Y-84088219D01*
X192888567Y-84262754D01*
X193424190Y-84620646D01*
X194056000Y-84746321D01*
X194687810Y-84620646D01*
X195223433Y-84262754D01*
X195326000Y-84109252D01*
X195428567Y-84262754D01*
X195964190Y-84620646D01*
X196596000Y-84746321D01*
X197227810Y-84620646D01*
X197763433Y-84262754D01*
X198121325Y-83727131D01*
X198247000Y-83095321D01*
X198247000Y-82512679D01*
X198121325Y-81880869D01*
X197763433Y-81345246D01*
X197227810Y-80987354D01*
X196596000Y-80861679D01*
X195964190Y-80987354D01*
X195428567Y-81345246D01*
X195326000Y-81498748D01*
X195223433Y-81345246D01*
X194687810Y-80987354D01*
X194056000Y-80861679D01*
X193424190Y-80987354D01*
X192888567Y-81345246D01*
X192771946Y-81519781D01*
X192593630Y-81292764D01*
X192030477Y-80976074D01*
X191898944Y-80944025D01*
X191643000Y-81063164D01*
X191389000Y-81063164D01*
X191133056Y-80944025D01*
X191001523Y-80976074D01*
X190438370Y-81292764D01*
X190039276Y-81800857D01*
X189865000Y-82423000D01*
X185733795Y-82423000D01*
X185707020Y-82358200D01*
X185106959Y-81757091D01*
X184322541Y-81431372D01*
X183473185Y-81430630D01*
X183297099Y-81503387D01*
X182595856Y-80802144D01*
X182260077Y-80577785D01*
X181864000Y-80498999D01*
X181863995Y-80499000D01*
X162631148Y-80499000D01*
X162844192Y-80286327D01*
X162986838Y-79942799D01*
X162987162Y-79570833D01*
X162845117Y-79227057D01*
X162710295Y-79092000D01*
X179473772Y-79092000D01*
X179546883Y-79268943D01*
X179809673Y-79532192D01*
X180153201Y-79674838D01*
X180525167Y-79675162D01*
X180868943Y-79533117D01*
X181132192Y-79270327D01*
X181274838Y-78926799D01*
X181275162Y-78554833D01*
X181133117Y-78211057D01*
X180970039Y-78047694D01*
X194961226Y-78047694D01*
X195209538Y-78648655D01*
X195668927Y-79108846D01*
X196269453Y-79358206D01*
X196919694Y-79358774D01*
X197520655Y-79110462D01*
X197980846Y-78651073D01*
X198230206Y-78050547D01*
X198230774Y-77400306D01*
X197982462Y-76799345D01*
X197523073Y-76339154D01*
X196922547Y-76089794D01*
X196272306Y-76089226D01*
X195671345Y-76337538D01*
X195211154Y-76796927D01*
X194961794Y-77397453D01*
X194961226Y-78047694D01*
X180970039Y-78047694D01*
X180870327Y-77947808D01*
X180688551Y-77872328D01*
X180440112Y-77623888D01*
X180161108Y-77437464D01*
X179832000Y-77372000D01*
X162424613Y-77372000D01*
X162670206Y-76780547D01*
X162670774Y-76130306D01*
X162422462Y-75529345D01*
X161963073Y-75069154D01*
X161362547Y-74819794D01*
X160712306Y-74819226D01*
X160111345Y-75067538D01*
X159651154Y-75526927D01*
X159401794Y-76127453D01*
X159401226Y-76777694D01*
X159646788Y-77372000D01*
X153534613Y-77372000D01*
X153780206Y-76780547D01*
X153780774Y-76130306D01*
X153535212Y-75536000D01*
X154064972Y-75536000D01*
X154245201Y-75610838D01*
X154617167Y-75611162D01*
X154960943Y-75469117D01*
X155224192Y-75206327D01*
X155366838Y-74862799D01*
X155367162Y-74490833D01*
X155274263Y-74266000D01*
X168597026Y-74266000D01*
X168491000Y-74799030D01*
X168491000Y-75568970D01*
X168600233Y-76118121D01*
X168911302Y-76583668D01*
X169376849Y-76894737D01*
X169926000Y-77003970D01*
X170475151Y-76894737D01*
X170940698Y-76583668D01*
X171196000Y-76201582D01*
X171451302Y-76583668D01*
X171916849Y-76894737D01*
X172466000Y-77003970D01*
X173015151Y-76894737D01*
X173480698Y-76583668D01*
X173736000Y-76201582D01*
X173991302Y-76583668D01*
X174456849Y-76894737D01*
X175006000Y-77003970D01*
X175555151Y-76894737D01*
X176020698Y-76583668D01*
X176276000Y-76201582D01*
X176531302Y-76583668D01*
X176996849Y-76894737D01*
X177546000Y-77003970D01*
X178095151Y-76894737D01*
X178560698Y-76583668D01*
X178816000Y-76201582D01*
X179071302Y-76583668D01*
X179536849Y-76894737D01*
X180086000Y-77003970D01*
X180635151Y-76894737D01*
X181100698Y-76583668D01*
X181356000Y-76201582D01*
X181611302Y-76583668D01*
X182076849Y-76894737D01*
X182626000Y-77003970D01*
X183175151Y-76894737D01*
X183640698Y-76583668D01*
X183893149Y-76205849D01*
X184241104Y-76638500D01*
X184734181Y-76908367D01*
X184816961Y-76925904D01*
X185039000Y-76803915D01*
X185039000Y-75311000D01*
X185019000Y-75311000D01*
X185019000Y-75057000D01*
X185039000Y-75057000D01*
X185039000Y-73564085D01*
X185293000Y-73564085D01*
X185293000Y-75057000D01*
X185313000Y-75057000D01*
X185313000Y-75311000D01*
X185293000Y-75311000D01*
X185293000Y-76803915D01*
X185515039Y-76925904D01*
X185597819Y-76908367D01*
X186090896Y-76638500D01*
X186438851Y-76205849D01*
X186691302Y-76583668D01*
X187156849Y-76894737D01*
X187706000Y-77003970D01*
X188255151Y-76894737D01*
X188720698Y-76583668D01*
X189031767Y-76118121D01*
X189141000Y-75568970D01*
X189141000Y-74799030D01*
X189031767Y-74249879D01*
X188720698Y-73784332D01*
X188255151Y-73473263D01*
X187706000Y-73364030D01*
X187156849Y-73473263D01*
X186691302Y-73784332D01*
X186438851Y-74162151D01*
X186090896Y-73729500D01*
X185597819Y-73459633D01*
X185515039Y-73442096D01*
X185293000Y-73564085D01*
X185039000Y-73564085D01*
X184816961Y-73442096D01*
X184734181Y-73459633D01*
X184241104Y-73729500D01*
X183893149Y-74162151D01*
X183640698Y-73784332D01*
X183175151Y-73473263D01*
X182626000Y-73364030D01*
X182076849Y-73473263D01*
X181611302Y-73784332D01*
X181356000Y-74166418D01*
X181100698Y-73784332D01*
X180635151Y-73473263D01*
X180086000Y-73364030D01*
X179536849Y-73473263D01*
X179071302Y-73784332D01*
X178816000Y-74166418D01*
X178560698Y-73784332D01*
X178095151Y-73473263D01*
X177546000Y-73364030D01*
X176996849Y-73473263D01*
X176531302Y-73784332D01*
X176276000Y-74166418D01*
X176153356Y-73982868D01*
X177894585Y-72241639D01*
X178074943Y-72167117D01*
X178338192Y-71904327D01*
X178480838Y-71560799D01*
X178480915Y-71472000D01*
X178956972Y-71472000D01*
X179137201Y-71546838D01*
X179509167Y-71547162D01*
X179852943Y-71405117D01*
X180116192Y-71142327D01*
X180258838Y-70798799D01*
X180259162Y-70426833D01*
X180117117Y-70083057D01*
X179854327Y-69819808D01*
X179510799Y-69677162D01*
X179138833Y-69676838D01*
X178956927Y-69752000D01*
X143369028Y-69752000D01*
X143188799Y-69677162D01*
X142846000Y-69676863D01*
X142846000Y-66650224D01*
X142878530Y-66617694D01*
X150511226Y-66617694D01*
X150759538Y-67218655D01*
X151218927Y-67678846D01*
X151819453Y-67928206D01*
X152469694Y-67928774D01*
X153070655Y-67680462D01*
X153530846Y-67221073D01*
X153780206Y-66620547D01*
X153780208Y-66617694D01*
X159401226Y-66617694D01*
X159649538Y-67218655D01*
X160108927Y-67678846D01*
X160709453Y-67928206D01*
X161359694Y-67928774D01*
X161935151Y-67691000D01*
X168491000Y-67691000D01*
X168491000Y-68041000D01*
X168648834Y-68580483D01*
X169001104Y-69018500D01*
X169494181Y-69288367D01*
X169576961Y-69305904D01*
X169799000Y-69183915D01*
X169799000Y-67691000D01*
X168491000Y-67691000D01*
X161935151Y-67691000D01*
X161960655Y-67680462D01*
X162420846Y-67221073D01*
X162476517Y-67087000D01*
X168491000Y-67087000D01*
X168491000Y-67437000D01*
X169799000Y-67437000D01*
X169799000Y-65944085D01*
X170053000Y-65944085D01*
X170053000Y-67437000D01*
X170073000Y-67437000D01*
X170073000Y-67691000D01*
X170053000Y-67691000D01*
X170053000Y-69183915D01*
X170275039Y-69305904D01*
X170357819Y-69288367D01*
X170850896Y-69018500D01*
X171198851Y-68585849D01*
X171451302Y-68963668D01*
X171916849Y-69274737D01*
X172466000Y-69383970D01*
X173015151Y-69274737D01*
X173480698Y-68963668D01*
X173736000Y-68581582D01*
X173991302Y-68963668D01*
X174456849Y-69274737D01*
X175006000Y-69383970D01*
X175555151Y-69274737D01*
X176020698Y-68963668D01*
X176276000Y-68581582D01*
X176531302Y-68963668D01*
X176996849Y-69274737D01*
X177546000Y-69383970D01*
X178095151Y-69274737D01*
X178560698Y-68963668D01*
X178816000Y-68581582D01*
X179071302Y-68963668D01*
X179536849Y-69274737D01*
X180086000Y-69383970D01*
X180635151Y-69274737D01*
X181100698Y-68963668D01*
X181356000Y-68581582D01*
X181611302Y-68963668D01*
X182076849Y-69274737D01*
X182626000Y-69383970D01*
X183175151Y-69274737D01*
X183640698Y-68963668D01*
X183896000Y-68581582D01*
X184151302Y-68963668D01*
X184616849Y-69274737D01*
X185166000Y-69383970D01*
X185715151Y-69274737D01*
X186180698Y-68963668D01*
X186436000Y-68581582D01*
X186691302Y-68963668D01*
X187156849Y-69274737D01*
X187706000Y-69383970D01*
X188255151Y-69274737D01*
X188720698Y-68963668D01*
X189031767Y-68498121D01*
X189141000Y-67948970D01*
X189141000Y-67887694D01*
X194961226Y-67887694D01*
X195209538Y-68488655D01*
X195668927Y-68948846D01*
X196269453Y-69198206D01*
X196919694Y-69198774D01*
X197520655Y-68950462D01*
X197980846Y-68491073D01*
X198230206Y-67890547D01*
X198230774Y-67240306D01*
X197982462Y-66639345D01*
X197523073Y-66179154D01*
X196922547Y-65929794D01*
X196272306Y-65929226D01*
X195671345Y-66177538D01*
X195211154Y-66636927D01*
X194961794Y-67237453D01*
X194961226Y-67887694D01*
X189141000Y-67887694D01*
X189141000Y-67179030D01*
X189031767Y-66629879D01*
X188720698Y-66164332D01*
X188255151Y-65853263D01*
X187706000Y-65744030D01*
X187156849Y-65853263D01*
X186691302Y-66164332D01*
X186436000Y-66546418D01*
X186180698Y-66164332D01*
X185715151Y-65853263D01*
X185166000Y-65744030D01*
X184616849Y-65853263D01*
X184151302Y-66164332D01*
X183896000Y-66546418D01*
X183640698Y-66164332D01*
X183175151Y-65853263D01*
X182626000Y-65744030D01*
X182076849Y-65853263D01*
X181611302Y-66164332D01*
X181356000Y-66546418D01*
X181100698Y-66164332D01*
X180635151Y-65853263D01*
X180086000Y-65744030D01*
X179536849Y-65853263D01*
X179071302Y-66164332D01*
X178816000Y-66546418D01*
X178560698Y-66164332D01*
X178095151Y-65853263D01*
X177546000Y-65744030D01*
X176996849Y-65853263D01*
X176531302Y-66164332D01*
X176276000Y-66546418D01*
X176020698Y-66164332D01*
X175555151Y-65853263D01*
X175006000Y-65744030D01*
X174456849Y-65853263D01*
X173991302Y-66164332D01*
X173736000Y-66546418D01*
X173480698Y-66164332D01*
X173015151Y-65853263D01*
X172466000Y-65744030D01*
X171916849Y-65853263D01*
X171451302Y-66164332D01*
X171198851Y-66542151D01*
X170850896Y-66109500D01*
X170357819Y-65839633D01*
X170275039Y-65822096D01*
X170053000Y-65944085D01*
X169799000Y-65944085D01*
X169576961Y-65822096D01*
X169494181Y-65839633D01*
X169001104Y-66109500D01*
X168648834Y-66547517D01*
X168491000Y-67087000D01*
X162476517Y-67087000D01*
X162670206Y-66620547D01*
X162670774Y-65970306D01*
X162422462Y-65369345D01*
X161963073Y-64909154D01*
X161362547Y-64659794D01*
X160712306Y-64659226D01*
X160111345Y-64907538D01*
X159651154Y-65366927D01*
X159401794Y-65967453D01*
X159401226Y-66617694D01*
X153780208Y-66617694D01*
X153780774Y-65970306D01*
X153532462Y-65369345D01*
X153073073Y-64909154D01*
X152472547Y-64659794D01*
X151822306Y-64659226D01*
X151221345Y-64907538D01*
X150761154Y-65366927D01*
X150511794Y-65967453D01*
X150511226Y-66617694D01*
X142878530Y-66617694D01*
X144882224Y-64614000D01*
X184798972Y-64614000D01*
X184979201Y-64688838D01*
X185351167Y-64689162D01*
X185694943Y-64547117D01*
X185958192Y-64284327D01*
X186100838Y-63940799D01*
X186100875Y-63898055D01*
X186495041Y-64292909D01*
X187279459Y-64618628D01*
X188128815Y-64619370D01*
X188913800Y-64295020D01*
X189514909Y-63694959D01*
X189840628Y-62910541D01*
X189841370Y-62061185D01*
X189517020Y-61276200D01*
X188916959Y-60675091D01*
X188132541Y-60349372D01*
X187283185Y-60348630D01*
X186498200Y-60672980D01*
X185897091Y-61273041D01*
X185571372Y-62057459D01*
X185570630Y-62906815D01*
X185572026Y-62910193D01*
X185352799Y-62819162D01*
X184980833Y-62818838D01*
X184798927Y-62894000D01*
X183561086Y-62894000D01*
X183561162Y-62806833D01*
X183419117Y-62463057D01*
X183156327Y-62199808D01*
X182812799Y-62057162D01*
X182440833Y-62056838D01*
X182258927Y-62132000D01*
X137273028Y-62132000D01*
X137092799Y-62057162D01*
X136720833Y-62056838D01*
X136377057Y-62198883D01*
X136113808Y-62461673D01*
X135971162Y-62805201D01*
X135971150Y-62819070D01*
X135704833Y-62818838D01*
X135361057Y-62960883D01*
X135097808Y-63223673D01*
X134955162Y-63567201D01*
X134954838Y-63939167D01*
X135096883Y-64282943D01*
X135359673Y-64546192D01*
X135703201Y-64688838D01*
X136075167Y-64689162D01*
X136418943Y-64547117D01*
X136452118Y-64514000D01*
X139645537Y-64514000D01*
X139677673Y-64546192D01*
X140021201Y-64688838D01*
X140393167Y-64689162D01*
X140736943Y-64547117D01*
X141000192Y-64284327D01*
X141142838Y-63940799D01*
X141142915Y-63852000D01*
X143211776Y-63852000D01*
X141377888Y-65685888D01*
X141191464Y-65964892D01*
X141126000Y-66294000D01*
X141126000Y-69747776D01*
X140359776Y-70514000D01*
X133096000Y-70514000D01*
X132766892Y-70579464D01*
X132568370Y-70712112D01*
X132487888Y-70765888D01*
X131477415Y-71776361D01*
X131297057Y-71850883D01*
X131033808Y-72113673D01*
X130891162Y-72457201D01*
X130891085Y-72546000D01*
X127113028Y-72546000D01*
X126932799Y-72471162D01*
X126560833Y-72470838D01*
X126217057Y-72612883D01*
X125953808Y-72875673D01*
X125811162Y-73219201D01*
X125810838Y-73591167D01*
X125856176Y-73700894D01*
X125731302Y-73784332D01*
X125476000Y-74166418D01*
X125220698Y-73784332D01*
X124755151Y-73473263D01*
X124206000Y-73364030D01*
X123656849Y-73473263D01*
X123191302Y-73784332D01*
X122936000Y-74166418D01*
X122680698Y-73784332D01*
X122215151Y-73473263D01*
X121666000Y-73364030D01*
X121116849Y-73473263D01*
X120651302Y-73784332D01*
X120340233Y-74249879D01*
X120231000Y-74799030D01*
X120231000Y-75568970D01*
X120340233Y-76118121D01*
X120651302Y-76583668D01*
X121116849Y-76894737D01*
X121666000Y-77003970D01*
X122215151Y-76894737D01*
X122680698Y-76583668D01*
X122936000Y-76201582D01*
X123191302Y-76583668D01*
X123656849Y-76894737D01*
X124206000Y-77003970D01*
X124755151Y-76894737D01*
X125220698Y-76583668D01*
X125476000Y-76201582D01*
X125731302Y-76583668D01*
X126196849Y-76894737D01*
X126746000Y-77003970D01*
X127295151Y-76894737D01*
X127760698Y-76583668D01*
X128016000Y-76201582D01*
X128271302Y-76583668D01*
X128736849Y-76894737D01*
X129286000Y-77003970D01*
X129835151Y-76894737D01*
X130300698Y-76583668D01*
X130556000Y-76201582D01*
X130811302Y-76583668D01*
X131276849Y-76894737D01*
X131826000Y-77003970D01*
X132375151Y-76894737D01*
X132840698Y-76583668D01*
X133096000Y-76201582D01*
X133351302Y-76583668D01*
X133816849Y-76894737D01*
X134366000Y-77003970D01*
X134915151Y-76894737D01*
X135380698Y-76583668D01*
X135636000Y-76201582D01*
X135891302Y-76583668D01*
X136356849Y-76894737D01*
X136906000Y-77003970D01*
X137455151Y-76894737D01*
X137920698Y-76583668D01*
X138173149Y-76205849D01*
X138521104Y-76638500D01*
X139014181Y-76908367D01*
X139096961Y-76925904D01*
X139319000Y-76803915D01*
X139319000Y-75311000D01*
X139573000Y-75311000D01*
X139573000Y-76803915D01*
X139795039Y-76925904D01*
X139877819Y-76908367D01*
X140370896Y-76638500D01*
X140723166Y-76200483D01*
X140881000Y-75661000D01*
X140881000Y-75311000D01*
X139573000Y-75311000D01*
X139319000Y-75311000D01*
X139299000Y-75311000D01*
X139299000Y-75057000D01*
X139319000Y-75057000D01*
X139319000Y-75037000D01*
X139573000Y-75037000D01*
X139573000Y-75057000D01*
X140881000Y-75057000D01*
X140881000Y-74707000D01*
X140751979Y-74266000D01*
X146259776Y-74266000D01*
X140613776Y-79912000D01*
X120498224Y-79912000D01*
X114652000Y-74065776D01*
X114652000Y-67179030D01*
X120231000Y-67179030D01*
X120231000Y-67948970D01*
X120340233Y-68498121D01*
X120651302Y-68963668D01*
X121116849Y-69274737D01*
X121666000Y-69383970D01*
X122215151Y-69274737D01*
X122680698Y-68963668D01*
X122936000Y-68581582D01*
X123191302Y-68963668D01*
X123656849Y-69274737D01*
X124206000Y-69383970D01*
X124755151Y-69274737D01*
X125220698Y-68963668D01*
X125476000Y-68581582D01*
X125731302Y-68963668D01*
X126196849Y-69274737D01*
X126746000Y-69383970D01*
X127295151Y-69274737D01*
X127760698Y-68963668D01*
X128016000Y-68581582D01*
X128271302Y-68963668D01*
X128736849Y-69274737D01*
X129286000Y-69383970D01*
X129835151Y-69274737D01*
X130300698Y-68963668D01*
X130556000Y-68581582D01*
X130811302Y-68963668D01*
X131276849Y-69274737D01*
X131826000Y-69383970D01*
X132375151Y-69274737D01*
X132840698Y-68963668D01*
X133096000Y-68581582D01*
X133351302Y-68963668D01*
X133816849Y-69274737D01*
X134366000Y-69383970D01*
X134915151Y-69274737D01*
X135380698Y-68963668D01*
X135636000Y-68581582D01*
X135891302Y-68963668D01*
X136356849Y-69274737D01*
X136906000Y-69383970D01*
X137455151Y-69274737D01*
X137920698Y-68963668D01*
X138176000Y-68581582D01*
X138431302Y-68963668D01*
X138896849Y-69274737D01*
X139446000Y-69383970D01*
X139995151Y-69274737D01*
X140460698Y-68963668D01*
X140771767Y-68498121D01*
X140881000Y-67948970D01*
X140881000Y-67179030D01*
X140771767Y-66629879D01*
X140460698Y-66164332D01*
X139995151Y-65853263D01*
X139446000Y-65744030D01*
X138896849Y-65853263D01*
X138431302Y-66164332D01*
X138176000Y-66546418D01*
X137920698Y-66164332D01*
X137455151Y-65853263D01*
X136906000Y-65744030D01*
X136356849Y-65853263D01*
X135891302Y-66164332D01*
X135636000Y-66546418D01*
X135380698Y-66164332D01*
X134915151Y-65853263D01*
X134366000Y-65744030D01*
X133816849Y-65853263D01*
X133351302Y-66164332D01*
X133096000Y-66546418D01*
X132840698Y-66164332D01*
X132375151Y-65853263D01*
X131826000Y-65744030D01*
X131276849Y-65853263D01*
X130811302Y-66164332D01*
X130556000Y-66546418D01*
X130300698Y-66164332D01*
X129835151Y-65853263D01*
X129286000Y-65744030D01*
X128736849Y-65853263D01*
X128271302Y-66164332D01*
X128016000Y-66546418D01*
X127760698Y-66164332D01*
X127295151Y-65853263D01*
X126746000Y-65744030D01*
X126196849Y-65853263D01*
X125731302Y-66164332D01*
X125476000Y-66546418D01*
X125220698Y-66164332D01*
X124755151Y-65853263D01*
X124206000Y-65744030D01*
X123656849Y-65853263D01*
X123191302Y-66164332D01*
X122936000Y-66546418D01*
X122680698Y-66164332D01*
X122215151Y-65853263D01*
X121666000Y-65744030D01*
X121116849Y-65853263D01*
X120651302Y-66164332D01*
X120340233Y-66629879D01*
X120231000Y-67179030D01*
X114652000Y-67179030D01*
X114652000Y-65391028D01*
X114726838Y-65210799D01*
X114727162Y-64838833D01*
X114585117Y-64495057D01*
X114322327Y-64231808D01*
X113978799Y-64089162D01*
X113606833Y-64088838D01*
X113263057Y-64230883D01*
X112999808Y-64493673D01*
X112857162Y-64837201D01*
X112856838Y-65209167D01*
X111870329Y-65209167D01*
X111870774Y-64700306D01*
X111622462Y-64099345D01*
X111163073Y-63639154D01*
X110562547Y-63389794D01*
X109912306Y-63389226D01*
X109311345Y-63637538D01*
X108851154Y-64096927D01*
X108601794Y-64697453D01*
X108601226Y-65347694D01*
X107360398Y-65347694D01*
X112341277Y-60366815D01*
X137310630Y-60366815D01*
X137634980Y-61151800D01*
X138235041Y-61752909D01*
X139019459Y-62078628D01*
X139868815Y-62079370D01*
X140653800Y-61755020D01*
X141254909Y-61154959D01*
X141580628Y-60370541D01*
X141581370Y-59521185D01*
X141257020Y-58736200D01*
X140656959Y-58135091D01*
X139872541Y-57809372D01*
X139023185Y-57808630D01*
X138238200Y-58132980D01*
X137637091Y-58733041D01*
X137311372Y-59517459D01*
X137310630Y-60366815D01*
X112341277Y-60366815D01*
X113786046Y-58922046D01*
X114294043Y-58414048D01*
X114294046Y-58414046D01*
X115102092Y-57606000D01*
X190713908Y-57606000D01*
X201474000Y-68366092D01*
M02*
