G04 #@! TF.FileFunction,Legend,Bot*
%FSLAX46Y46*%
G04 Gerber Fmt 4.6, Leading zero omitted, Abs format (unit mm)*
G04 Created by KiCad (PCBNEW 4.0.1-stable) date 2016-05-02 8:22:51 PM*
%MOMM*%
G01*
G04 APERTURE LIST*
%ADD10C,0.100000*%
%ADD11C,0.150000*%
G04 APERTURE END LIST*
D10*
D11*
X202184000Y-92710000D02*
X202184000Y-93472000D01*
X202184000Y-94234000D02*
X202184000Y-92710000D01*
X105156000Y-94234000D02*
X202184000Y-94234000D01*
X202184000Y-68072000D02*
X202184000Y-92964000D01*
X191008000Y-56896000D02*
X202184000Y-68072000D01*
X187706000Y-56896000D02*
X191008000Y-56896000D01*
X185420000Y-56896000D02*
X187706000Y-56896000D01*
X114808000Y-56896000D02*
X185420000Y-56896000D01*
X113792000Y-57912000D02*
X114808000Y-56896000D01*
X113284000Y-58420000D02*
X113792000Y-57912000D01*
X112014000Y-59690000D02*
X113284000Y-58420000D01*
X105156000Y-66548000D02*
X112014000Y-59690000D01*
X105156000Y-94234000D02*
X105156000Y-66548000D01*
D10*
X197545490Y-77724000D02*
G75*
G03X197545490Y-77724000I-949490J0D01*
G01*
X197545490Y-67564000D02*
G75*
G03X197545490Y-67564000I-949490J0D01*
G01*
X161985490Y-76454000D02*
G75*
G03X161985490Y-76454000I-949490J0D01*
G01*
X161985490Y-66294000D02*
G75*
G03X161985490Y-66294000I-949490J0D01*
G01*
X153095490Y-76454000D02*
G75*
G03X153095490Y-76454000I-949490J0D01*
G01*
X153095490Y-66294000D02*
G75*
G03X153095490Y-66294000I-949490J0D01*
G01*
X111185490Y-75184000D02*
G75*
G03X111185490Y-75184000I-949490J0D01*
G01*
X111185490Y-65024000D02*
G75*
G03X111185490Y-65024000I-949490J0D01*
G01*
M02*
